{
DisplayStrings = (
"/na-deva OHno"
);
classes = (
{
automatic = 1;
code = "iMatra-deva iMatra-deva.0 iMatra-deva.05 iMatra-deva.10";
name = DevaIMatras;
},
{
automatic = 1;
code = "iMatra_reph-deva iMatra_reph-deva.0 iMatra_reph-deva.05 iMatra_reph-deva.10";
name = DevaIMatraRephs;
},
{
automatic = 1;
code = "iMatra_reph_anusvara-deva iMatra_reph_anusvara-deva.0 iMatra_reph_anusvara-deva.05 iMatra_reph_anusvara-deva.10";
name = DevaIMatraRephAnusvaras;
},
{
automatic = 1;
code = "ka-deva kha-deva ga-deva gha-deva nga-deva ca-deva cha-deva ja-deva jha-deva nya-deva tta-deva ttha-deva dda-deva ddha-deva nna-deva ta-deva tha-deva da-deva dha-deva na-deva nnna-deva pa-deva pha-deva ba-deva bha-deva ma-deva ya-deva ra-deva rra-deva la-deva lla-deva llla-deva va-deva sha-deva ssa-deva sa-deva ha-deva qa-deva khha-deva ghha-deva za-deva dddha-deva rha-deva fa-deva yya-deva zha-deva jjya-deva gga-deva jja-deva ddda-deva bba-deva la-deva.loclMAR sha-deva.loclMAR jha-deva.loclNEP zha-deva.loclNEP na-deva.post ya-deva.post ra-deva.post va-deva.post";
name = DevaFullforms;
},
{
automatic = 1;
code = "k-deva kh-deva g-deva gh-deva ng-deva c-deva ch-deva j-deva jh-deva ny-deva tt-deva tth-deva dd-deva ddh-deva nn-deva t-deva th-deva d-deva dh-deva n-deva nnn-deva p-deva ph-deva b-deva bh-deva m-deva y-deva rr-deva l-deva ll-deva lll-deva v-deva sh-deva ss-deva s-deva h-deva q-deva khh-deva ghh-deva z-deva f-deva l-deva.loclMAR sh-deva.loclMAR jh-deva.loclNEP";
name = DevaHalfforms;
},
{
automatic = 1;

glyphs = (
{
glyphname = A;
lastChange = "2014-11-13 13:56:18 +0000";
layers = (
{
layerId = "E777F328-EA17-4AE7-9EBA-8002E537BA4F";
name = Light;
paths = (
{
closed = 1;
nodes = (
"1 0 LINE",
"221 0 LINE",
"221 33 LINE",
"136 44 LINE",
"197 222 LINE",
"512 222 LINE",
"574 44 LINE",
"492 33 LINE",
"492 0 LINE",
"730 0 LINE",
"730 33 LINE",
"649 44 LINE",
"394 762 LINE",
"335 762 LINE",
"72 44 LINE",
"1 33 LINE"
);
},
{
closed = 1;
nodes = (
"212 267 LINE",
"356 680 LINE",
"392 566 LINE",
"497 267 LINE"
);
}
);
width = 729;
},
{
layerId = "39185045-6A8C-415A-8312-7B8F11386A4C";
name = Regular;
paths = (
{
closed = 1;
nodes = (
"1 0 LINE",
"234 0 LINE",
"234 42 LINE",
"153 56 LINE",
"206 213 LINE",
"499 213 LINE",
"551 56 LINE",
"470 42 LINE",
"470 0 LINE",
"728 0 LINE",
"728 42 LINE",
"650 56 LINE",
"407 758 LINE",
"325 758 LINE",
"71 56 LINE",
"1 42 LINE"
);
},
{
closed = 1;
nodes = (
"225 271 LINE",
"354 656 LINE",
"400 509 LINE",
"479 271 LINE"
);
}
);
width = 729;
},
{
layerId = "B26750D4-52C5-4F85-819B-BFB2F142DAD5";
name = Bold;
paths = (
{
closed = 1;
nodes = (
"2 0 LINE",
"276 0 LINE",
"276 68 LINE",
"203 91 LINE",
"225 164 LINE",
"489 164 LINE",
"510 89 LINE",
"445 67 LINE",
"445 0 LINE",
"779 0 LINE",
"779 67 LINE",
"705 87 LINE",
"471 758 LINE",
"308 758 LINE",
"67 88 LINE",
"2 68 LINE"
);
},
{
closed = 1;
nodes = (
"253 254 LINE",
"362 612 LINE",
"398 478 LINE",
"463 254 LINE"
);
}
);
width = 781;
}
);
unicode = 0041;
},
{
glyphname = Aacute;
lastChange = "2014-11-13 13:56:31 +0000";
layers = (
{
layerId = "E777F328-EA17-4AE7-9EBA-8002E537BA4F";
name = Light;
paths = (
{
closed = 1;
nodes = (
"361 785 LINE",
"420 809 OFFCURVE",
"491 848 OFFCURVE",
"538 884 CURVE",
"485 938 LINE",
"341 806 LINE"
);
},
{
closed = 1;
nodes = (
"1 0 LINE",
"221 0 LINE",
"221 33 LINE",
"136 44 LINE",
"197 222 LINE",
"512 222 LINE",
"574 44 LINE",
"492 33 LINE",
"492 0 LINE",
"730 0 LINE",
"730 33 LINE",
"649 44 LINE",
"394 762 LINE",
"335 762 LINE",
"72 44 LINE",
"1 33 LINE"
);
},
{
closed = 1;
nodes = (
"212 267 LINE",
"356 680 LINE",
"392 566 LINE",
"497 267 LINE"
);
}
);
width = 729;
},
{
layerId = "39185045-6A8C-415A-8312-7B8F11386A4C";
name = Regular;
paths = (
{
closed = 1;
nodes = (
"361 785 LINE",
"422 795 OFFCURVE",
"495 826 OFFCURVE",
"556 865 CURVE",
"485 938 LINE",
"335 811 LINE"
);
},
{
closed = 1;
nodes = (
"1 0 LINE",
"234 0 LINE",
"234 42 LINE",
"153 56 LINE",
"206 213 LINE",
"499 213 LINE",
"551 56 LINE",
"470 42 LINE",
"470 0 LINE",
"728 0 LINE",
"728 42 LINE",
"650 56 LINE",
"407 758 LINE",
"325 758 LINE",
"71 56 LINE",
"1 42 LINE"
);
},
{
closed = 1;
nodes = (
"225 271 LINE",
"354 656 LINE",
"400 509 LINE",
"479 271 LINE"
);
}
);
width = 729;
},
{
background = {
paths = (
{
closed = 1;
nodes = (
"365 778 LINE",
"369 777 OFFCURVE",
"376 778 OFFCURVE",
"387 779 CURVE SMOOTH",
"397 781 OFFCURVE",
"410 783 OFFCURVE",
"424 785 CURVE SMOOTH",
"453 791 OFFCURVE",
"488 798 OFFCURVE",
"521 808 CURVE SMOOTH",
"554 818 OFFCURVE",
"584 830 OFFCURVE",
"602 844 CURVE",
"508 938 LINE",
"316 830 LINE"
);
}
);
};
layerId = "B26750D4-52C5-4F85-819B-BFB2F142DAD5";
name = Bold;
paths = (
{
closed = 1;
nodes = (
"365 778 LINE",
"429 782 OFFCURVE",
"558 810 OFFCURVE",
"602 844 CURVE",
"508 938 LINE",
"316 830 LINE"
);
},
{
closed = 1;
nodes = (
"2 0 LINE",
"276 0 LINE",
"276 68 LINE",
"203 91 LINE",
"225 164 LINE",
"489 164 LINE",
"510 89 LINE",
"445 67 LINE",
"445 0 LINE",
"779 0 LINE",
"779 67 LINE",
"705 87 LINE",
"471 758 LINE",
"308 758 LINE",
"67 88 LINE",
"2 68 LINE"
);
},
{
closed = 1;
nodes = (
"253 254 LINE",
"362 612 LINE",
"398 478 LINE",
"463 254 LINE"
);
}
);
width = 781;
}
);
unicode = 00C1;
},
{
glyphname = Abreve;
lastChange = "2014-11-13 13:29:05 +0000";
layers = (
{
background = {
paths = (
{
closed = 1;
nodes = (
"228 790 LINE",
"364 887 LINE",
"497 790 LINE",
"531 809 LINE",
"400 938 LINE",
"329 938 LINE",
"197 808 LINE"
);
},
{
closed = 1;
nodes = (
"1 0 LINE",
"221 0 LINE",
"221 33 LINE",
"136 44 LINE",
"197 222 LINE",
"512 222 LINE",
"574 44 LINE",
"492 33 LINE",
"492 0 LINE",
"730 0 LINE",
"730 33 LINE",
"649 44 LINE",
"394 762 LINE",
"335 762 LINE",
"72 44 LINE",
"1 33 LINE"
);
},
{
closed = 1;
nodes = (
"212 267 LINE",
"356 680 LINE",
"392 566 LINE",
"497 267 LINE"
);
}
);
};
components = (
{
name = breve.cap;
transform = "{1, 0, 0, 1, 225, 30}";
},
{
name = A;
}
);
layerId = "E777F328-EA17-4AE7-9EBA-8002E537BA4F";
name = Light;
width = 729;
},
{
background = {
paths = (
{
closed = 1;
nodes = (
"234 789 LINE",
"366 871 LINE",
"495 789 LINE",
"537 813 LINE",
"412 938 LINE",
"319 938 LINE",
"196 812 LINE"
);
},
{
closed = 1;
nodes = (
"1 0 LINE",
"234 0 LINE",
"234 42 LINE",
"153 56 LINE",
"206 213 LINE",
"499 213 LINE",
"551 56 LINE",
"470 42 LINE",
"470 0 LINE",
"728 0 LINE",
"728 42 LINE",
"650 56 LINE",
"407 758 LINE",
"325 758 LINE",
"71 56 LINE",
"1 42 LINE"
);
},
{
closed = 1;
nodes = (
"225 271 LINE",
"354 656 LINE",
"400 509 LINE",
"479 271 LINE"
);
}
);
};
components = (
{
name = breve.cap;
transform = "{1, 0, 0, 1, 225, 23}";
},
{
name = A;
}
);
layerId = "39185045-6A8C-415A-8312-7B8F11386A4C";
name = Regular;
width = 729;
},
{
background = {
paths = (
{
closed = 1;
nodes = (
"200 815 LINE",
"334 938 LINE",
"448 938 LINE",
"580 815 LINE",
"525 780 LINE",
"392 843 LINE",
"254 780 LINE"
);
},
{
closed = 1;
nodes = (
"2 68 LINE",
"67 88 LINE",
"308 758 LINE",
"471 758 LINE",
"705 87 LINE",
"779 67 LINE",
"779 0 LINE",
"445 0 LINE",
"445 67 LINE",
"510 89 LINE",
"489 164 LINE",
"225 164 LINE",
"203 91 LINE",
"276 68 LINE",
"276 0 LINE",
"2 0 LINE"
);
},
{
closed = 1;
nodes = (
"463 254 LINE",
"398 478 LINE",
"362 612 LINE",
"253 254 LINE"
);
}
);
};
components = (
{
name = breve.cap;
transform = "{1, 0, 0, 1, 214, 20}";
},
{
name = A;
}
);
layerId = "B26750D4-52C5-4F85-819B-BFB2F142DAD5";
name = Bold;
width = 781;
}
);
unicode = 0102;
},
{
glyphname = Acircumflex;
lastChange = "2014-11-13 16:06:17 +0000";
layers = (
{
layerId = "E777F328-EA17-4AE7-9EBA-8002E537BA4F";
name = Light;
paths = (
{
closed = 1;
nodes = (
"228 790 LINE",
"364 887 LINE",
"497 790 LINE",
"531 809 LINE",
"400 938 LINE",
"329 938 LINE",
"197 808 LINE"
);
},
{
closed = 1;
nodes = (
"1 0 LINE",
"221 0 LINE",
"221 33 LINE",
"136 44 LINE",
"197 222 LINE",
"512 222 LINE",
"574 44 LINE",
"492 33 LINE",
"492 0 LINE",
"730 0 LINE",
"730 33 LINE",
"649 44 LINE",
"394 762 LINE",
"335 762 LINE",
"72 44 LINE",
"1 33 LINE"
);
},
{
closed = 1;
nodes = (
"212 267 LINE",
"356 680 LINE",
"392 566 LINE",
"497 267 LINE"
);
}
);
width = 729;
},
{
layerId = "39185045-6A8C-415A-8312-7B8F11386A4C";
name = Regular;
paths = (
{
closed = 1;
nodes = (
"234 789 LINE",
"366 871 LINE",
"495 789 LINE",
"537 813 LINE",
"412 938 LINE",
"319 938 LINE",
"196 812 LINE"
);
},
{
closed = 1;
nodes = (
"1 0 LINE",
"234 0 LINE",
"234 42 LINE",
"153 56 LINE",
"206 213 LINE",
"499 213 LINE",
"551 56 LINE",
"470 42 LINE",
"470 0 LINE",
"728 0 LINE",
"728 42 LINE",
"650 56 LINE",
"407 758 LINE",
"325 758 LINE",
"71 56 LINE",
"1 42 LINE"
);
},
{
closed = 1;
nodes = (
"225 271 LINE",
"354 656 LINE",
"400 509 LINE",
"479 271 LINE"
);
}
);
width = 729;
},
{
layerId = "B26750D4-52C5-4F85-819B-BFB2F142DAD5";
name = Bold;
paths = (
{
closed = 1;
nodes = (
"254 780 LINE",
"392 843 LINE",
"525 780 LINE",
"580 815 LINE",
"448 938 LINE",
"334 938 LINE",
"200 815 LINE"
);
},
{
closed = 1;
nodes = (
"2 0 LINE",
"276 0 LINE",
"276 68 LINE",
"203 91 LINE",
"225 164 LINE",
"489 164 LINE",
"510 89 LINE",
"445 67 LINE",
"445 0 LINE",
"779 0 LINE",
"779 67 LINE",
"705 87 LINE",
"471 758 LINE",
"308 758 LINE",
"67 88 LINE",
"2 68 LINE"
);
},
{
closed = 1;
nodes = (
"253 254 LINE",
"362 612 LINE",
"398 478 LINE",
"463 254 LINE"
);
}
);
width = 781;
}
);
unicode = 00C2;
},
{
glyphname = Adieresis;
lastChange = "2014-11-13 16:07:38 +0000";
layers = (
{
layerId = "E777F328-EA17-4AE7-9EBA-8002E537BA4F";
name = Light;
paths = (
{
closed = 1;
nodes = (
"335 762 LINE",
"72 44 LINE",
"1 33 LINE",
"1 0 LINE",
"221 0 LINE",
"221 33 LINE",
"136 44 LINE",
"197 222 LINE",
"512 222 LINE",
"574 44 LINE",
"492 33 LINE",
"492 0 LINE",
"730 0 LINE",
"730 33 LINE",
"649 44 LINE",
"394 762 LINE"
);
},
{
closed = 1;
nodes = (
"392 566 LINE",
"497 267 LINE",
"212 267 LINE",
"356 680 LINE"
);
},
{
closed = 1;
nodes = (
"229 926 OFFCURVE",
"199 903 OFFCURVE",
"199 872 CURVE SMOOTH",
"199 843 OFFCURVE",
"222 825 OFFCURVE",
"247 825 CURVE SMOOTH",
"276 825 OFFCURVE",
"304 847 OFFCURVE",
"304 880 CURVE SMOOTH",
"304 905 OFFCURVE",
"289 926 OFFCURVE",
"256 926 CURVE SMOOTH"
);
},
{
closed = 1;
nodes = (
"452 926 OFFCURVE",
"422 902 OFFCURVE",
"422 871 CURVE SMOOTH",
"422 842 OFFCURVE",
"445 825 OFFCURVE",
"470 825 CURVE SMOOTH",
"499 825 OFFCURVE",
"527 847 OFFCURVE",
"527 879 CURVE SMOOTH",
"527 905 OFFCURVE",
"513 926 OFFCURVE",
"479 926 CURVE SMOOTH"
);
}
);
width = 729;
},
{
layerId = "39185045-6A8C-415A-8312-7B8F11386A4C";
name = Regular;
paths = (
{
closed = 1;
nodes = (
"325 758 LINE",
"71 56 LINE",
"1 42 LINE",
"1 0 LINE",
"234 0 LINE",
"234 42 LINE",
"153 56 LINE",
"206 213 LINE",
"499 213 LINE",
"551 56 LINE",
"470 42 LINE",
"470 0 LINE",
"728 0 LINE",
"728 42 LINE",
"650 56 LINE",
"407 758 LINE"
);
},
{
closed = 1;
nodes = (
"400 509 LINE",
"479 271 LINE",
"225 271 LINE",
"354 656 LINE"
);
},
{
closed = 1;
nodes = (
"222 938 OFFCURVE",
"184 907 OFFCURVE",
"184 866 CURVE SMOOTH",
"184 829 OFFCURVE",
"213 806 OFFCURVE",
"245 806 CURVE SMOOTH",
"282 806 OFFCURVE",
"318 834 OFFCURVE",
"318 877 CURVE SMOOTH",
"318 910 OFFCURVE",
"299 938 OFFCURVE",
"256 938 CURVE SMOOTH"
);
},
{
closed = 1;
nodes = (
"449 938 OFFCURVE",
"411 907 OFFCURVE",
"411 866 CURVE SMOOTH",
"411 829 OFFCURVE",
"441 806 OFFCURVE",
"473 806 CURVE SMOOTH",
"509 806 OFFCURVE",
"546 834 OFFCURVE",
"546 877 CURVE SMOOTH",
"546 910 OFFCURVE",
"527 938 OFFCURVE",
"484 938 CURVE SMOOTH"
);
}
);
width = 729;
},
{
background = {
paths = (
{
closed = 1;
nodes = (
"495 791 OFFCURVE",
"473 796 OFFCURVE",
"457 808 CURVE SMOOTH",
"440 820 OFFCURVE",
"429 837 OFFCURVE",
"429 859 CURVE SMOOTH",
"429 882 OFFCURVE",
"442 901 OFFCURVE",
"461 916 CURVE SMOOTH",
"480 929 OFFCURVE",
"505 938 OFFCURVE",
"530 938 CURVE SMOOTH",
"562 938 OFFCURVE",
"584 930 OFFCURVE",
"598 918 CURVE SMOOTH",
"611 906 OFFCURVE",
"617 889 OFFCURVE",
"617 870 CURVE SMOOTH",
"617 845 OFFCURVE",
"605 826 OFFCURVE",
"587 812 CURVE SMOOTH",
"569 798 OFFCURVE",
"543 791 OFFCURVE",
"518 791 CURVE SMOOTH"
);
},
{
closed = 1;
nodes = (
"227 790 OFFCURVE",
"205 796 OFFCURVE",
"189 808 CURVE SMOOTH",
"173 819 OFFCURVE",
"164 836 OFFCURVE",
"164 857 CURVE SMOOTH",
"164 881 OFFCURVE",
"176 901 OFFCURVE",
"195 915 CURVE SMOOTH",
"214 929 OFFCURVE",
"238 938 OFFCURVE",
"264 938 CURVE SMOOTH",
"295 938 OFFCURVE",
"318 930 OFFCURVE",
"333 918 CURVE SMOOTH",
"347 906 OFFCURVE",
"354 889 OFFCURVE",
"354 869 CURVE SMOOTH",
"354 845 OFFCURVE",
"341 825 OFFCURVE",
"322 812 CURVE SMOOTH",
"303 798 OFFCURVE",
"277 790 OFFCURVE",
"250 790 CURVE SMOOTH"
);
}
);
};
layerId = "B26750D4-52C5-4F85-819B-BFB2F142DAD5";
name = Bold;
paths = (
{
closed = 1;
nodes = (
"308 758 LINE",
"67 88 LINE",
"2 68 LINE",
"2 0 LINE",
"276 0 LINE",
"276 68 LINE",
"203 91 LINE",
"225 164 LINE",
"489 164 LINE",
"510 89 LINE",
"445 67 LINE",
"445 0 LINE",
"779 0 LINE",
"779 67 LINE",
"705 87 LINE",
"471 758 LINE"
);
},
{
closed = 1;
nodes = (
"398 478 LINE",
"463 254 LINE",
"253 254 LINE",
"362 612 LINE"
);
},
{
closed = 1;
nodes = (
"215 938 OFFCURVE",
"164 905 OFFCURVE",
"164 857 CURVE SMOOTH",
"164 811 OFFCURVE",
"207 790 OFFCURVE",
"250 790 CURVE SMOOTH",
"302 790 OFFCURVE",
"354 821 OFFCURVE",
"354 869 CURVE SMOOTH",
"354 919 OFFCURVE",
"312 938 OFFCURVE",
"264 938 CURVE SMOOTH"
);
},
{
closed = 1;
nodes = (
"482 938 OFFCURVE",
"429 906 OFFCURVE",
"429 859 CURVE SMOOTH",
"429 816 OFFCURVE",
"470 791 OFFCURVE",
"518 791 CURVE SMOOTH",
"574 791 OFFCURVE",
"617 824 OFFCURVE",
"617 870 CURVE SMOOTH",
"617 918 OFFCURVE",
"581 938 OFFCURVE",
"530 938 CURVE SMOOTH"
);
}
);
width = 781;
}
);
unicode = 00C4;
},
{
glyphname = Agrave;
lastChange = "2014-11-13 16:08:54 +0000";
layers = (
{
layerId = "E777F328-EA17-4AE7-9EBA-8002E537BA4F";
name = Light;
paths = (
{
closed = 1;
nodes = (
"386 806 LINE",
"242 938 LINE",
"189 884 LINE",
"236 848 OFFCURVE",
"307 809 OFFCURVE",
"366 785 CURVE"
);
},
{
closed = 1;
nodes = (
"1 0 LINE",
"221 0 LINE",
"221 33 LINE",
"136 44 LINE",
"197 222 LINE",
"512 222 LINE",
"574 44 LINE",
"492 33 LINE",
"492 0 LINE",
"730 0 LINE",
"730 33 LINE",
"649 44 LINE",
"394 762 LINE",
"335 762 LINE",
"72 44 LINE",
"1 33 LINE"
);
},
{
closed = 1;
nodes = (
"212 267 LINE",
"356 680 LINE",
"392 566 LINE",
"497 267 LINE"
);
}
);
width = 729;
},
{
layerId = "39185045-6A8C-415A-8312-7B8F11386A4C";
name = Regular;
paths = (
{
closed = 1;
nodes = (
"397 811 LINE",
"248 938 LINE",
"176 865 LINE",
"237 826 OFFCURVE",
"310 795 OFFCURVE",
"371 785 CURVE"
);
},
{
closed = 1;
nodes = (
"1 0 LINE",
"234 0 LINE",
"234 42 LINE",
"153 56 LINE",
"206 213 LINE",
"499 213 LINE",
"551 56 LINE",
"470 42 LINE",
"470 0 LINE",
"728 0 LINE",
"728 42 LINE",
"650 56 LINE",
"407 758 LINE",
"325 758 LINE",
"71 56 LINE",
"1 42 LINE"
);
},
{
closed = 1;
nodes = (
"225 271 LINE",
"354 656 LINE",
"400 509 LINE",
"479 271 LINE"
);
}
);
width = 729;
},
{
background = {
paths = (
{
closed = 1;
nodes = (
"278 938 LINE",
"460 830 LINE",
"411 778 LINE",
"408 777 OFFCURVE",
"401 778 OFFCURVE",
"391 779 CURVE SMOOTH",
"371 782 OFFCURVE",
"342 787 OFFCURVE",
"310 795 CURVE SMOOTH",
"278 802 OFFCURVE",
"246 813 OFFCURVE",
"219 825 CURVE SMOOTH",
"205 831 OFFCURVE",
"193 837 OFFCURVE",
"184 844 CURVE"
);
}
);
};
layerId = "B26750D4-52C5-4F85-819B-BFB2F142DAD5";
name = Bold;
paths = (
{
closed = 1;
nodes = (
"460 830 LINE",
"278 938 LINE",
"184 844 LINE",
"230 811 OFFCURVE",
"347 782 OFFCURVE",
"411 778 CURVE"
);
},
{
closed = 1;
nodes = (
"2 0 LINE",
"276 0 LINE",
"276 68 LINE",
"203 91 LINE",
"225 164 LINE",
"489 164 LINE",
"510 89 LINE",
"445 67 LINE",
"445 0 LINE",
"779 0 LINE",
"779 67 LINE",
"705 87 LINE",
"471 758 LINE",
"308 758 LINE",
"67 88 LINE",
"2 68 LINE"
);
},
{
closed = 1;
nodes = (
"253 254 LINE",
"362 612 LINE",
"398 478 LINE",
"463 254 LINE"
);
}
);
width = 781;
}
);
unicode = 00C0;
},
{
glyphname = Amacron;
lastChange = "2014-11-13 16:57:13 +0000";
layers = (
{
background = {
paths = (
{
closed = 1;
nodes = (
"335 762 LINE",
"72 44 LINE",
"1 33 LINE",
"1 0 LINE",
"221 0 LINE",
"221 33 LINE",
"136 44 LINE",
"197 222 LINE",
"512 222 LINE",
"574 44 LINE",
"492 33 LINE",
"492 0 LINE",
"730 0 LINE",
"730 33 LINE",
"649 44 LINE",
"394 762 LINE"
);
},
{
closed = 1;
nodes = (
"392 566 LINE",
"497 267 LINE",
"212 267 LINE",
"356 680 LINE"
);
},
{
closed = 1;
nodes = (
"229 926 OFFCURVE",
"199 903 OFFCURVE",
"199 872 CURVE SMOOTH",
"199 843 OFFCURVE",
"222 825 OFFCURVE",
"247 825 CURVE SMOOTH",
"276 825 OFFCURVE",
"304 847 OFFCURVE",
"304 880 CURVE SMOOTH",
"304 905 OFFCURVE",
"289 926 OFFCURVE",
"256 926 CURVE SMOOTH"
);
},
{
closed = 1;
nodes = (
"452 926 OFFCURVE",
"422 902 OFFCURVE",
"422 871 CURVE SMOOTH",
"422 842 OFFCURVE",
"445 825 OFFCURVE",
"470 825 CURVE SMOOTH",
"499 825 OFFCURVE",
"527 847 OFFCURVE",
"527 879 CURVE SMOOTH",
"527 905 OFFCURVE",
"513 926 OFFCURVE",
"479 926 CURVE SMOOTH"
);
}
);
};
components = (
{
name = macron;
transform = "{1, 0, 0, 1, 140, 131}";
},
{
name = A;
}
);
layerId = "E777F328-EA17-4AE7-9EBA-8002E537BA4F";
name = Light;
width = 729;
},
{
background = {
paths = (
{
closed = 1;
nodes = (
"325 758 LINE",
"71 56 LINE",
"1 42 LINE",
"1 0 LINE",
"234 0 LINE",
"234 42 LINE",
"153 56 LINE",
"206 213 LINE",
"499 213 LINE",
"551 56 LINE",
"470 42 LINE",
"470 0 LINE",
"728 0 LINE",
"728 42 LINE",
"650 56 LINE",
"407 758 LINE"
);
},
{
closed = 1;
nodes = (
"400 509 LINE",
"479 271 LINE",
"225 271 LINE",
"354 656 LINE"
);
},
{
closed = 1;
nodes = (
"222 938 OFFCURVE",
"184 907 OFFCURVE",
"184 866 CURVE SMOOTH",
"184 829 OFFCURVE",
"213 806 OFFCURVE",
"245 806 CURVE SMOOTH",
"282 806 OFFCURVE",
"318 834 OFFCURVE",
"318 877 CURVE SMOOTH",
"318 910 OFFCURVE",
"299 938 OFFCURVE",
"256 938 CURVE SMOOTH"
);
},
{
closed = 1;
nodes = (
"449 938 OFFCURVE",
"411 907 OFFCURVE",
"411 866 CURVE SMOOTH",
"411 829 OFFCURVE",
"441 806 OFFCURVE",
"473 806 CURVE SMOOTH",
"509 806 OFFCURVE",
"546 834 OFFCURVE",
"546 877 CURVE SMOOTH",
"546 910 OFFCURVE",
"527 938 OFFCURVE",
"484 938 CURVE SMOOTH"
);
}
);
};
components = (
{
name = macron;
transform = "{1, 0, 0, 1, 140, 131}";
},
{
name = A;
}
);
layerId = "39185045-6A8C-415A-8312-7B8F11386A4C";
name = Regular;
width = 729;
},
{
background = {
paths = (
{
closed = 1;
nodes = (
"276 0 LINE",
"276 68 LINE",
"203 91 LINE",
"225 164 LINE",
"489 164 LINE",
"510 89 LINE",
"445 67 LINE",
"445 0 LINE",
"779 0 LINE",
"779 67 LINE",
"705 87 LINE",
"471 758 LINE",
"308 758 LINE",
"67 88 LINE",
"2 68 LINE",
"2 0 LINE"
);
},
{
closed = 1;
nodes = (
"362 612 LINE",
"398 478 LINE",
"463 254 LINE",
"253 254 LINE"
);
},
{
closed = 1;
nodes = (
"302 790 OFFCURVE",
"354 821 OFFCURVE",
"354 869 CURVE SMOOTH",
"354 919 OFFCURVE",
"312 938 OFFCURVE",
"264 938 CURVE SMOOTH",
"215 938 OFFCURVE",
"164 905 OFFCURVE",
"164 857 CURVE SMOOTH",
"164 811 OFFCURVE",
"207 790 OFFCURVE",
"250 790 CURVE SMOOTH"
);
},
{
closed = 1;
nodes = (
"574 791 OFFCURVE",
"617 824 OFFCURVE",
"617 870 CURVE SMOOTH",
"617 918 OFFCURVE",
"581 938 OFFCURVE",
"530 938 CURVE SMOOTH",
"482 938 OFFCURVE",
"429 906 OFFCURVE",
"429 859 CURVE SMOOTH",
"429 816 OFFCURVE",
"470 791 OFFCURVE",
"518 791 CURVE SMOOTH"
);
}
);
};
components = (
{
name = macron;
transform = "{1, 0, 0, 1, 122, 151}";
},
{
name = A;
}
);
layerId = "B26750D4-52C5-4F85-819B-BFB2F142DAD5";
name = Bold;
width = 781;
}
);
unicode = 0100;
},
{
glyphname = Aogonek;
lastChange = "2014-11-13 13:55:34 +0000";
layers = (
{
layerId = "E777F328-EA17-4AE7-9EBA-8002E537BA4F";
name = Light;
paths = (
{
closed = 1;
nodes = (
"1 0 LINE",
"221 0 LINE",
"221 33 LINE",
"136 44 LINE",
"197 222 LINE",
"512 222 LINE",
"574 44 LINE",
"492 33 LINE",
"492 0 LINE",
"573 0 LINE",
"497 -30 OFFCURVE",
"420 -101 OFFCURVE",
"420 -165 CURVE SMOOTH",
"420 -212 OFFCURVE",
"452 -255 OFFCURVE",
"518 -257 CURVE SMOOTH",
"598 -260 OFFCURVE",
"646 -228 OFFCURVE",
"672 -208 CURVE",
"663 -173 LINE",
"644 -185 OFFCURVE",
"599 -211 OFFCURVE",
"556 -209 CURVE SMOOTH",
"509 -207 OFFCURVE",
"486 -190 OFFCURVE",
"486 -145 CURVE SMOOTH",
"486 -85 OFFCURVE",
"589 -16 OFFCURVE",
"646 0 CURVE",
"730 0 LINE",
"730 33 LINE",
"649 44 LINE",
"394 762 LINE",
"335 762 LINE",
"72 44 LINE",
"1 33 LINE"
);
},
{
closed = 1;
nodes = (
"212 267 LINE",
"356 680 LINE",
"392 566 LINE",
"497 267 LINE"
);
}
);
width = 729;
},
{
layerId = "39185045-6A8C-415A-8312-7B8F11386A4C";
name = Regular;
paths = (
{
closed = 1;
nodes = (
"1 0 LINE",
"234 0 LINE",
"234 42 LINE",
"153 56 LINE",
"206 213 LINE",
"499 213 LINE",
"551 56 LINE",
"470 42 LINE",
"470 0 LINE",
"557 0 LINE",
"488 -33 OFFCURVE",
"413 -104 OFFCURVE",
"413 -165 CURVE SMOOTH",
"413 -208 OFFCURVE",
"438 -253 OFFCURVE",
"510 -257 CURVE SMOOTH",
"604 -262 OFFCURVE",
"653 -223 OFFCURVE",
"679 -203 CURVE",
"668 -160 LINE",
"652 -168 OFFCURVE",
"604 -197 OFFCURVE",
"563 -195 CURVE SMOOTH",
"521 -192 OFFCURVE",
"500 -182 OFFCURVE",
"500 -137 CURVE SMOOTH",
"500 -93 OFFCURVE",
"579 -23 OFFCURVE",
"637 0 CURVE",
"728 0 LINE",
"728 42 LINE",
"650 56 LINE",
"407 758 LINE",
"325 758 LINE",
"71 56 LINE",
"1 42 LINE"
);
},
{
closed = 1;
nodes = (
"225 271 LINE",
"354 656 LINE",
"400 509 LINE",
"479 271 LINE"
);
}
);
width = 729;
},
{
background = {
paths = (
{
closed = 1;
nodes = (
"551 -251 OFFCURVE",
"623 -231 OFFCURVE",
"688 -185 CURVE",
"670 -119 LINE",
"653 -125 OFFCURVE",
"633 -132 OFFCURVE",
"614 -138 CURVE SMOOTH",
"594 -143 OFFCURVE",
"573 -146 OFFCURVE",
"554 -146 CURVE SMOOTH",
"543 -146 OFFCURVE",
"532 -144 OFFCURVE",
"525 -137 CURVE SMOOTH",
"518 -130 OFFCURVE",
"515 -117 OFFCURVE",
"523 -95 CURVE SMOOTH",
"527 -83 OFFCURVE",
"544 -65 OFFCURVE",
"569 -47 CURVE SMOOTH",
"593 -30 OFFCURVE",
"626 -12 OFFCURVE",
"663 0 CURVE",
"779 0 LINE",
"779 67 LINE",
"705 87 LINE",
"471 758 LINE",
"308 758 LINE",
"67 88 LINE",
"2 68 LINE",
"2 0 LINE",
"276 0 LINE",
"276 68 LINE",
"203 91 LINE",
"225 164 LINE",
"489 164 LINE",
"510 89 LINE",
"445 67 LINE",
"445 0 LINE",
"543 0 LINE",
"484 -21 OFFCURVE",
"438 -52 OFFCURVE",
"408 -84 CURVE SMOOTH",
"376 -116 OFFCURVE",
"360 -148 OFFCURVE",
"362 -171 CURVE SMOOTH",
"363 -190 OFFCURVE",
"371 -210 OFFCURVE",
"387 -225 CURVE SMOOTH",
"403 -240 OFFCURVE",
"428 -251 OFFCURVE",
"466 -251 CURVE SMOOTH"
);
},
{
closed = 1;
nodes = (
"362 612 LINE",
"398 478 LINE",
"463 254 LINE",
"253 254 LINE"
);
}
);
};
layerId = "B26750D4-52C5-4F85-819B-BFB2F142DAD5";
name = Bold;
paths = (
{
closed = 1;
nodes = (
"2 0 LINE",
"276 0 LINE",
"276 68 LINE",
"203 91 LINE",
"225 164 LINE",
"489 164 LINE",
"510 89 LINE",
"445 67 LINE",
"445 0 LINE",
"543 0 LINE",
"462 -27 OFFCURVE",
"362 -104 OFFCURVE",
"362 -171 CURVE SMOOTH",
"362 -218 OFFCURVE",
"405 -251 OFFCURVE",
"466 -251 CURVE SMOOTH",
"551 -251 OFFCURVE",
"623 -231 OFFCURVE",
"688 -185 CURVE",
"670 -119 LINE",
"628 -134 OFFCURVE",
"597 -146 OFFCURVE",
"554 -146 CURVE SMOOTH",
"532 -146 OFFCURVE",
"517 -138 OFFCURVE",
"517 -118 CURVE SMOOTH",
"517 -68 OFFCURVE",
"604 -20 OFFCURVE",
"663 0 CURVE",
"779 0 LINE",
"779 67 LINE",
"705 87 LINE",
"471 758 LINE",
"308 758 LINE",
"67 88 LINE",
"2 68 LINE"
);
},
{
closed = 1;
nodes = (
"253 254 LINE",
"362 612 LINE",
"398 478 LINE",
"463 254 LINE"
);
}
);
width = 781;
}
);
unicode = 0104;
},
{
glyphname = Aring;
lastChange = "2014-11-13 13:55:21 +0000";
layers = (
{
layerId = "E777F328-EA17-4AE7-9EBA-8002E537BA4F";
name = Light;
paths = (
{
closed = 1;
nodes = (
"296 938 OFFCURVE",
"240 892 OFFCURVE",
"240 830 CURVE SMOOTH",
"240 780 OFFCURVE",
"275 743 OFFCURVE",
"322 728 CURVE",
"72 44 LINE",
"1 33 LINE",
"1 0 LINE",
"221 0 LINE",
"221 33 LINE",
"136 44 LINE",
"197 222 LINE",
"512 222 LINE",
"574 44 LINE",
"492 33 LINE",
"492 0 LINE",
"730 0 LINE",
"730 33 LINE",
"649 44 LINE",
"406 729 LINE",
"453 743 OFFCURVE",
"486 782 OFFCURVE",
"486 830 CURVE SMOOTH",
"486 893 OFFCURVE",
"431 938 OFFCURVE",
"363 938 CURVE SMOOTH"
);
},
{
closed = 1;
nodes = (
"392 566 LINE",
"497 267 LINE",
"212 267 LINE",
"356 680 LINE"
);
},
{
closed = 1;
nodes = (
"405 896 OFFCURVE",
"440 868 OFFCURVE",
"440 829 CURVE SMOOTH",
"440 790 OFFCURVE",
"405 763 OFFCURVE",
"363 763 CURVE SMOOTH",
"321 763 OFFCURVE",
"286 790 OFFCURVE",
"286 830 CURVE SMOOTH",
"286 868 OFFCURVE",
"321 896 OFFCURVE",
"363 896 CURVE SMOOTH"
);
}
);
width = 729;
},
{
layerId = "39185045-6A8C-415A-8312-7B8F11386A4C";
name = Regular;
paths = (
{
closed = 1;
nodes = (
"297 938 OFFCURVE",
"242 887 OFFCURVE",
"242 822 CURVE SMOOTH",
"242 775 OFFCURVE",
"270 737 OFFCURVE",
"311 718 CURVE",
"71 56 LINE",
"1 42 LINE",
"1 0 LINE",
"234 0 LINE",
"234 42 LINE",
"153 56 LINE",
"206 213 LINE",
"499 213 LINE",
"551 56 LINE",
"470 42 LINE",
"470 0 LINE",
"728 0 LINE",
"728 42 LINE",
"650 56 LINE",
"420 719 LINE",
"461 738 OFFCURVE",
"488 776 OFFCURVE",
"488 822 CURVE SMOOTH",
"488 887 OFFCURVE",
"432 938 OFFCURVE",
"365 938 CURVE SMOOTH"
);
},
{
closed = 1;
nodes = (
"400 509 LINE",
"479 271 LINE",
"225 271 LINE",
"354 656 LINE"
);
},
{
closed = 1;
nodes = (
"400 883 OFFCURVE",
"430 856 OFFCURVE",
"430 821 CURVE SMOOTH",
"430 785 OFFCURVE",
"400 759 OFFCURVE",
"365 759 CURVE SMOOTH",
"329 759 OFFCURVE",
"300 785 OFFCURVE",
"300 821 CURVE SMOOTH",
"300 856 OFFCURVE",
"329 883 OFFCURVE",
"365 883 CURVE SMOOTH"
);
}
);
width = 729;
},
{
background = {
paths = (
{
closed = 1;
nodes = (
"2 68 LINE",
"67 88 LINE",
"296 724 LINE",
"265 744 OFFCURVE",
"246 775 OFFCURVE",
"246 817 CURVE SMOOTH",
"246 855 OFFCURVE",
"261 886 OFFCURVE",
"287 906 CURVE SMOOTH",
"313 927 OFFCURVE",
"349 938 OFFCURVE",
"391 938 CURVE SMOOTH",
"432 938 OFFCURVE",
"469 926 OFFCURVE",
"495 905 CURVE SMOOTH",
"521 884 OFFCURVE",
"537 854 OFFCURVE",
"537 817 CURVE SMOOTH",
"537 774 OFFCURVE",
"515 742 OFFCURVE",
"483 722 CURVE",
"705 87 LINE",
"779 67 LINE",
"779 0 LINE",
"445 0 LINE",
"445 67 LINE",
"510 89 LINE",
"489 164 LINE",
"225 164 LINE",
"203 91 LINE",
"276 68 LINE",
"276 0 LINE",
"2 0 LINE"
);
},
{
closed = 1;
nodes = (
"408 759 OFFCURVE",
"423 766 OFFCURVE",
"434 776 CURVE SMOOTH",
"445 786 OFFCURVE",
"452 800 OFFCURVE",
"452 817 CURVE SMOOTH",
"452 833 OFFCURVE",
"445 848 OFFCURVE",
"434 859 CURVE SMOOTH",
"423 870 OFFCURVE",
"408 876 OFFCURVE",
"391 876 CURVE SMOOTH",
"354 876 OFFCURVE",
"329 851 OFFCURVE",
"329 817 CURVE SMOOTH",
"329 784 OFFCURVE",
"354 759 OFFCURVE",
"391 759 CURVE SMOOTH"
);
},
{
closed = 1;
nodes = (
"463 254 LINE",
"398 478 LINE",
"362 612 LINE",
"253 254 LINE"
);
}
);
};
layerId = "B26750D4-52C5-4F85-819B-BFB2F142DAD5";
name = Bold;
paths = (
{
closed = 1;
nodes = (
"309 938 OFFCURVE",
"246 895 OFFCURVE",
"246 817 CURVE SMOOTH",
"246 775 OFFCURVE",
"265 744 OFFCURVE",
"296 724 CURVE",
"67 88 LINE",
"2 68 LINE",
"2 0 LINE",
"276 0 LINE",
"276 68 LINE",
"203 91 LINE",
"225 164 LINE",
"489 164 LINE",
"510 89 LINE",
"445 67 LINE",
"445 0 LINE",
"779 0 LINE",
"779 67 LINE",
"705 87 LINE",
"483 722 LINE",
"515 742 OFFCURVE",
"537 774 OFFCURVE",
"537 817 CURVE SMOOTH",
"537 892 OFFCURVE",
"471 938 OFFCURVE",
"391 938 CURVE SMOOTH"
);
},
{
closed = 1;
nodes = (
"398 478 LINE",
"463 254 LINE",
"253 254 LINE",
"362 612 LINE"
);
},
{
closed = 1;
nodes = (
"428 876 OFFCURVE",
"452 846 OFFCURVE",
"452 817 CURVE SMOOTH",
"452 781 OFFCURVE",
"421 759 OFFCURVE",
"391 759 CURVE SMOOTH",
"354 759 OFFCURVE",
"329 784 OFFCURVE",
"329 817 CURVE SMOOTH",
"329 851 OFFCURVE",
"354 876 OFFCURVE",
"391 876 CURVE SMOOTH"
);
}
);
width = 781;
}
);
unicode = 00C5;
},
{
glyphname = Atilde;
lastChange = "2014-11-13 16:12:02 +0000";
layers = (
{
layerId = "E777F328-EA17-4AE7-9EBA-8002E537BA4F";
name = Light;
paths = (
{
closed = 1;
nodes = (
"191 831 LINE",
"214 855 OFFCURVE",
"246 879 OFFCURVE",
"285 879 CURVE SMOOTH",
"335 879 OFFCURVE",
"358 807 OFFCURVE",
"421 807 CURVE SMOOTH",
"474 807 OFFCURVE",
"525 844 OFFCURVE",
"550 885 CURVE",
"529 915 LINE",
"507 890 OFFCURVE",
"477 867 OFFCURVE",
"436 867 CURVE SMOOTH",
"387 867 OFFCURVE",
"363 938 OFFCURVE",
"300 938 CURVE SMOOTH",
"248 938 OFFCURVE",
"196 902 OFFCURVE",
"171 859 CURVE"
);
},
{
closed = 1;
nodes = (
"1 0 LINE",
"221 0 LINE",
"221 33 LINE",
"136 44 LINE",
"197 222 LINE",
"512 222 LINE",
"574 44 LINE",
"492 33 LINE",
"492 0 LINE",
"730 0 LINE",
"730 33 LINE",
"649 44 LINE",
"394 762 LINE",
"335 762 LINE",
"72 44 LINE",
"1 33 LINE"
);
},
{
closed = 1;
nodes = (
"212 267 LINE",
"356 680 LINE",
"392 566 LINE",
"497 267 LINE"
);
}
);
width = 729;
},
{
layerId = "39185045-6A8C-415A-8312-7B8F11386A4C";
name = Regular;
paths = (
{
closed = 1;
nodes = (
"197 819 LINE",
"216 838 OFFCURVE",
"253 860 OFFCURVE",
"287 860 CURVE SMOOTH",
"335 860 OFFCURVE",
"350 796 OFFCURVE",
"414 796 CURVE SMOOTH",
"466 796 OFFCURVE",
"525 834 OFFCURVE",
"549 880 CURVE",
"524 916 LINE",
"503 895 OFFCURVE",
"471 876 OFFCURVE",
"434 876 CURVE SMOOTH",
"386 876 OFFCURVE",
"370 938 OFFCURVE",
"307 938 CURVE SMOOTH",
"255 938 OFFCURVE",
"196 900 OFFCURVE",
"171 854 CURVE"
);
},
{
closed = 1;
nodes = (
"1 0 LINE",
"234 0 LINE",
"234 42 LINE",
"153 56 LINE",
"206 213 LINE",
"499 213 LINE",
"551 56 LINE",
"470 42 LINE",
"470 0 LINE",
"728 0 LINE",
"728 42 LINE",
"650 56 LINE",
"407 758 LINE",
"325 758 LINE",
"71 56 LINE",
"1 42 LINE"
);
},
{
closed = 1;
nodes = (
"225 271 LINE",
"354 656 LINE",
"400 509 LINE",
"479 271 LINE"
);
}
);
width = 729;
},
{
layerId = "B26750D4-52C5-4F85-819B-BFB2F142DAD5";
name = Bold;
paths = (
{
closed = 1;
nodes = (
"224 798 LINE",
"247 817 OFFCURVE",
"277 833 OFFCURVE",
"306 833 CURVE SMOOTH",
"350 833 OFFCURVE",
"388 783 OFFCURVE",
"453 783 CURVE SMOOTH",
"505 783 OFFCURVE",
"578 823 OFFCURVE",
"600 876 CURVE",
"556 923 LINE",
"535 904 OFFCURVE",
"510 889 OFFCURVE",
"475 889 CURVE SMOOTH",
"435 889 OFFCURVE",
"394 938 OFFCURVE",
"332 938 CURVE SMOOTH",
"283 938 OFFCURVE",
"200 888 OFFCURVE",
"182 836 CURVE"
);
},
{
closed = 1;
nodes = (
"2 0 LINE",
"276 0 LINE",
"276 68 LINE",
"203 91 LINE",
"225 164 LINE",
"489 164 LINE",
"510 89 LINE",
"445 67 LINE",
"445 0 LINE",
"779 0 LINE",
"779 67 LINE",
"705 87 LINE",
"471 758 LINE",
"308 758 LINE",
"67 88 LINE",
"2 68 LINE"
);
},
{
closed = 1;
nodes = (
"253 254 LINE",
"362 612 LINE",
"398 478 LINE",
"463 254 LINE"
);
}
);
width = 781;
}
);
unicode = 00C3;
},
{
glyphname = AE;
lastChange = "2014-11-13 16:12:19 +0000";
layers = (
{
layerId = "E777F328-EA17-4AE7-9EBA-8002E537BA4F";
name = Light;
paths = (
{
closed = 1;
nodes = (
"1 0 LINE",
"221 0 LINE",
"221 33 LINE",
"131 44 LINE",
"204 234 LINE",
"509 234 LINE",
"567 44 LINE",
"480 33 LINE",
"480 0 LINE",
"882 0 LINE",
"904 142 LINE",
"871 158 LINE",
"827 48 LINE",
"647 42 LINE",
"544 379 LINE",
"746 377 LINE",
"758 298 LINE",
"794 298 LINE",
"794 503 LINE",
"758 503 LINE",
"746 423 LINE",
"532 420 LINE",
"442 718 LINE",
"771 713 LINE",
"793 618 LINE",
"832 619 LINE",
"817 758 LINE",
"356 758 LINE",
"68 44 LINE",
"1 33 LINE"
);
},
{
closed = 1;
nodes = (
"220 278 LINE",
"376 686 LINE",
"395 600 LINE",
"495 278 LINE"
);
}
);
width = 947;
},
{
layerId = "39185045-6A8C-415A-8312-7B8F11386A4C";
name = Regular;
paths = (
{
closed = 1;
nodes = (
"1 0 LINE",
"234 0 LINE",
"234 42 LINE",
"152 56 LINE",
"214 223 LINE",
"510 223 LINE",
"561 56 LINE",
"481 42 LINE",
"481 0 LINE",
"895 0 LINE",
"917 142 LINE",
"874 163 LINE",
"825 62 LINE",
"668 54 LINE",
"574 370 LINE",
"747 368 LINE",
"761 298 LINE",
"806 298 LINE",
"806 503 LINE",
"761 503 LINE",
"747 427 LINE",
"558 424 LINE",
"474 707 LINE",
"772 701 LINE",
"794 618 LINE",
"843 619 LINE",
"829 758 LINE",
"355 758 LINE",
"70 56 LINE",
"1 42 LINE"
);
},
{
closed = 1;
nodes = (
"236 280 LINE",
"383 672 LINE",
"400 579 LINE",
"492 280 LINE"
);
}
);
width = 947;
},
{
layerId = "B26750D4-52C5-4F85-819B-BFB2F142DAD5";
name = Bold;
paths = (
{
closed = 1;
nodes = (
"2 0 LINE",
"271 0 LINE",
"271 69 LINE",
"185 89 LINE",
"213 164 LINE",
"512 164 LINE",
"535 88 LINE",
"458 68 LINE",
"458 0 LINE",
"916 0 LINE",
"941 162 LINE",
"856 179 LINE",
"802 87 LINE",
"720 73 LINE",
"634 351 LINE",
"728 344 LINE",
"747 273 LINE",
"825 273 LINE",
"825 515 LINE",
"748 515 LINE",
"729 442 LINE",
"606 439 LINE",
"533 675 LINE",
"743 664 LINE",
"774 591 LINE",
"869 591 LINE",
"851 758 LINE",
"332 758 LINE",
"62 85 LINE",
"2 69 LINE"
);
},
{
closed = 1;
nodes = (
"250 259 LINE",
"385 616 LINE",
"401 543 LINE",
"484 259 LINE"
);
}
);
width = 946;
}
);
unicode = 00C6;
},
{
glyphname = B;
lastChange = "2014-11-13 16:15:41 +0000";
layers = (
{
layerId = "E777F328-EA17-4AE7-9EBA-8002E537BA4F";
name = Light;
paths = (
{
closed = 1;
nodes = (
"52 0 LINE",
"172 0 LINE",
"210 -1 OFFCURVE",
"276 -7 OFFCURVE",
"332 -7 CURVE SMOOTH",
"546 -7 OFFCURVE",
"647 89 OFFCURVE",
"647 224 CURVE SMOOTH",
"647 337 OFFCURVE",
"556 404 OFFCURVE",
"449 404 CURVE",
"552 425 OFFCURVE",
"598 505 OFFCURVE",
"598 594 CURVE SMOOTH",
"598 699 OFFCURVE",
"515 765 OFFCURVE",
"360 765 CURVE SMOOTH",
"282 765 OFFCURVE",
"230 760 OFFCURVE",
"171 758 CURVE SMOOTH",
"54 758 LINE",
"54 721 LINE",
"139 714 LINE",
"139 45 LINE",
"52 33 LINE"
);
},
{
closed = 1;
nodes = (
"211 717 LINE",
"239 723 OFFCURVE",
"306 724 OFFCURVE",
"345 724 CURVE SMOOTH",
"444 724 OFFCURVE",
"529 684 OFFCURVE",
"529 581 CURVE SMOOTH",
"529 467 OFFCURVE",
"452 418 OFFCURVE",
"356 418 CURVE SMOOTH",
"324 418 OFFCURVE",
"246 416 OFFCURVE",
"210 421 CURVE"
);
},
{
closed = 1;
nodes = (
"211 371 LINE",
"248 374 OFFCURVE",
"326 373 OFFCURVE",
"372 373 CURVE SMOOTH",
"488 373 OFFCURVE",
"572 331 OFFCURVE",
"572 209 CURVE SMOOTH",
"572 73 OFFCURVE",
"459 35 OFFCURVE",
"349 35 CURVE SMOOTH",
"308 35 OFFCURVE",
"234 42 OFFCURVE",
"211 50 CURVE"
);
}
);
width = 693;
},
{
layerId = "39185045-6A8C-415A-8312-7B8F11386A4C";
name = Regular;
paths = (
{
closed = 1;
nodes = (
"52 0 LINE",
"176 0 LINE",
"210 -2 OFFCURVE",
"275 -7 OFFCURVE",
"331 -7 CURVE SMOOTH",
"545 -7 OFFCURVE",
"647 91 OFFCURVE",
"647 223 CURVE SMOOTH",
"647 333 OFFCURVE",
"562 406 OFFCURVE",
"455 408 CURVE",
"553 430 OFFCURVE",
"598 504 OFFCURVE",
"598 594 CURVE SMOOTH",
"598 699 OFFCURVE",
"514 764 OFFCURVE",
"357 765 CURVE SMOOTH",
"278 766 OFFCURVE",
"220 760 OFFCURVE",
"177 758 CURVE SMOOTH",
"54 758 LINE",
"54 710 LINE",
"134 702 LINE",
"134 56 LINE",
"52 42 LINE"
);
},
{
closed = 1;
nodes = (
"230 706 LINE",
"252 715 OFFCURVE",
"313 713 OFFCURVE",
"337 713 CURVE SMOOTH",
"435 713 OFFCURVE",
"508 667 OFFCURVE",
"508 576 CURVE SMOOTH",
"508 477 OFFCURVE",
"446 426 OFFCURVE",
"347 426 CURVE SMOOTH",
"314 426 OFFCURVE",
"262 423 OFFCURVE",
"229 429 CURVE"
);
},
{
closed = 1;
nodes = (
"229 364 LINE",
"265 368 OFFCURVE",
"316 366 OFFCURVE",
"362 366 CURVE SMOOTH",
"484 366 OFFCURVE",
"546 317 OFFCURVE",
"546 204 CURVE SMOOTH",
"546 88 OFFCURVE",
"460 47 OFFCURVE",
"353 47 CURVE SMOOTH",
"312 47 OFFCURVE",
"247 55 OFFCURVE",
"229 66 CURVE"
);
}
);
width = 693;
},
{
background = {
paths = (
{
closed = 1;
nodes = (
"323 333 LINE",
"343 339 OFFCURVE",
"357 340 OFFCURVE",
"374 340 CURVE SMOOTH",
"460 340 OFFCURVE",
"505 305 OFFCURVE",
"505 222 CURVE SMOOTH",
"505 130 OFFCURVE",
"480 77 OFFCURVE",
"385 77 CURVE SMOOTH",
"364 77 OFFCURVE",
"342 77 OFFCURVE",
"322 81 CURVE"
);
}
);
};
layerId = "B26750D4-52C5-4F85-819B-BFB2F142DAD5";
name = Bold;
paths = (
{
closed = 1;
nodes = (
"39 0 LINE",
"149 0 LINE SMOOTH",
"232 0 OFFCURVE",
"278 -5 OFFCURVE",
"342 -5 CURVE SMOOTH",
"550 -5 OFFCURVE",
"689 45 OFFCURVE",
"689 227 CURVE SMOOTH",
"689 322 OFFCURVE",
"610 409 OFFCURVE",
"509 409 CURVE",
"588 430 OFFCURVE",
"637 495 OFFCURVE",
"637 584 CURVE SMOOTH",
"637 718 OFFCURVE",
"522 765 OFFCURVE",
"364 765 CURVE SMOOTH",
"324 765 OFFCURVE",
"241 758 OFFCURVE",
"193 758 CURVE",
"41 758 LINE",
"41 678 LINE",
"115 667 LINE",
"115 89 LINE",
"39 68 LINE"
);
},
{
closed = 1;
nodes = (
"289 683 LINE",
"309 689 OFFCURVE",
"323 690 OFFCURVE",
"340 690 CURVE SMOOTH",
"426 690 OFFCURVE",
"471 655 OFFCURVE",
"471 572 CURVE SMOOTH",
"471 480 OFFCURVE",
"446 427 OFFCURVE",
"351 427 CURVE SMOOTH",
"330 427 OFFCURVE",
"308 427 OFFCURVE",
"288 431 CURVE"
);
},
{
closed = 1;
nodes = (
"287 348 LINE",
"318 354 OFFCURVE",
"351 354 OFFCURVE",
"380 354 CURVE SMOOTH",
"451 354 OFFCURVE",
"507 301 OFFCURVE",
"507 219 CURVE SMOOTH",
"507 137 OFFCURVE",
"470 67 OFFCURVE",
"387 67 CURVE SMOOTH",
"342 67 OFFCURVE",
"303 72 OFFCURVE",
"287 80 CURVE"
);
}
);
width = 711;
}
);
unicode = 0042;
},
{
glyphname = C;
lastChange = "2014-11-13 16:19:42 +0000";
layers = (
{
layerId = "E777F328-EA17-4AE7-9EBA-8002E537BA4F";
name = Light;
paths = (
{
closed = 1;
nodes = (
"227 765 OFFCURVE",
"42 605 OFFCURVE",
"42 357 CURVE SMOOTH",
"42 140 OFFCURVE",
"190 -14 OFFCURVE",
"392 -14 CURVE SMOOTH",
"531 -14 OFFCURVE",
"593 28 OFFCURVE",
"640 31 CURVE",
"640 164 LINE",
"606 164 LINE",
"585 81 LINE",
"556 50 OFFCURVE",
"494 27 OFFCURVE",
"414 27 CURVE SMOOTH",
"221 25 OFFCURVE",
"117 189 OFFCURVE",
"117 380 CURVE SMOOTH",
"117 599 OFFCURVE",
"262 722 OFFCURVE",
"415 722 CURVE SMOOTH",
"483 722 OFFCURVE",
"533 709 OFFCURVE",
"574 684 CURVE",
"592 596 LINE",
"632 596 LINE",
"639 730 LINE",
"596 740 OFFCURVE",
"530 765 OFFCURVE",
"436 765 CURVE SMOOTH"
);
}
);
width = 688;
},
{
layerId = "39185045-6A8C-415A-8312-7B8F11386A4C";
name = Regular;
paths = (
{
closed = 1;
nodes = (
"227 765 OFFCURVE",
"42 605 OFFCURVE",
"42 354 CURVE SMOOTH",
"42 137 OFFCURVE",
"189 -14 OFFCURVE",
"391 -14 CURVE SMOOTH",
"530 -14 OFFCURVE",
"593 28 OFFCURVE",
"640 31 CURVE",
"640 171 LINE",
"598 171 LINE",
"570 96 LINE",
"541 59 OFFCURVE",
"492 38 OFFCURVE",
"414 38 CURVE SMOOTH",
"235 38 OFFCURVE",
"142 199 OFFCURVE",
"142 384 CURVE SMOOTH",
"142 591 OFFCURVE",
"266 708 OFFCURVE",
"405 708 CURVE SMOOTH",
"473 708 OFFCURVE",
"512 698 OFFCURVE",
"554 670 CURVE",
"580 589 LINE",
"631 589 LINE",
"639 730 LINE",
"597 740 OFFCURVE",
"529 765 OFFCURVE",
"436 765 CURVE SMOOTH"
);
}
);
width = 688;
},
{
background = {
paths = (
{
closed = 1;
nodes = (
"512 765 OFFCURVE",
"553 759 OFFCURVE",
"587 753 CURVE SMOOTH",
"604 750 OFFCURVE",
"619 746 OFFCURVE",
"633 743 CURVE SMOOTH",
"646 739 OFFCURVE",
"659 736 OFFCURVE",
"670 734 CURVE",
"660 544 LINE",
"558 544 LINE",
"522 644 LINE",
"516 654 OFFCURVE",
"507 661 OFFCURVE",
"491 667 CURVE SMOOTH",
"476 672 OFFCURVE",
"452 675 OFFCURVE",
"417 675 CURVE SMOOTH",
"362 675 OFFCURVE",
"315 650 OFFCURVE",
"281 603 CURVE SMOOTH",
"247 556 OFFCURVE",
"226 487 OFFCURVE",
"226 398 CURVE SMOOTH",
"226 342 OFFCURVE",
"234 287 OFFCURVE",
"250 238 CURVE SMOOTH",
"265 189 OFFCURVE",
"287 147 OFFCURVE",
"317 118 CURVE SMOOTH",
"347 88 OFFCURVE",
"384 70 OFFCURVE",
"428 70 CURVE SMOOTH",
"469 70 OFFCURVE",
"496 74 OFFCURVE",
"514 82 CURVE SMOOTH",
"532 89 OFFCURVE",
"541 99 OFFCURVE",
"545 109 CURVE SMOOTH",
"585 207 LINE",
"670 207 LINE",
"670 33 LINE",
"658 32 OFFCURVE",
"645 29 OFFCURVE",
"631 24 CURVE SMOOTH",
"603 15 OFFCURVE",
"564 3 OFFCURVE",
"511 -6 CURVE SMOOTH",
"484 -11 OFFCURVE",
"453 -14 OFFCURVE",
"416 -14 CURVE SMOOTH",
"291 -14 OFFCURVE",
"195 27 OFFCURVE",
"131 93 CURVE SMOOTH",
"66 160 OFFCURVE",
"33 251 OFFCURVE",
"33 354 CURVE SMOOTH",
"33 438 OFFCURVE",
"57 512 OFFCURVE",
"96 573 CURVE SMOOTH",
"135 633 OFFCURVE",
"190 682 OFFCURVE",
"253 715 CURVE SMOOTH",
"317 748 OFFCURVE",
"389 765 OFFCURVE",
"463 765 CURVE SMOOTH"
);
}
);
};
layerId = "B26750D4-52C5-4F85-819B-BFB2F142DAD5";
name = Bold;
paths = (
{
closed = 1;
nodes = (
"221 765 OFFCURVE",
"33 587 OFFCURVE",
"33 354 CURVE SMOOTH",
"33 129 OFFCURVE",
"186 -14 OFFCURVE",
"416 -14 CURVE SMOOTH",
"549 -14 OFFCURVE",
"641 33 OFFCURVE",
"670 33 CURVE",
"670 207 LINE",
"585 207 LINE",
"545 109 LINE SMOOTH",
"531 76 OFFCURVE",
"478 70 OFFCURVE",
"428 70 CURVE SMOOTH",
"295 70 OFFCURVE",
"226 235 OFFCURVE",
"226 398 CURVE SMOOTH",
"226 549 OFFCURVE",
"291 675 OFFCURVE",
"417 675 CURVE SMOOTH",
"501 675 OFFCURVE",
"516 654 OFFCURVE",
"522 644 CURVE",
"558 544 LINE",
"660 544 LINE",
"670 734 LINE",
"648 738 OFFCURVE",
"564 765 OFFCURVE",
"463 765 CURVE SMOOTH"
);
}
);
width = 720;
}
);
unicode = 0043;
},
{
glyphname = Cacute;
lastChange = "2014-11-13 16:24:31 +0000";
layers = (
{
background = {
paths = (
{
closed = 1;
nodes = (
"207 761 OFFCURVE",
"51 624 OFFCURVE",
"45 369 CURVE SMOOTH",
"42 142 OFFCURVE",
"176 -18 OFFCURVE",
"379 -14 CURVE SMOOTH",
"562 -10 OFFCURVE",
"711 132 OFFCURVE",
"716 386 CURVE SMOOTH",
"720 609 OFFCURVE",
"592 769 OFFCURVE",
"393 765 CURVE SMOOTH"
);
},
{
closed = 1;
nodes = (
"547 724 OFFCURVE",
"638 573 OFFCURVE",
"638 386 CURVE SMOOTH",
"638 165 OFFCURVE",
"536 27 OFFCURVE",
"386 27 CURVE SMOOTH",
"224 27 OFFCURVE",
"125 176 OFFCURVE",
"125 369 CURVE SMOOTH",
"125 595 OFFCURVE",
"234 724 OFFCURVE",
"385 724 CURVE SMOOTH"
);
},
{
closed = 1;
nodes = (
"365 806 LINE",
"386 785 LINE",
"445 809 OFFCURVE",
"516 848 OFFCURVE",
"562 884 CURVE",
"510 938 LINE"
);
}
);
};
components = (
{
name = C;
},
{
name = acute.cap;
transform = "{1, 0, 0, 1, 138, 0}";
}
);
layerId = "E777F328-EA17-4AE7-9EBA-8002E537BA4F";
name = Light;
width = 688;
},
{
background = {
paths = (
{
closed = 1;
nodes = (
"204 760 OFFCURVE",
"49 616 OFFCURVE",
"44 367 CURVE SMOOTH",
"40 146 OFFCURVE",
"172 -18 OFFCURVE",
"378 -14 CURVE SMOOTH",
"564 -10 OFFCURVE",
"712 136 OFFCURVE",
"718 385 CURVE SMOOTH",
"722 606 OFFCURVE",
"596 771 OFFCURVE",
"393 765 CURVE SMOOTH"
);
},
{
closed = 1;
nodes = (
"533 713 OFFCURVE",
"612 554 OFFCURVE",
"612 384 CURVE SMOOTH",
"612 167 OFFCURVE",
"529 38 OFFCURVE",
"386 38 CURVE SMOOTH",
"236 38 OFFCURVE",
"149 198 OFFCURVE",
"149 368 CURVE SMOOTH",
"149 585 OFFCURVE",
"241 713 OFFCURVE",
"384 713 CURVE SMOOTH"
);
},
{
closed = 1;
nodes = (
"355 811 LINE",
"381 785 LINE",
"442 795 OFFCURVE",
"515 826 OFFCURVE",
"576 865 CURVE",
"505 938 LINE"
);
}
);
};
components = (
{
name = C;
},
{
name = acute.cap;
transform = "{1, 0, 0, 1, 128, 0}";
}
);
layerId = "39185045-6A8C-415A-8312-7B8F11386A4C";
name = Regular;
width = 688;
},
{
background = {
paths = (
{
closed = 1;
nodes = (
"193 765 OFFCURVE",
"41 591 OFFCURVE",
"34 368 CURVE SMOOTH",
"30 147 OFFCURVE",
"174 -14 OFFCURVE",
"391 -14 CURVE SMOOTH",
"607 -14 OFFCURVE",
"746 157 OFFCURVE",
"750 386 CURVE SMOOTH",
"754 603 OFFCURVE",
"615 765 OFFCURVE",
"401 765 CURVE SMOOTH"
);
},
{
closed = 1;
nodes = (
"491 685 OFFCURVE",
"559 563 OFFCURVE",
"559 385 CURVE SMOOTH",
"559 200 OFFCURVE",
"536 64 OFFCURVE",
"397 64 CURVE SMOOTH",
"284 64 OFFCURVE",
"226 226 OFFCURVE",
"226 369 CURVE SMOOTH",
"226 545 OFFCURVE",
"255 685 OFFCURVE",
"396 685 CURVE SMOOTH"
);
},
{
closed = 1;
nodes = (
"325 830 LINE",
"374 778 LINE",
"438 782 OFFCURVE",
"567 810 OFFCURVE",
"611 844 CURVE",
"517 938 LINE"
);
}
);
};
components = (
{
name = C;
},
{
name = acute.cap;
transform = "{1, 0, 0, 1, 222, 0}";
}
);
layerId = "B26750D4-52C5-4F85-819B-BFB2F142DAD5";
name = Bold;
width = 720;
}
);
unicode = 0106;
},
{
glyphname = Ccaron;
lastChange = "2014-11-13 16:27:43 +0000";
layers = (
{
background = {
paths = (
{
closed = 1;
nodes = (
"207 619 OFFCURVE",
"51 482 OFFCURVE",
"45 227 CURVE SMOOTH",
"42 0 OFFCURVE",
"176 -160 OFFCURVE",
"379 -156 CURVE SMOOTH",
"562 -152 OFFCURVE",
"711 -10 OFFCURVE",
"716 244 CURVE SMOOTH",
"720 467 OFFCURVE",
"592 627 OFFCURVE",
"393 623 CURVE SMOOTH"
);
},
{
closed = 1;
nodes = (
"547 582 OFFCURVE",
"638 431 OFFCURVE",
"638 244 CURVE SMOOTH",
"638 23 OFFCURVE",
"536 -115 OFFCURVE",
"386 -115 CURVE SMOOTH",
"224 -115 OFFCURVE",
"125 34 OFFCURVE",
"125 227 CURVE SMOOTH",
"125 453 OFFCURVE",
"234 582 OFFCURVE",
"385 582 CURVE SMOOTH"
);
},
{
closed = 1;
nodes = (
"353 796 LINE",
"222 666 LINE",
"252 648 LINE",
"388 745 LINE",
"521 648 LINE",
"556 667 LINE",
"424 796 LINE"
);
}
);
};
components = (
{
name = C;
},
{
name = caron.cap;
transform = "{1, 0, 0, 1, 156, 0}";
}
);
layerId = "E777F328-EA17-4AE7-9EBA-8002E537BA4F";
name = Light;
width = 688;
},
{
background = {
paths = (
{
closed = 1;
nodes = (
"204 610 OFFCURVE",
"49 466 OFFCURVE",
"44 217 CURVE SMOOTH",
"40 -4 OFFCURVE",
"172 -168 OFFCURVE",
"378 -164 CURVE SMOOTH",
"564 -160 OFFCURVE",
"712 -14 OFFCURVE",
"718 235 CURVE SMOOTH",
"722 456 OFFCURVE",
"596 621 OFFCURVE",
"393 615 CURVE SMOOTH"
);
},
{
closed = 1;
nodes = (
"533 563 OFFCURVE",
"612 404 OFFCURVE",
"612 234 CURVE SMOOTH",
"612 17 OFFCURVE",
"529 -112 OFFCURVE",
"386 -112 CURVE SMOOTH",
"236 -112 OFFCURVE",
"149 48 OFFCURVE",
"149 218 CURVE SMOOTH",
"149 435 OFFCURVE",
"241 563 OFFCURVE",
"384 563 CURVE SMOOTH"
);
},
{
closed = 1;
nodes = (
"339 788 LINE",
"216 662 LINE",
"254 639 LINE",
"386 721 LINE",
"515 639 LINE",
"557 663 LINE",
"432 788 LINE"
);
}
);
};
components = (
{
name = C;
},
{
name = caron.cap;
transform = "{1, 0, 0, 1, 123, 0}";
}
);
layerId = "39185045-6A8C-415A-8312-7B8F11386A4C";
name = Regular;
width = 688;
},
{
background = {
paths = (
{
closed = 1;
nodes = (
"193 765 OFFCURVE",
"41 591 OFFCURVE",
"34 368 CURVE SMOOTH",
"30 147 OFFCURVE",
"174 -14 OFFCURVE",
"391 -14 CURVE SMOOTH",
"607 -14 OFFCURVE",
"746 157 OFFCURVE",
"750 386 CURVE SMOOTH",
"754 603 OFFCURVE",
"615 765 OFFCURVE",
"401 765 CURVE SMOOTH"
);
},
{
closed = 1;
nodes = (
"491 685 OFFCURVE",
"559 563 OFFCURVE",
"559 385 CURVE SMOOTH",
"559 200 OFFCURVE",
"536 64 OFFCURVE",
"397 64 CURVE SMOOTH",
"284 64 OFFCURVE",
"226 226 OFFCURVE",
"226 369 CURVE SMOOTH",
"226 545 OFFCURVE",
"255 685 OFFCURVE",
"396 685 CURVE SMOOTH"
);
},
{
closed = 1;
nodes = (
"343 780 LINE",
"209 657 LINE",
"263 622 LINE",
"401 685 LINE",
"534 622 LINE",
"588 657 LINE",
"457 780 LINE"
);
}
);
};
components = (
{
name = C;
},
{
name = caron.cap;
transform = "{1, 0, 0, 1, 143, 0}";
}
);
layerId = "B26750D4-52C5-4F85-819B-BFB2F142DAD5";
name = Bold;
width = 720;
}
);
unicode = 010C;
},
{
glyphname = Ccedilla;
lastChange = "2014-11-13 16:37:23 +0000";
layers = (
{
layerId = "E777F328-EA17-4AE7-9EBA-8002E537BA4F";
name = Light;
paths = (
{
closed = 1;
nodes = (
"227 765 OFFCURVE",
"42 605 OFFCURVE",
"42 357 CURVE SMOOTH",
"42 149 OFFCURVE",
"178 0 OFFCURVE",
"366 -13 CURVE",
"358 -42 OFFCURVE",
"355 -69 OFFCURVE",
"355 -97 CURVE",
"360 -96 OFFCURVE",
"376 -94 OFFCURVE",
"385 -94 CURVE SMOOTH",
"437 -94 OFFCURVE",
"473 -111 OFFCURVE",
"473 -154 CURVE SMOOTH",
"473 -210 OFFCURVE",
"425 -217 OFFCURVE",
"389 -217 CURVE SMOOTH",
"375 -217 OFFCURVE",
"343 -213 OFFCURVE",
"325 -208 CURVE",
"324 -247 LINE",
"349 -253 OFFCURVE",
"370 -260 OFFCURVE",
"420 -257 CURVE SMOOTH",
"487 -255 OFFCURVE",
"544 -219 OFFCURVE",
"544 -154 CURVE SMOOTH",
"544 -104 OFFCURVE",
"501 -58 OFFCURVE",
"410 -62 CURVE",
"409 -47 OFFCURVE",
"409 -28 OFFCURVE",
"411 -13 CURVE",
"538 -9 OFFCURVE",
"595 28 OFFCURVE",
"640 31 CURVE",
"640 164 LINE",
"606 164 LINE",
"585 81 LINE",
"556 50 OFFCURVE",
"494 27 OFFCURVE",
"414 27 CURVE SMOOTH",
"221 25 OFFCURVE",
"117 189 OFFCURVE",
"117 380 CURVE SMOOTH",
"117 599 OFFCURVE",
"262 722 OFFCURVE",
"415 722 CURVE SMOOTH",
"483 722 OFFCURVE",
"533 709 OFFCURVE",
"574 684 CURVE",
"592 596 LINE",
"632 596 LINE",
"639 730 LINE",
"596 740 OFFCURVE",
"530 765 OFFCURVE",
"436 765 CURVE SMOOTH"
);
}
);
width = 688;
},
{
layerId = "39185045-6A8C-415A-8312-7B8F11386A4C";
name = Regular;
paths = (
{
closed = 1;
nodes = (
"227 765 OFFCURVE",
"42 605 OFFCURVE",
"42 354 CURVE SMOOTH",
"42 149 OFFCURVE",
"172 4 OFFCURVE",
"356 -12 CURVE",
"347 -46 OFFCURVE",
"343 -75 OFFCURVE",
"342 -104 CURVE",
"344 -104 OFFCURVE",
"359 -102 OFFCURVE",
"366 -102 CURVE SMOOTH",
"419 -102 OFFCURVE",
"443 -122 OFFCURVE",
"443 -151 CURVE SMOOTH",
"443 -200 OFFCURVE",
"411 -205 OFFCURVE",
"375 -205 CURVE SMOOTH",
"363 -205 OFFCURVE",
"334 -202 OFFCURVE",
"319 -198 CURVE",
"319 -247 LINE",
"339 -252 OFFCURVE",
"358 -260 OFFCURVE",
"415 -257 CURVE SMOOTH",
"486 -253 OFFCURVE",
"539 -218 OFFCURVE",
"539 -153 CURVE SMOOTH",
"539 -111 OFFCURVE",
"504 -61 OFFCURVE",
"414 -61 CURVE",
"413 -46 OFFCURVE",
"413 -28 OFFCURVE",
"414 -13 CURVE",
"538 -9 OFFCURVE",
"596 28 OFFCURVE",
"640 31 CURVE",
"640 171 LINE",
"598 171 LINE",
"570 96 LINE",
"541 59 OFFCURVE",
"492 38 OFFCURVE",
"414 38 CURVE SMOOTH",
"235 38 OFFCURVE",
"142 199 OFFCURVE",
"142 384 CURVE SMOOTH",
"142 591 OFFCURVE",
"266 708 OFFCURVE",
"405 708 CURVE SMOOTH",
"473 708 OFFCURVE",
"512 698 OFFCURVE",
"554 670 CURVE",
"580 589 LINE",
"631 589 LINE",
"639 730 LINE",
"597 740 OFFCURVE",
"529 765 OFFCURVE",
"436 765 CURVE SMOOTH"
);
}
);
width = 688;
},
{
background = {
paths = (
{
closed = 1;
nodes = (
"220 765 OFFCURVE",
"32 587 OFFCURVE",
"32 354 CURVE SMOOTH",
"32 129 OFFCURVE",
"185 -14 OFFCURVE",
"415 -14 CURVE SMOOTH",
"548 -14 OFFCURVE",
"640 33 OFFCURVE",
"669 33 CURVE",
"669 207 LINE",
"584 207 LINE",
"544 109 LINE SMOOTH",
"530 76 OFFCURVE",
"477 70 OFFCURVE",
"427 70 CURVE SMOOTH",
"294 70 OFFCURVE",
"225 235 OFFCURVE",
"225 398 CURVE SMOOTH",
"225 549 OFFCURVE",
"290 675 OFFCURVE",
"416 675 CURVE SMOOTH",
"500 675 OFFCURVE",
"515 654 OFFCURVE",
"521 644 CURVE",
"557 544 LINE",
"659 544 LINE",
"669 734 LINE",
"647 738 OFFCURVE",
"563 765 OFFCURVE",
"462 765 CURVE SMOOTH"
);
},
{
closed = 1;
nodes = (
"386 5 LINE",
"374 -11 OFFCURVE",
"357 -98 OFFCURVE",
"357 -125 CURVE",
"364 -125 OFFCURVE",
"375 -124 OFFCURVE",
"386 -124 CURVE SMOOTH",
"402 -124 OFFCURVE",
"416 -132 OFFCURVE",
"416 -151 CURVE SMOOTH",
"416 -168 OFFCURVE",
"403 -179 OFFCURVE",
"382 -179 CURVE SMOOTH",
"370 -179 OFFCURVE",
"328 -174 OFFCURVE",
"321 -172 CURVE",
"321 -245 LINE",
"360 -253 OFFCURVE",
"391 -260 OFFCURVE",
"426 -260 CURVE SMOOTH",
"510 -260 OFFCURVE",
"577 -233 OFFCURVE",
"577 -158 CURVE SMOOTH",
"577 -109 OFFCURVE",
"534 -69 OFFCURVE",
"473 -64 CURVE",
"471 -53 OFFCURVE",
"469 -13 OFFCURVE",
"472 5 CURVE"
);
}
);
};
layerId = "B26750D4-52C5-4F85-819B-BFB2F142DAD5";
name = Bold;
paths = (
{
closed = 1;
nodes = (
"226 765 OFFCURVE",
"32 595 OFFCURVE",
"32 354 CURVE SMOOTH",
"32 147 OFFCURVE",
"164 1 OFFCURVE",
"377 -12 CURVE",
"369 -37 OFFCURVE",
"357 -96 OFFCURVE",
"357 -125 CURVE",
"364 -125 OFFCURVE",
"375 -124 OFFCURVE",
"386 -124 CURVE",
"402 -124 OFFCURVE",
"416 -132 OFFCURVE",
"416 -151 CURVE SMOOTH",
"416 -168 OFFCURVE",
"403 -179 OFFCURVE",
"382 -179 CURVE SMOOTH",
"370 -179 OFFCURVE",
"328 -174 OFFCURVE",
"321 -172 CURVE",
"321 -245 LINE",
"360 -253 OFFCURVE",
"391 -260 OFFCURVE",
"426 -260 CURVE SMOOTH",
"509 -260 OFFCURVE",
"577 -233 OFFCURVE",
"577 -158 CURVE SMOOTH",
"577 -109 OFFCURVE",
"534 -69 OFFCURVE",
"473 -64 CURVE",
"472 -49 OFFCURVE",
"470 -28 OFFCURVE",
"470 -11 CURVE",
"545 -8 OFFCURVE",
"646 33 OFFCURVE",
"669 33 CURVE",
"669 207 LINE",
"584 207 LINE",
"544 109 LINE SMOOTH",
"533 83 OFFCURVE",
"497 70 OFFCURVE",
"426 70 CURVE SMOOTH",
"295 70 OFFCURVE",
"225 232 OFFCURVE",
"225 398 CURVE SMOOTH",
"225 545 OFFCURVE",
"288 675 OFFCURVE",
"415 675 CURVE SMOOTH",
"500 675 OFFCURVE",
"515 654 OFFCURVE",
"521 644 CURVE",
"556 544 LINE",
"659 544 LINE",
"669 734 LINE",
"647 738 OFFCURVE",
"563 765 OFFCURVE",
"461 765 CURVE SMOOTH"
);
}
);
width = 715;
}
);
unicode = 00C7;
},
{
glyphname = D;
lastChange = "2014-11-13 16:38:28 +0000";
layers = (
{
layerId = "E777F328-EA17-4AE7-9EBA-8002E537BA4F";
name = Light;
paths = (
{
closed = 1;
nodes = (
"52 0 LINE",
"82 0 OFFCURVE",
"146 0 OFFCURVE",
"176 0 CURVE SMOOTH",
"229 0 OFFCURVE",
"291 -5 OFFCURVE",
"338 -5 CURVE SMOOTH",
"569 -9 OFFCURVE",
"732 144 OFFCURVE",
"732 399 CURVE SMOOTH",
"732 629 OFFCURVE",
"610 766 OFFCURVE",
"363 765 CURVE SMOOTH",
"302 765 OFFCURVE",
"251 758 OFFCURVE",
"175 758 CURVE SMOOTH",
"54 758 LINE",
"54 721 LINE",
"140 713 LINE",
"140 45 LINE",
"52 33 LINE"
);
},
{
closed = 1;
nodes = (
"212 713 LINE",
"244 718 OFFCURVE",
"288 721 OFFCURVE",
"341 722 CURVE SMOOTH",
"541 728 OFFCURVE",
"657 611 OFFCURVE",
"657 379 CURVE SMOOTH",
"657 144 OFFCURVE",
"514 40 OFFCURVE",
"348 37 CURVE SMOOTH",
"298 36 OFFCURVE",
"257 41 OFFCURVE",
"212 49 CURVE"
);
}
);
width = 778;
},
{
layerId = "39185045-6A8C-415A-8312-7B8F11386A4C";
name = Regular;
paths = (
{
closed = 1;
nodes = (
"52 0 LINE",
"96 0 OFFCURVE",
"139 0 OFFCURVE",
"184 0 CURVE SMOOTH",
"249 0 OFFCURVE",
"300 -3 OFFCURVE",
"348 -5 CURVE SMOOTH",
"565 -10 OFFCURVE",
"734 143 OFFCURVE",
"734 399 CURVE SMOOTH",
"734 626 OFFCURVE",
"618 767 OFFCURVE",
"366 765 CURVE SMOOTH",
"304 765 OFFCURVE",
"269 758 OFFCURVE",
"182 758 CURVE SMOOTH",
"54 758 LINE",
"54 710 LINE",
"134 702 LINE",
"134 56 LINE",
"52 42 LINE"
);
},
{
closed = 1;
nodes = (
"229 701 LINE",
"259 706 OFFCURVE",
"283 709 OFFCURVE",
"336 710 CURVE SMOOTH",
"519 716 OFFCURVE",
"634 604 OFFCURVE",
"634 375 CURVE SMOOTH",
"634 154 OFFCURVE",
"508 53 OFFCURVE",
"365 49 CURVE SMOOTH",
"314 48 OFFCURVE",
"271 53 OFFCURVE",
"229 64 CURVE"
);
}
);
width = 778;
},
{
background = {
paths = (
{
closed = 1;
nodes = (
"480 -5 OFFCURVE",
"579 33 OFFCURVE",
"648 103 CURVE SMOOTH",
"717 172 OFFCURVE",
"757 273 OFFCURVE",
"757 401 CURVE SMOOTH",
"757 508 OFFCURVE",
"729 599 OFFCURVE",
"668 664 CURVE SMOOTH",
"606 728 OFFCURVE",
"511 765 OFFCURVE",
"377 765 CURVE SMOOTH",
"346 765 OFFCURVE",
"313 764 OFFCURVE",
"284 762 CURVE SMOOTH",
"254 760 OFFCURVE",
"228 758 OFFCURVE",
"206 758 CURVE SMOOTH",
"46 758 LINE",
"46 678 LINE",
"115 668 LINE",
"115 88 LINE",
"44 68 LINE",
"44 0 LINE",
"72 0 OFFCURVE",
"99 0 OFFCURVE",
"126 0 CURVE SMOOTH",
"154 0 OFFCURVE",
"181 0 OFFCURVE",
"209 0 CURVE SMOOTH",
"228 0 OFFCURVE",
"254 0 OFFCURVE",
"282 -2 CURVE SMOOTH",
"310 -4 OFFCURVE",
"339 -5 OFFCURVE",
"364 -5 CURVE SMOOTH"
);
},
{
closed = 1;
nodes = (
"353 67 OFFCURVE",
"313 72 OFFCURVE",
"290 87 CURVE",
"290 673 LINE",
"297 677 OFFCURVE",
"309 681 OFFCURVE",
"322 684 CURVE SMOOTH",
"336 686 OFFCURVE",
"352 687 OFFCURVE",
"366 687 CURVE SMOOTH",
"505 685 OFFCURVE",
"574 580 OFFCURVE",
"574 365 CURVE SMOOTH",
"574 282 OFFCURVE",
"557 211 OFFCURVE",
"526 160 CURVE SMOOTH",
"496 108 OFFCURVE",
"454 77 OFFCURVE",
"405 73 CURVE SMOOTH"
);
}
);
};
layerId = "B26750D4-52C5-4F85-819B-BFB2F142DAD5";
name = Bold;
paths = (
{
closed = 1;
nodes = (
"44 0 LINE",
"69 0 OFFCURVE",
"181 0 OFFCURVE",
"209 0 CURVE SMOOTH",
"263 0 OFFCURVE",
"312 -5 OFFCURVE",
"364 -5 CURVE SMOOTH",
"603 -5 OFFCURVE",
"757 153 OFFCURVE",
"757 401 CURVE SMOOTH",
"757 639 OFFCURVE",
"624 765 OFFCURVE",
"377 765 CURVE SMOOTH",
"316 765 OFFCURVE",
"254 758 OFFCURVE",
"206 758 CURVE SMOOTH",
"46 758 LINE",
"46 678 LINE",
"115 668 LINE",
"115 88 LINE",
"44 68 LINE"
);
},
{
closed = 1;
nodes = (
"290 673 LINE",
"310 684 OFFCURVE",
"338 687 OFFCURVE",
"366 687 CURVE SMOOTH",
"505 687 OFFCURVE",
"574 580 OFFCURVE",
"574 365 CURVE SMOOTH",
"574 227 OFFCURVE",
"518 82 OFFCURVE",
"405 73 CURVE SMOOTH",
"353 67 OFFCURVE",
"313 72 OFFCURVE",
"290 87 CURVE"
);
}
);
width = 789;
}
);
unicode = 0044;
},
{
glyphname = Eth;
lastChange = "2014-11-13 16:39:18 +0000";
layers = (
{
layerId = "E777F328-EA17-4AE7-9EBA-8002E537BA4F";
name = Light;
paths = (
{
closed = 1;
nodes = (
"52 0 LINE",
"82 0 OFFCURVE",
"146 0 OFFCURVE",
"176 0 CURVE SMOOTH",
"229 0 OFFCURVE",
"291 -5 OFFCURVE",
"338 -5 CURVE SMOOTH",
"569 -9 OFFCURVE",
"732 144 OFFCURVE",
"732 399 CURVE SMOOTH",
"732 629 OFFCURVE",
"610 766 OFFCURVE",
"363 765 CURVE SMOOTH",
"302 765 OFFCURVE",
"251 758 OFFCURVE",
"175 758 CURVE SMOOTH",
"54 758 LINE",
"54 721 LINE",
"140 713 LINE",
"140 425 LINE",
"47 425 LINE",
"47 371 LINE",
"140 371 LINE",
"140 45 LINE",
"52 33 LINE"
);
},
{
closed = 1;
nodes = (
"212 371 LINE",
"345 371 LINE",
"345 425 LINE",
"212 425 LINE",
"212 713 LINE",
"244 718 OFFCURVE",
"288 721 OFFCURVE",
"341 722 CURVE SMOOTH",
"541 728 OFFCURVE",
"657 611 OFFCURVE",
"657 379 CURVE SMOOTH",
"657 144 OFFCURVE",
"514 40 OFFCURVE",
"348 37 CURVE SMOOTH",
"298 36 OFFCURVE",
"257 41 OFFCURVE",
"212 49 CURVE"
);
}
);
width = 778;
},
{
layerId = "39185045-6A8C-415A-8312-7B8F11386A4C";
name = Regular;
paths = (
{
closed = 1;
nodes = (
"52 0 LINE",
"96 0 OFFCURVE",
"139 0 OFFCURVE",
"184 0 CURVE SMOOTH",
"249 0 OFFCURVE",
"300 -3 OFFCURVE",
"348 -5 CURVE SMOOTH",
"565 -10 OFFCURVE",
"734 143 OFFCURVE",
"734 399 CURVE SMOOTH",
"734 626 OFFCURVE",
"618 767 OFFCURVE",
"366 765 CURVE SMOOTH",
"304 765 OFFCURVE",
"269 758 OFFCURVE",
"182 758 CURVE SMOOTH",
"54 758 LINE",
"54 710 LINE",
"134 702 LINE",
"134 425 LINE",
"48 425 LINE",
"48 354 LINE",
"134 354 LINE",
"134 56 LINE",
"52 42 LINE"
);
},
{
closed = 1;
nodes = (
"229 354 LINE",
"355 354 LINE",
"355 425 LINE",
"229 425 LINE",
"229 701 LINE",
"259 706 OFFCURVE",
"283 709 OFFCURVE",
"336 710 CURVE SMOOTH",
"519 716 OFFCURVE",
"634 604 OFFCURVE",
"634 375 CURVE SMOOTH",
"634 154 OFFCURVE",
"508 53 OFFCURVE",
"365 49 CURVE SMOOTH",
"314 48 OFFCURVE",
"271 53 OFFCURVE",
"229 64 CURVE"
);
}
);
width = 778;
},
{
background = {
paths = (
{
closed = 1;
nodes = (
"44 0 LINE",
"69 0 OFFCURVE",
"181 0 OFFCURVE",
"209 0 CURVE SMOOTH",
"263 0 OFFCURVE",
"312 -5 OFFCURVE",
"364 -5 CURVE SMOOTH",
"603 -5 OFFCURVE",
"757 153 OFFCURVE",
"757 401 CURVE SMOOTH",
"757 639 OFFCURVE",
"624 765 OFFCURVE",
"377 765 CURVE SMOOTH",
"316 765 OFFCURVE",
"254 758 OFFCURVE",
"206 758 CURVE SMOOTH",
"46 758 LINE",
"46 678 LINE",
"115 668 LINE",
"115 88 LINE",
"44 68 LINE"
);
},
{
closed = 1;
nodes = (
"290 673 LINE",
"310 684 OFFCURVE",
"338 687 OFFCURVE",
"366 687 CURVE SMOOTH",
"505 687 OFFCURVE",
"574 580 OFFCURVE",
"574 365 CURVE SMOOTH",
"574 227 OFFCURVE",
"518 82 OFFCURVE",
"405 73 CURVE SMOOTH",
"353 67 OFFCURVE",
"313 72 OFFCURVE",
"290 87 CURVE"
);
}
);
};
layerId = "B26750D4-52C5-4F85-819B-BFB2F142DAD5";
name = Bold;
paths = (
{
closed = 1;
nodes = (
"44 0 LINE",
"69 0 OFFCURVE",
"181 0 OFFCURVE",
"209 0 CURVE SMOOTH",
"263 0 OFFCURVE",
"312 -5 OFFCURVE",
"364 -5 CURVE SMOOTH",
"603 -5 OFFCURVE",
"757 153 OFFCURVE",
"757 401 CURVE SMOOTH",
"757 639 OFFCURVE",
"624 765 OFFCURVE",
"377 765 CURVE SMOOTH",
"316 765 OFFCURVE",
"254 758 OFFCURVE",
"206 758 CURVE SMOOTH",
"46 758 LINE",
"46 678 LINE",
"115 668 LINE",
"115 445 LINE",
"24 445 LINE",
"24 344 LINE",
"115 344 LINE",
"115 88 LINE",
"44 68 LINE"
);
},
{
closed = 1;
nodes = (
"290 344 LINE",
"423 344 LINE",
"423 445 LINE",
"290 445 LINE",
"290 673 LINE",
"310 684 OFFCURVE",
"340 687 OFFCURVE",
"366 687 CURVE SMOOTH",
"505 685 OFFCURVE",
"574 580 OFFCURVE",
"574 365 CURVE SMOOTH",
"574 227 OFFCURVE",
"518 82 OFFCURVE",
"405 73 CURVE SMOOTH",
"353 67 OFFCURVE",
"313 72 OFFCURVE",
"290 87 CURVE"
);
}
);
width = 787;
}
);
unicode = 00D0;
},
{
glyphname = E;
lastChange = "2014-11-13 16:40:45 +0000";
layers = (
{
layerId = "E777F328-EA17-4AE7-9EBA-8002E537BA4F";
name = Light;
paths = (
{
closed = 1;
nodes = (
"50 0 LINE",
"589 0 LINE",
"611 154 LINE",
"575 163 LINE",
"531 49 LINE",
"209 41 LINE",
"209 382 LINE",
"409 379 LINE",
"421 297 LINE",
"460 297 LINE",
"460 504 LINE",
"421 504 LINE",
"409 426 LINE",
"209 422 LINE",
"209 719 LINE",
"508 713 LINE",
"531 619 LINE",
"572 619 LINE",
"558 758 LINE",
"52 758 LINE",
"52 721 LINE",
"138 713 LINE",
"138 44 LINE",
"50 33 LINE"
);
}
);
width = 644;
},
{
layerId = "39185045-6A8C-415A-8312-7B8F11386A4C";
name = Regular;
paths = (
{
closed = 1;
nodes = (
"50 0 LINE",
"591 0 LINE",
"613 151 LINE",
"566 163 LINE",
"517 62 LINE",
"227 53 LINE",
"227 370 LINE",
"409 367 LINE",
"423 292 LINE",
"473 292 LINE",
"473 502 LINE",
"423 502 LINE",
"409 426 LINE",
"227 422 LINE",
"227 707 LINE",
"497 701 LINE",
"519 619 LINE",
"573 619 LINE",
"559 758 LINE",
"52 758 LINE",
"52 710 LINE",
"132 702 LINE",
"132 56 LINE",
"50 42 LINE"
);
}
);
width = 644;
},
{
layerId = "B26750D4-52C5-4F85-819B-BFB2F142DAD5";
name = Bold;
paths = (
{
closed = 1;
nodes = (
"49 0 LINE",
"646 0 LINE",
"672 170 LINE",
"571 188 LINE",
"509 92 LINE",
"294 78 LINE",
"294 346 LINE",
"419 343 LINE",
"446 266 LINE",
"534 266 LINE",
"534 504 LINE",
"446 504 LINE",
"419 431 LINE",
"294 426 LINE",
"294 680 LINE",
"475 669 LINE",
"521 591 LINE",
"621 591 LINE",
"606 758 LINE",
"52 758 LINE",
"52 678 LINE",
"121 667 LINE",
"121 87 LINE",
"49 68 LINE"
);
}
);
width = 696;
}
);
unicode = 0045;
},
{
glyphname = Eacute;
lastChange = "2014-11-13 16:41:18 +0000";
layers = (
{
layerId = "E777F328-EA17-4AE7-9EBA-8002E537BA4F";
name = Light;
paths = (
{
closed = 1;
nodes = (
"350 785 LINE",
"409 809 OFFCURVE",
"479 848 OFFCURVE",
"525 884 CURVE",
"473 938 LINE",
"329 806 LINE"
);
},
{
closed = 1;
nodes = (
"50 0 LINE",
"589 0 LINE",
"611 154 LINE",
"575 163 LINE",
"531 49 LINE",
"209 41 LINE",
"209 382 LINE",
"409 379 LINE",
"421 297 LINE",
"460 297 LINE",
"460 504 LINE",
"421 504 LINE",
"409 426 LINE",
"209 422 LINE",
"209 719 LINE",
"508 713 LINE",
"531 619 LINE",
"572 619 LINE",
"558 758 LINE",
"52 758 LINE",
"52 721 LINE",
"138 713 LINE",
"138 44 LINE",
"50 33 LINE"
);
}
);
width = 644;
},
{
layerId = "39185045-6A8C-415A-8312-7B8F11386A4C";
name = Regular;
paths = (
{
closed = 1;
nodes = (
"351 785 LINE",
"411 795 OFFCURVE",
"484 826 OFFCURVE",
"545 865 CURVE",
"474 938 LINE",
"325 811 LINE"
);
},
{
closed = 1;
nodes = (
"50 0 LINE",
"591 0 LINE",
"613 151 LINE",
"566 163 LINE",
"517 62 LINE",
"227 53 LINE",
"227 370 LINE",
"409 367 LINE",
"423 292 LINE",
"473 292 LINE",
"473 502 LINE",
"423 502 LINE",
"409 426 LINE",
"227 422 LINE",
"227 707 LINE",
"497 701 LINE",
"519 619 LINE",
"573 619 LINE",
"559 758 LINE",
"52 758 LINE",
"52 710 LINE",
"132 702 LINE",
"132 56 LINE",
"50 42 LINE"
);
}
);
width = 644;
},
{
layerId = "B26750D4-52C5-4F85-819B-BFB2F142DAD5";
name = Bold;
paths = (
{
closed = 1;
nodes = (
"337 778 LINE",
"401 782 OFFCURVE",
"530 810 OFFCURVE",
"574 844 CURVE",
"480 938 LINE",
"288 830 LINE"
);
},
{
closed = 1;
nodes = (
"49 0 LINE",
"646 0 LINE",
"672 170 LINE",
"571 188 LINE",
"509 92 LINE",
"294 78 LINE",
"294 346 LINE",
"419 343 LINE",
"446 266 LINE",
"534 266 LINE",
"534 504 LINE",
"446 504 LINE",
"419 431 LINE",
"294 426 LINE",
"294 680 LINE",
"475 669 LINE",
"521 591 LINE",
"621 591 LINE",
"606 758 LINE",
"52 758 LINE",
"52 678 LINE",
"121 667 LINE",
"121 87 LINE",
"49 68 LINE"
);
}
);
width = 696;
}
);
unicode = 00C9;
},
{
glyphname = Ecircumflex;
lastChange = "2014-11-13 16:42:36 +0000";
layers = (
{
layerId = "E777F328-EA17-4AE7-9EBA-8002E537BA4F";
name = Light;
paths = (
{
closed = 1;
nodes = (
"216 790 LINE",
"352 887 LINE",
"485 790 LINE",
"520 809 LINE",
"388 938 LINE",
"316 938 LINE",
"185 808 LINE"
);
},
{
closed = 1;
nodes = (
"50 0 LINE",
"589 0 LINE",
"611 154 LINE",
"575 163 LINE",
"531 49 LINE",
"209 41 LINE",
"209 382 LINE",
"409 379 LINE",
"421 297 LINE",
"460 297 LINE",
"460 504 LINE",
"421 504 LINE",
"409 426 LINE",
"209 422 LINE",
"209 719 LINE",
"508 713 LINE",
"531 619 LINE",
"572 619 LINE",
"558 758 LINE",
"52 758 LINE",
"52 721 LINE",
"138 713 LINE",
"138 44 LINE",
"50 33 LINE"
);
}
);
width = 644;
},
{
layerId = "39185045-6A8C-415A-8312-7B8F11386A4C";
name = Regular;
paths = (
{
closed = 1;
nodes = (
"223 789 LINE",
"355 871 LINE",
"484 789 LINE",
"526 813 LINE",
"401 938 LINE",
"309 938 LINE",
"185 812 LINE"
);
},
{
closed = 1;
nodes = (
"50 0 LINE",
"591 0 LINE",
"613 151 LINE",
"566 163 LINE",
"517 62 LINE",
"227 53 LINE",
"227 370 LINE",
"409 367 LINE",
"423 292 LINE",
"473 292 LINE",
"473 502 LINE",
"423 502 LINE",
"409 426 LINE",
"227 422 LINE",
"227 707 LINE",
"497 701 LINE",
"519 619 LINE",
"573 619 LINE",
"559 758 LINE",
"52 758 LINE",
"52 710 LINE",
"132 702 LINE",
"132 56 LINE",
"50 42 LINE"
);
}
);
width = 644;
},
{
layerId = "B26750D4-52C5-4F85-819B-BFB2F142DAD5";
name = Bold;
paths = (
{
closed = 1;
nodes = (
"226 780 LINE",
"364 843 LINE",
"497 780 LINE",
"551 815 LINE",
"419 938 LINE",
"306 938 LINE",
"172 815 LINE"
);
},
{
closed = 1;
nodes = (
"49 0 LINE",
"646 0 LINE",
"672 170 LINE",
"571 188 LINE",
"509 92 LINE",
"294 78 LINE",
"294 346 LINE",
"419 343 LINE",
"446 266 LINE",
"534 266 LINE",
"534 504 LINE",
"446 504 LINE",
"419 431 LINE",
"294 426 LINE",
"294 680 LINE",
"475 669 LINE",
"521 591 LINE",
"621 591 LINE",
"606 758 LINE",
"52 758 LINE",
"52 678 LINE",
"121 667 LINE",
"121 87 LINE",
"49 68 LINE"
);
}
);
width = 696;
}
);
unicode = 00CA;
},
{
glyphname = Edieresis;
lastChange = "2014-11-13 16:43:51 +0000";
layers = (
{
layerId = "E777F328-EA17-4AE7-9EBA-8002E537BA4F";
name = Light;
paths = (
{
closed = 1;
nodes = (
"52 758 LINE",
"52 721 LINE",
"138 713 LINE",
"138 44 LINE",
"50 33 LINE",
"50 0 LINE",
"589 0 LINE",
"611 154 LINE",
"575 163 LINE",
"531 49 LINE",
"209 41 LINE",
"209 382 LINE",
"409 379 LINE",
"421 297 LINE",
"460 297 LINE",
"460 504 LINE",
"421 504 LINE",
"409 426 LINE",
"209 422 LINE",
"209 719 LINE",
"508 713 LINE",
"531 619 LINE",
"572 619 LINE",
"558 758 LINE"
);
},
{
closed = 1;
nodes = (
"216 926 OFFCURVE",
"187 903 OFFCURVE",
"187 872 CURVE SMOOTH",
"187 843 OFFCURVE",
"210 825 OFFCURVE",
"235 825 CURVE SMOOTH",
"264 825 OFFCURVE",
"292 847 OFFCURVE",
"292 880 CURVE SMOOTH",
"292 905 OFFCURVE",
"277 926 OFFCURVE",
"244 926 CURVE SMOOTH"
);
},
{
closed = 1;
nodes = (
"439 926 OFFCURVE",
"410 902 OFFCURVE",
"410 871 CURVE SMOOTH",
"410 842 OFFCURVE",
"433 825 OFFCURVE",
"458 825 CURVE SMOOTH",
"487 825 OFFCURVE",
"516 847 OFFCURVE",
"516 879 CURVE SMOOTH",
"516 905 OFFCURVE",
"500 926 OFFCURVE",
"467 926 CURVE SMOOTH"
);
}
);
width = 644;
},
{
layerId = "39185045-6A8C-415A-8312-7B8F11386A4C";
name = Regular;
paths = (
{
closed = 1;
nodes = (
"52 758 LINE",
"52 710 LINE",
"132 702 LINE",
"132 56 LINE",
"50 42 LINE",
"50 0 LINE",
"591 0 LINE",
"613 151 LINE",
"566 163 LINE",
"517 62 LINE",
"227 53 LINE",
"227 370 LINE",
"409 367 LINE",
"423 292 LINE",
"473 292 LINE",
"473 502 LINE",
"423 502 LINE",
"409 426 LINE",
"227 422 LINE",
"227 707 LINE",
"497 701 LINE",
"519 619 LINE",
"573 619 LINE",
"559 758 LINE"
);
},
{
closed = 1;
nodes = (
"211 938 OFFCURVE",
"173 907 OFFCURVE",
"173 866 CURVE SMOOTH",
"173 829 OFFCURVE",
"203 806 OFFCURVE",
"234 806 CURVE SMOOTH",
"271 806 OFFCURVE",
"308 834 OFFCURVE",
"308 877 CURVE SMOOTH",
"308 910 OFFCURVE",
"289 938 OFFCURVE",
"246 938 CURVE SMOOTH"
);
},
{
closed = 1;
nodes = (
"438 938 OFFCURVE",
"400 907 OFFCURVE",
"400 866 CURVE SMOOTH",
"400 829 OFFCURVE",
"430 806 OFFCURVE",
"462 806 CURVE SMOOTH",
"499 806 OFFCURVE",
"535 834 OFFCURVE",
"535 877 CURVE SMOOTH",
"535 910 OFFCURVE",
"516 938 OFFCURVE",
"473 938 CURVE SMOOTH"
);
}
);
width = 644;
},
{
layerId = "B26750D4-52C5-4F85-819B-BFB2F142DAD5";
name = Bold;
paths = (
{
closed = 1;
nodes = (
"52 758 LINE",
"52 678 LINE",
"121 667 LINE",
"121 87 LINE",
"49 68 LINE",
"49 0 LINE",
"646 0 LINE",
"672 170 LINE",
"571 188 LINE",
"509 92 LINE",
"294 78 LINE",
"294 346 LINE",
"419 343 LINE",
"446 266 LINE",
"534 266 LINE",
"534 504 LINE",
"446 504 LINE",
"419 431 LINE",
"294 426 LINE",
"294 680 LINE",
"475 669 LINE",
"521 591 LINE",
"621 591 LINE",
"606 758 LINE"
);
},
{
closed = 1;
nodes = (
"187 938 OFFCURVE",
"136 905 OFFCURVE",
"136 857 CURVE SMOOTH",
"136 811 OFFCURVE",
"179 790 OFFCURVE",
"222 790 CURVE SMOOTH",
"274 790 OFFCURVE",
"326 821 OFFCURVE",
"326 869 CURVE SMOOTH",
"326 919 OFFCURVE",
"284 938 OFFCURVE",
"236 938 CURVE SMOOTH"
);
},
{
closed = 1;
nodes = (
"454 938 OFFCURVE",
"401 906 OFFCURVE",
"401 859 CURVE SMOOTH",
"401 816 OFFCURVE",
"442 791 OFFCURVE",
"490 791 CURVE SMOOTH",
"546 791 OFFCURVE",
"589 824 OFFCURVE",
"589 870 CURVE SMOOTH",
"589 918 OFFCURVE",
"553 938 OFFCURVE",
"502 938 CURVE SMOOTH"
);
}
);
width = 696;
}
);
unicode = 00CB;
},
{
glyphname = Edotaccent;
lastChange = "2014-11-13 16:45:32 +0000";
layers = (
{
background = {
paths = (
{
closed = 1;
nodes = (
"52 758 LINE",
"52 721 LINE",
"138 713 LINE",
"138 44 LINE",
"50 33 LINE",
"50 0 LINE",
"589 0 LINE",
"611 154 LINE",
"575 163 LINE",
"531 49 LINE",
"209 41 LINE",
"209 382 LINE",
"409 379 LINE",
"421 297 LINE",
"460 297 LINE",
"460 504 LINE",
"421 504 LINE",
"409 426 LINE",
"209 422 LINE",
"209 719 LINE",
"508 713 LINE",
"531 619 LINE",
"572 619 LINE",
"558 758 LINE"
);
},
{
closed = 1;
nodes = (
"216 926 OFFCURVE",
"187 903 OFFCURVE",
"187 872 CURVE SMOOTH",
"187 843 OFFCURVE",
"210 825 OFFCURVE",
"235 825 CURVE SMOOTH",
"264 825 OFFCURVE",
"292 847 OFFCURVE",
"292 880 CURVE SMOOTH",
"292 905 OFFCURVE",
"277 926 OFFCURVE",
"244 926 CURVE SMOOTH"
);
},
{
closed = 1;
nodes = (
"439 926 OFFCURVE",
"410 902 OFFCURVE",
"410 871 CURVE SMOOTH",
"410 842 OFFCURVE",
"433 825 OFFCURVE",
"458 825 CURVE SMOOTH",
"487 825 OFFCURVE",
"516 847 OFFCURVE",
"516 879 CURVE SMOOTH",
"516 905 OFFCURVE",
"500 926 OFFCURVE",
"467 926 CURVE SMOOTH"
);
}
);
};
components = (
{
name = E;
},
{
name = dotaccent.cap;
transform = "{1, 0, 0, 1, 224, 0}";
}
);
layerId = "E777F328-EA17-4AE7-9EBA-8002E537BA4F";
name = Light;
width = 644;
},
{
background = {
paths = (
{
closed = 1;
nodes = (
"52 758 LINE",
"52 710 LINE",
"132 702 LINE",
"132 56 LINE",
"50 42 LINE",
"50 0 LINE",
"591 0 LINE",
"613 151 LINE",
"566 163 LINE",
"517 62 LINE",
"227 53 LINE",
"227 370 LINE",
"409 367 LINE",
"423 292 LINE",
"473 292 LINE",
"473 502 LINE",
"423 502 LINE",
"409 426 LINE",
"227 422 LINE",
"227 707 LINE",
"497 701 LINE",
"519 619 LINE",
"573 619 LINE",
"559 758 LINE"
);
},
{
closed = 1;
nodes = (
"211 938 OFFCURVE",
"173 907 OFFCURVE",
"173 866 CURVE SMOOTH",
"173 829 OFFCURVE",
"203 806 OFFCURVE",
"234 806 CURVE SMOOTH",
"271 806 OFFCURVE",
"308 834 OFFCURVE",
"308 877 CURVE SMOOTH",
"308 910 OFFCURVE",
"289 938 OFFCURVE",
"246 938 CURVE SMOOTH"
);
},
{
closed = 1;
nodes = (
"438 938 OFFCURVE",
"400 907 OFFCURVE",
"400 866 CURVE SMOOTH",
"400 829 OFFCURVE",
"430 806 OFFCURVE",
"462 806 CURVE SMOOTH",
"499 806 OFFCURVE",
"535 834 OFFCURVE",
"535 877 CURVE SMOOTH",
"535 910 OFFCURVE",
"516 938 OFFCURVE",
"473 938 CURVE SMOOTH"
);
}
);
};
components = (
{
name = E;
},
{
name = dotaccent.cap;
transform = "{1, 0, 0, 1, 213, 0}";
}
);
layerId = "39185045-6A8C-415A-8312-7B8F11386A4C";
name = Regular;
width = 644;
},
{
background = {
paths = (
{
closed = 1;
nodes = (
"52 758 LINE",
"52 678 LINE",
"121 667 LINE",
"121 87 LINE",
"49 68 LINE",
"49 0 LINE",
"646 0 LINE",
"672 170 LINE",
"571 188 LINE",
"509 92 LINE",
"294 78 LINE",
"294 346 LINE",
"419 343 LINE",
"446 266 LINE",
"534 266 LINE",
"534 504 LINE",
"446 504 LINE",
"419 431 LINE",
"294 426 LINE",
"294 680 LINE",
"475 669 LINE",
"521 591 LINE",
"621 591 LINE",
"606 758 LINE"
);
},
{
closed = 1;
nodes = (
"187 938 OFFCURVE",
"136 905 OFFCURVE",
"136 857 CURVE SMOOTH",
"136 811 OFFCURVE",
"179 790 OFFCURVE",
"222 790 CURVE SMOOTH",
"274 790 OFFCURVE",
"326 821 OFFCURVE",
"326 869 CURVE SMOOTH",
"326 919 OFFCURVE",
"284 938 OFFCURVE",
"236 938 CURVE SMOOTH"
);
},
{
closed = 1;
nodes = (
"454 938 OFFCURVE",
"401 906 OFFCURVE",
"401 859 CURVE SMOOTH",
"401 816 OFFCURVE",
"442 791 OFFCURVE",
"490 791 CURVE SMOOTH",
"546 791 OFFCURVE",
"589 824 OFFCURVE",
"589 870 CURVE SMOOTH",
"589 918 OFFCURVE",
"553 938 OFFCURVE",
"502 938 CURVE SMOOTH"
);
}
);
};
components = (
{
name = E;
},
{
name = dotaccent.cap;
transform = "{1, 0, 0, 1, 198, 0}";
}
);
layerId = "B26750D4-52C5-4F85-819B-BFB2F142DAD5";
name = Bold;
width = 696;
}
);
unicode = 0116;
},
{
glyphname = Egrave;
lastChange = "2014-11-13 16:55:56 +0000";
layers = (
{
layerId = "E777F328-EA17-4AE7-9EBA-8002E537BA4F";
name = Light;
paths = (
{
closed = 1;
nodes = (
"374 806 LINE",
"229 938 LINE",
"178 884 LINE",
"224 848 OFFCURVE",
"294 809 OFFCURVE",
"354 785 CURVE"
);
},
{
closed = 1;
nodes = (
"50 0 LINE",
"589 0 LINE",
"611 154 LINE",
"575 163 LINE",
"531 49 LINE",
"209 41 LINE",
"209 382 LINE",
"409 379 LINE",
"421 297 LINE",
"460 297 LINE",
"460 504 LINE",
"421 504 LINE",
"409 426 LINE",
"209 422 LINE",
"209 719 LINE",
"508 713 LINE",
"531 619 LINE",
"572 619 LINE",
"558 758 LINE",
"52 758 LINE",
"52 721 LINE",
"138 713 LINE",
"138 44 LINE",
"50 33 LINE"
);
}
);
width = 644;
},
{
layerId = "39185045-6A8C-415A-8312-7B8F11386A4C";
name = Regular;
paths = (
{
closed = 1;
nodes = (
"386 811 LINE",
"237 938 LINE",
"166 865 LINE",
"227 826 OFFCURVE",
"299 795 OFFCURVE",
"360 785 CURVE"
);
},
{
closed = 1;
nodes = (
"50 0 LINE",
"591 0 LINE",
"613 151 LINE",
"566 163 LINE",
"517 62 LINE",
"227 53 LINE",
"227 370 LINE",
"409 367 LINE",
"423 292 LINE",
"473 292 LINE",
"473 502 LINE",
"423 502 LINE",
"409 426 LINE",
"227 422 LINE",
"227 707 LINE",
"497 701 LINE",
"519 619 LINE",
"573 619 LINE",
"559 758 LINE",
"52 758 LINE",
"52 710 LINE",
"132 702 LINE",
"132 56 LINE",
"50 42 LINE"
);
}
);
width = 644;
},
{
layerId = "B26750D4-52C5-4F85-819B-BFB2F142DAD5";
name = Bold;
paths = (
{
closed = 1;
nodes = (
"432 830 LINE",
"250 938 LINE",
"156 844 LINE",
"199 809 OFFCURVE",
"348 776 OFFCURVE",
"383 778 CURVE"
);
},
{
closed = 1;
nodes = (
"49 0 LINE",
"646 0 LINE",
"672 170 LINE",
"571 188 LINE",
"509 92 LINE",
"294 78 LINE",
"294 346 LINE",
"419 343 LINE",
"446 266 LINE",
"534 266 LINE",
"534 504 LINE",
"446 504 LINE",
"419 431 LINE",
"294 426 LINE",
"294 680 LINE",
"475 669 LINE",
"521 591 LINE",
"621 591 LINE",
"606 758 LINE",
"52 758 LINE",
"52 678 LINE",
"121 667 LINE",
"121 87 LINE",
"49 68 LINE"
);
}
);
width = 696;
}
);
unicode = 00C8;
},
{
glyphname = Emacron;
lastChange = "2014-11-13 16:58:39 +0000";
layers = (
{
background = {
paths = (
{
closed = 1;
nodes = (
"52 758 LINE",
"52 721 LINE",
"138 713 LINE",
"138 44 LINE",
"50 33 LINE",
"50 0 LINE",
"589 0 LINE",
"611 154 LINE",
"575 163 LINE",
"531 49 LINE",
"209 41 LINE",
"209 382 LINE",
"409 379 LINE",
"421 297 LINE",
"460 297 LINE",
"460 504 LINE",
"421 504 LINE",
"409 426 LINE",
"209 422 LINE",
"209 719 LINE",
"508 713 LINE",
"531 619 LINE",
"572 619 LINE",
"558 758 LINE"
);
},
{
closed = 1;
nodes = (
"216 926 OFFCURVE",
"187 903 OFFCURVE",
"187 872 CURVE SMOOTH",
"187 843 OFFCURVE",
"210 825 OFFCURVE",
"235 825 CURVE SMOOTH",
"264 825 OFFCURVE",
"292 847 OFFCURVE",
"292 880 CURVE SMOOTH",
"292 905 OFFCURVE",
"277 926 OFFCURVE",
"244 926 CURVE SMOOTH"
);
},
{
closed = 1;
nodes = (
"439 926 OFFCURVE",
"410 902 OFFCURVE",
"410 871 CURVE SMOOTH",
"410 842 OFFCURVE",
"433 825 OFFCURVE",
"458 825 CURVE SMOOTH",
"487 825 OFFCURVE",
"516 847 OFFCURVE",
"516 879 CURVE SMOOTH",
"516 905 OFFCURVE",
"500 926 OFFCURVE",
"467 926 CURVE SMOOTH"
);
}
);
};
components = (
{
name = E;
},
{
name = macron;
transform = "{1, 0, 0, 1, 126, 131}";
}
);
layerId = "E777F328-EA17-4AE7-9EBA-8002E537BA4F";
name = Light;
width = 644;
},
{
background = {
paths = (
{
closed = 1;
nodes = (
"52 758 LINE",
"52 710 LINE",
"132 702 LINE",
"132 56 LINE",
"50 42 LINE",
"50 0 LINE",
"591 0 LINE",
"613 151 LINE",
"566 163 LINE",
"517 62 LINE",
"227 53 LINE",
"227 370 LINE",
"409 367 LINE",
"423 292 LINE",
"473 292 LINE",
"473 502 LINE",
"423 502 LINE",
"409 426 LINE",
"227 422 LINE",
"227 707 LINE",
"497 701 LINE",
"519 619 LINE",
"573 619 LINE",
"559 758 LINE"
);
},
{
closed = 1;
nodes = (
"211 938 OFFCURVE",
"173 907 OFFCURVE",
"173 866 CURVE SMOOTH",
"173 829 OFFCURVE",
"203 806 OFFCURVE",
"234 806 CURVE SMOOTH",
"271 806 OFFCURVE",
"308 834 OFFCURVE",
"308 877 CURVE SMOOTH",
"308 910 OFFCURVE",
"289 938 OFFCURVE",
"246 938 CURVE SMOOTH"
);
},
{
closed = 1;
nodes = (
"438 938 OFFCURVE",
"400 907 OFFCURVE",
"400 866 CURVE SMOOTH",
"400 829 OFFCURVE",
"430 806 OFFCURVE",
"462 806 CURVE SMOOTH",
"499 806 OFFCURVE",
"535 834 OFFCURVE",
"535 877 CURVE SMOOTH",
"535 910 OFFCURVE",
"516 938 OFFCURVE",
"473 938 CURVE SMOOTH"
);
}
);
};
components = (
{
name = E;
},
{
name = macron;
transform = "{1, 0, 0, 1, 133, 131}";
}
);
layerId = "39185045-6A8C-415A-8312-7B8F11386A4C";
name = Regular;
width = 644;
},
{
background = {
paths = (
{
closed = 1;
nodes = (
"52 758 LINE",
"52 678 LINE",
"121 667 LINE",
"121 87 LINE",
"49 68 LINE",
"49 0 LINE",
"646 0 LINE",
"672 170 LINE",
"571 188 LINE",
"509 92 LINE",
"294 78 LINE",
"294 346 LINE",
"419 343 LINE",
"446 266 LINE",
"534 266 LINE",
"534 504 LINE",
"446 504 LINE",
"419 431 LINE",
"294 426 LINE",
"294 680 LINE",
"475 669 LINE",
"521 591 LINE",
"621 591 LINE",
"606 758 LINE"
);
},
{
closed = 1;
nodes = (
"187 938 OFFCURVE",
"136 905 OFFCURVE",
"136 857 CURVE SMOOTH",
"136 811 OFFCURVE",
"179 790 OFFCURVE",
"222 790 CURVE SMOOTH",
"274 790 OFFCURVE",
"326 821 OFFCURVE",
"326 869 CURVE SMOOTH",
"326 919 OFFCURVE",
"284 938 OFFCURVE",
"236 938 CURVE SMOOTH"
);
},
{
closed = 1;
nodes = (
"454 938 OFFCURVE",
"401 906 OFFCURVE",
"401 859 CURVE SMOOTH",
"401 816 OFFCURVE",
"442 791 OFFCURVE",
"490 791 CURVE SMOOTH",
"546 791 OFFCURVE",
"589 824 OFFCURVE",
"589 870 CURVE SMOOTH",
"589 918 OFFCURVE",
"553 938 OFFCURVE",
"502 938 CURVE SMOOTH"
);
}
);
};
components = (
{
name = E;
},
{
name = macron;
transform = "{1, 0, 0, 1, 104, 151}";
}
);
layerId = "B26750D4-52C5-4F85-819B-BFB2F142DAD5";
name = Bold;
width = 696;
}
);
unicode = 0112;
},
{
glyphname = Eogonek;
lastChange = "2014-11-13 17:00:40 +0000";
layers = (
{
layerId = "E777F328-EA17-4AE7-9EBA-8002E537BA4F";
name = Light;
paths = (
{
closed = 1;
nodes = (
"50 0 LINE",
"516 0 LINE",
"440 -30 OFFCURVE",
"363 -101 OFFCURVE",
"363 -165 CURVE SMOOTH",
"363 -212 OFFCURVE",
"395 -255 OFFCURVE",
"461 -257 CURVE SMOOTH",
"542 -260 OFFCURVE",
"589 -228 OFFCURVE",
"615 -208 CURVE",
"606 -173 LINE",
"586 -185 OFFCURVE",
"542 -211 OFFCURVE",
"500 -209 CURVE SMOOTH",
"453 -207 OFFCURVE",
"429 -190 OFFCURVE",
"429 -145 CURVE SMOOTH",
"429 -86 OFFCURVE",
"532 -17 OFFCURVE",
"588 0 CURVE",
"589 0 LINE",
"611 154 LINE",
"575 163 LINE",
"531 49 LINE",
"209 41 LINE",
"209 382 LINE",
"409 379 LINE",
"421 297 LINE",
"460 297 LINE",
"460 504 LINE",
"421 504 LINE",
"409 426 LINE",
"209 422 LINE",
"209 719 LINE",
"508 713 LINE",
"531 619 LINE",
"572 619 LINE",
"558 758 LINE",
"52 758 LINE",
"52 721 LINE",
"138 713 LINE",
"138 44 LINE",
"50 33 LINE"
);
}
);
width = 644;
},
{
layerId = "39185045-6A8C-415A-8312-7B8F11386A4C";
name = Regular;
paths = (
{
closed = 1;
nodes = (
"50 0 LINE",
"511 0 LINE",
"442 -33 OFFCURVE",
"368 -104 OFFCURVE",
"368 -165 CURVE SMOOTH",
"368 -208 OFFCURVE",
"393 -253 OFFCURVE",
"464 -257 CURVE SMOOTH",
"558 -262 OFFCURVE",
"607 -223 OFFCURVE",
"633 -203 CURVE",
"623 -160 LINE",
"607 -168 OFFCURVE",
"558 -197 OFFCURVE",
"517 -195 CURVE SMOOTH",
"476 -192 OFFCURVE",
"455 -182 OFFCURVE",
"455 -137 CURVE SMOOTH",
"455 -94 OFFCURVE",
"532 -24 OFFCURVE",
"590 0 CURVE",
"591 0 LINE",
"613 151 LINE",
"566 163 LINE",
"517 62 LINE",
"227 53 LINE",
"227 370 LINE",
"409 367 LINE",
"423 292 LINE",
"473 292 LINE",
"473 502 LINE",
"423 502 LINE",
"409 426 LINE",
"227 422 LINE",
"227 707 LINE",
"497 701 LINE",
"519 619 LINE",
"573 619 LINE",
"559 758 LINE",
"52 758 LINE",
"52 710 LINE",
"132 702 LINE",
"132 56 LINE",
"50 42 LINE"
);
}
);
width = 644;
},
{
background = {
paths = (
{
closed = 1;
nodes = (
"49 68 LINE",
"121 87 LINE",
"121 667 LINE",
"52 678 LINE",
"52 758 LINE",
"606 758 LINE",
"621 591 LINE",
"521 591 LINE",
"475 669 LINE",
"294 680 LINE",
"294 426 LINE",
"419 431 LINE",
"446 504 LINE",
"534 504 LINE",
"534 266 LINE",
"446 266 LINE",
"419 343 LINE",
"294 346 LINE",
"294 78 LINE",
"509 92 LINE",
"571 188 LINE",
"672 170 LINE",
"646 0 LINE",
"626 0 LINE",
"590 -12 OFFCURVE",
"557 -30 OFFCURVE",
"533 -47 CURVE SMOOTH",
"508 -65 OFFCURVE",
"491 -83 OFFCURVE",
"487 -95 CURVE SMOOTH",
"479 -117 OFFCURVE",
"482 -130 OFFCURVE",
"489 -137 CURVE SMOOTH",
"496 -144 OFFCURVE",
"507 -146 OFFCURVE",
"518 -146 CURVE SMOOTH",
"537 -146 OFFCURVE",
"558 -143 OFFCURVE",
"578 -138 CURVE SMOOTH",
"597 -132 OFFCURVE",
"617 -125 OFFCURVE",
"634 -119 CURVE",
"651 -185 LINE",
"587 -231 OFFCURVE",
"515 -251 OFFCURVE",
"430 -251 CURVE SMOOTH",
"392 -251 OFFCURVE",
"367 -240 OFFCURVE",
"351 -225 CURVE SMOOTH",
"334 -210 OFFCURVE",
"327 -190 OFFCURVE",
"326 -171 CURVE SMOOTH",
"324 -148 OFFCURVE",
"340 -116 OFFCURVE",
"372 -84 CURVE SMOOTH",
"402 -52 OFFCURVE",
"448 -21 OFFCURVE",
"507 0 CURVE",
"49 0 LINE"
);
}
);
};
layerId = "B26750D4-52C5-4F85-819B-BFB2F142DAD5";
name = Bold;
paths = (
{
closed = 1;
nodes = (
"49 0 LINE",
"507 0 LINE",
"427 -28 OFFCURVE",
"326 -103 OFFCURVE",
"326 -167 CURVE SMOOTH",
"326 -219 OFFCURVE",
"368 -251 OFFCURVE",
"430 -251 CURVE SMOOTH",
"515 -251 OFFCURVE",
"587 -231 OFFCURVE",
"651 -185 CURVE",
"634 -119 LINE",
"592 -134 OFFCURVE",
"561 -146 OFFCURVE",
"518 -146 CURVE SMOOTH",
"497 -146 OFFCURVE",
"482 -138 OFFCURVE",
"482 -118 CURVE SMOOTH",
"482 -69 OFFCURVE",
"561 -22 OFFCURVE",
"626 0 CURVE",
"646 0 LINE",
"672 170 LINE",
"571 188 LINE",
"509 92 LINE",
"294 78 LINE",
"294 346 LINE",
"419 343 LINE",
"446 266 LINE",
"534 266 LINE",
"534 504 LINE",
"446 504 LINE",
"419 431 LINE",
"294 426 LINE",
"294 680 LINE",
"475 669 LINE",
"521 591 LINE",
"621 591 LINE",
"606 758 LINE",
"52 758 LINE",
"52 678 LINE",
"121 667 LINE",
"121 87 LINE",
"49 68 LINE"
);
}
);
width = 696;
}
);
unicode = 0118;
},
{
glyphname = F;
lastChange = "2014-11-13 17:00:58 +0000";
layers = (
{
layerId = "E777F328-EA17-4AE7-9EBA-8002E537BA4F";
name = Light;
paths = (
{
closed = 1;
nodes = (
"51 0 LINE",
"367 0 LINE",
"367 36 LINE",
"216 44 LINE",
"216 367 LINE",
"442 363 LINE",
"454 282 LINE",
"496 282 LINE",
"496 487 LINE",
"458 487 LINE",
"442 411 LINE",
"216 407 LINE",
"216 717 LINE",
"525 711 LINE",
"548 618 LINE",
"586 619 LINE",
"575 758 LINE",
"58 758 LINE",
"58 721 LINE",
"144 713 LINE",
"144 45 LINE",
"51 33 LINE"
);
}
);
width = 604;
},
{
layerId = "39185045-6A8C-415A-8312-7B8F11386A4C";
name = Regular;
paths = (
{
closed = 1;
nodes = (
"51 0 LINE",
"370 0 LINE",
"370 46 LINE",
"229 56 LINE",
"229 361 LINE",
"444 357 LINE",
"457 284 LINE",
"511 284 LINE",
"511 489 LINE",
"463 489 LINE",
"444 418 LINE",
"229 414 LINE",
"229 705 LINE",
"516 698 LINE",
"539 618 LINE",
"587 619 LINE",
"578 758 LINE",
"54 758 LINE",
"54 710 LINE",
"134 702 LINE",
"134 56 LINE",
"51 42 LINE"
);
}
);
width = 604;
},
{
layerId = "B26750D4-52C5-4F85-819B-BFB2F142DAD5";
name = Bold;
paths = (
{
closed = 1;
nodes = (
"42 0 LINE",
"445 0 LINE",
"445 78 LINE",
"289 91 LINE",
"289 331 LINE",
"431 329 LINE",
"453 249 LINE",
"534 249 LINE",
"534 498 LINE",
"461 498 LINE",
"429 423 LINE",
"288 417 LINE",
"288 673 LINE",
"493 662 LINE",
"528 587 LINE",
"614 588 LINE",
"599 758 LINE",
"39 758 LINE",
"39 678 LINE",
"115 668 LINE",
"115 84 LINE",
"42 68 LINE"
);
}
);
width = 646;
}
);
unicode = 0046;
},
{
glyphname = G;
lastChange = "2014-11-13 17:02:58 +0000";
layers = (
{
layerId = "E777F328-EA17-4AE7-9EBA-8002E537BA4F";
name = Light;
paths = (
{
closed = 1;
nodes = (
"221 765 OFFCURVE",
"42 606 OFFCURVE",
"42 357 CURVE SMOOTH",
"42 143 OFFCURVE",
"180 -14 OFFCURVE",
"382 -14 CURVE SMOOTH",
"500 -14 OFFCURVE",
"611 33 OFFCURVE",
"654 37 CURVE",
"654 301 LINE",
"721 309 LINE",
"721 346 LINE",
"447 346 LINE",
"447 309 LINE",
"582 302 LINE",
"582 75 LINE",
"544 42 OFFCURVE",
"464 27 OFFCURVE",
"401 27 CURVE SMOOTH",
"204 27 OFFCURVE",
"117 202 OFFCURVE",
"117 379 CURVE SMOOTH",
"117 597 OFFCURVE",
"260 720 OFFCURVE",
"412 722 CURVE SMOOTH",
"504 723 OFFCURVE",
"567 701 OFFCURVE",
"586 685 CURVE",
"606 599 LINE",
"646 599 LINE",
"653 732 LINE",
"615 740 OFFCURVE",
"552 765 OFFCURVE",
"434 765 CURVE SMOOTH"
);
}
);
width = 750;
},
{
layerId = "39185045-6A8C-415A-8312-7B8F11386A4C";
name = Regular;
paths = (
{
closed = 1;
nodes = (
"221 765 OFFCURVE",
"42 605 OFFCURVE",
"42 354 CURVE SMOOTH",
"42 142 OFFCURVE",
"180 -14 OFFCURVE",
"381 -14 CURVE SMOOTH",
"500 -14 OFFCURVE",
"618 37 OFFCURVE",
"661 40 CURVE",
"661 289 LINE",
"721 298 LINE",
"721 346 LINE",
"447 346 LINE",
"447 298 LINE",
"565 290 LINE",
"565 89 LINE",
"527 47 OFFCURVE",
"460 38 OFFCURVE",
"404 38 CURVE SMOOTH",
"226 38 OFFCURVE",
"142 207 OFFCURVE",
"142 384 CURVE SMOOTH",
"142 587 OFFCURVE",
"264 706 OFFCURVE",
"403 708 CURVE SMOOTH",
"507 710 OFFCURVE",
"563 687 OFFCURVE",
"573 674 CURVE",
"598 592 LINE",
"650 592 LINE",
"658 734 LINE",
"624 742 OFFCURVE",
"556 765 OFFCURVE",
"434 765 CURVE SMOOTH"
);
}
);
width = 750;
},
{
layerId = "B26750D4-52C5-4F85-819B-BFB2F142DAD5";
name = Bold;
paths = (
{
closed = 1;
nodes = (
"195 765 OFFCURVE",
"32 612 OFFCURVE",
"32 365 CURVE SMOOTH",
"32 149 OFFCURVE",
"170 -14 OFFCURVE",
"381 -14 CURVE SMOOTH",
"490 -14 OFFCURVE",
"618 38 OFFCURVE",
"691 26 CURVE",
"691 253 LINE",
"737 265 LINE",
"737 346 LINE",
"435 346 LINE",
"435 265 LINE",
"538 251 LINE",
"538 126 LINE",
"533 90 OFFCURVE",
"465 64 OFFCURVE",
"412 64 CURVE SMOOTH",
"268 64 OFFCURVE",
"220 232 OFFCURVE",
"220 404 CURVE SMOOTH",
"220 552 OFFCURVE",
"286 688 OFFCURVE",
"426 688 CURVE SMOOTH",
"495 688 OFFCURVE",
"532 669 OFFCURVE",
"541 659 CURVE",
"586 571 LINE",
"674 571 LINE",
"685 738 LINE",
"629 755 OFFCURVE",
"513 765 OFFCURVE",
"436 765 CURVE SMOOTH"
);
}
);
width = 774;
}
);
unicode = 0047;
},
{
glyphname = H;
lastChange = "2014-11-13 17:04:47 +0000";
layers = (
{
layerId = "E777F328-EA17-4AE7-9EBA-8002E537BA4F";
name = Light;
paths = (
{
closed = 1;
nodes = (
"52 0 LINE",
"291 0 LINE",
"291 33 LINE",
"208 44 LINE",
"208 343 LINE",
"617 343 LINE",
"617 44 LINE",
"534 33 LINE",
"534 0 LINE",
"774 0 LINE",
"774 33 LINE",
"689 45 LINE",
"689 714 LINE",
"766 721 LINE",
"766 758 LINE",
"537 758 LINE",
"537 721 LINE",
"617 714 LINE",
"617 388 LINE",
"208 388 LINE",
"208 714 LINE",
"287 721 LINE",
"287 758 LINE",
"55 758 LINE",
"55 721 LINE",
"136 714 LINE",
"136 45 LINE",
"52 33 LINE"
);
}
);
width = 833;
},
{
layerId = "39185045-6A8C-415A-8312-7B8F11386A4C";
name = Regular;
paths = (
{
closed = 1;
nodes = (
"52 0 LINE",
"313 0 LINE",
"313 42 LINE",
"229 56 LINE",
"229 340 LINE",
"604 340 LINE",
"604 56 LINE",
"520 42 LINE",
"520 0 LINE",
"783 0 LINE",
"783 42 LINE",
"699 56 LINE",
"699 702 LINE",
"777 710 LINE",
"777 758 LINE",
"523 758 LINE",
"523 710 LINE",
"604 702 LINE",
"604 397 LINE",
"229 397 LINE",
"229 702 LINE",
"309 710 LINE",
"309 758 LINE",
"54 758 LINE",
"54 710 LINE",
"134 702 LINE",
"134 56 LINE",
"52 42 LINE"
);
}
);
width = 833;
},
{
layerId = "B26750D4-52C5-4F85-819B-BFB2F142DAD5";
name = Bold;
paths = (
{
closed = 1;
nodes = (
"32 0 LINE",
"379 0 LINE",
"379 68 LINE",
"290 89 LINE",
"290 337 LINE",
"580 337 LINE",
"580 88 LINE",
"491 67 LINE",
"491 0 LINE",
"845 0 LINE",
"845 67 LINE",
"754 88 LINE",
"754 668 LINE",
"840 678 LINE",
"840 758 LINE",
"498 758 LINE",
"498 678 LINE",
"580 669 LINE",
"580 431 LINE",
"290 431 LINE",
"290 667 LINE",
"374 678 LINE",
"374 758 LINE",
"29 758 LINE",
"29 678 LINE",
"115 667 LINE",
"115 89 LINE",
"32 68 LINE"
);
}
);
width = 869;
}
);
unicode = 0048;
},
{
glyphname = I;
lastChange = "2014-11-13 17:04:58 +0000";
layers = (
{
layerId = "E777F328-EA17-4AE7-9EBA-8002E537BA4F";
name = Light;
paths = (
{
closed = 1;
nodes = (
"66 0 LINE",
"307 0 LINE",
"307 33 LINE",
"221 44 LINE",
"221 714 LINE",
"303 721 LINE",
"303 758 LINE",
"68 758 LINE",
"68 721 LINE",
"149 714 LINE",
"149 44 LINE",
"66 33 LINE"
);
}
);
width = 373;
},
{
layerId = "39185045-6A8C-415A-8312-7B8F11386A4C";
name = Regular;
paths = (
{
closed = 1;
nodes = (
"51 0 LINE",
"323 0 LINE",
"323 42 LINE",
"234 56 LINE",
"234 702 LINE",
"318 710 LINE",
"318 758 LINE",
"53 758 LINE",
"53 710 LINE",
"139 702 LINE",
"139 56 LINE",
"51 42 LINE"
);
}
);
width = 373;
},
{
layerId = "B26750D4-52C5-4F85-819B-BFB2F142DAD5";
name = Bold;
paths = (
{
closed = 1;
nodes = (
"27 0 LINE",
"387 0 LINE",
"387 68 LINE",
"295 89 LINE",
"295 666 LINE",
"382 678 LINE",
"382 758 LINE",
"27 758 LINE",
"27 678 LINE",
"119 667 LINE",
"119 88 LINE",
"27 68 LINE"
);
}
);
width = 414;
}
);
unicode = 0049;
},
{
glyphname = IJ;
lastChange = "2014-11-13 17:06:21 +0000";
layers = (
{
layerId = "E777F328-EA17-4AE7-9EBA-8002E537BA4F";
name = Light;
paths = (
{
closed = 1;
nodes = (
"352 -189 LINE",
"451 -175 OFFCURVE",
"556 -100 OFFCURVE",
"579 17 CURVE SMOOTH",
"591 78 OFFCURVE",
"588 151 OFFCURVE",
"588 232 CURVE SMOOTH",
"588 714 LINE",
"676 721 LINE",
"676 758 LINE",
"430 758 LINE",
"430 721 LINE",
"516 714 LINE",
"516 196 LINE SMOOTH",
"516 96 OFFCURVE",
"514 28 OFFCURVE",
"495 -29 CURVE",
"470 -92 OFFCURVE",
"411 -139 OFFCURVE",
"331 -160 CURVE"
);
},
{
closed = 1;
nodes = (
"66 0 LINE",
"307 0 LINE",
"307 33 LINE",
"221 44 LINE",
"221 714 LINE",
"303 721 LINE",
"303 758 LINE",
"68 758 LINE",
"68 721 LINE",
"149 714 LINE",
"149 44 LINE",
"66 33 LINE"
);
}
);
width = 725;
},
{
layerId = "39185045-6A8C-415A-8312-7B8F11386A4C";
name = Regular;
paths = (
{
closed = 1;
nodes = (
"356 -190 LINE",
"458 -175 OFFCURVE",
"571 -104 OFFCURVE",
"597 24 CURVE SMOOTH",
"610 91 OFFCURVE",
"606 176 OFFCURVE",
"606 269 CURVE SMOOTH",
"606 702 LINE",
"686 710 LINE",
"686 758 LINE",
"431 758 LINE",
"431 710 LINE",
"511 702 LINE",
"511 196 LINE SMOOTH",
"511 96 OFFCURVE",
"508 28 OFFCURVE",
"489 -29 CURVE SMOOTH",
"464 -91 OFFCURVE",
"403 -132 OFFCURVE",
"331 -156 CURVE"
);
},
{
closed = 1;
nodes = (
"51 0 LINE",
"323 0 LINE",
"323 42 LINE",
"234 56 LINE",
"234 702 LINE",
"318 710 LINE",
"318 758 LINE",
"53 758 LINE",
"53 710 LINE",
"139 702 LINE",
"139 56 LINE",
"51 42 LINE"
);
}
);
width = 724;
},
{
layerId = "B26750D4-52C5-4F85-819B-BFB2F142DAD5";
name = Bold;
paths = (
{
closed = 1;
nodes = (
"393 -193 LINE",
"488 -193 OFFCURVE",
"630 -128 OFFCURVE",
"674 -20 CURVE SMOOTH",
"696 35 OFFCURVE",
"704 150 OFFCURVE",
"704 261 CURVE SMOOTH",
"704 667 LINE",
"773 678 LINE",
"773 758 LINE",
"455 758 LINE",
"455 678 LINE",
"527 667 LINE",
"527 198 LINE SMOOTH",
"527 114 OFFCURVE",
"526 43 OFFCURVE",
"503 -23 CURVE",
"476 -84 OFFCURVE",
"427 -119 OFFCURVE",
"359 -144 CURVE"
);
},
{
closed = 1;
nodes = (
"27 0 LINE",
"387 0 LINE",
"387 68 LINE",
"295 89 LINE",
"295 666 LINE",
"382 678 LINE",
"382 758 LINE",
"27 758 LINE",
"27 678 LINE",
"119 667 LINE",
"119 88 LINE",
"27 68 LINE"
);
}
);
width = 798;
}
);
unicode = 0132;
},
{
glyphname = Iacute;
lastChange = "2014-11-13 17:07:04 +0000";
layers = (
{
layerId = "E777F328-EA17-4AE7-9EBA-8002E537BA4F";
name = Light;
paths = (
{
closed = 1;
nodes = (
"184 785 LINE",
"243 809 OFFCURVE",
"313 848 OFFCURVE",
"360 884 CURVE",
"308 938 LINE",
"163 806 LINE"
);
},
{
closed = 1;
nodes = (
"66 0 LINE",
"307 0 LINE",
"307 33 LINE",
"221 44 LINE",
"221 714 LINE",
"303 721 LINE",
"303 758 LINE",
"68 758 LINE",
"68 721 LINE",
"149 714 LINE",
"149 44 LINE",
"66 33 LINE"
);
}
);
width = 373;
},
{
layerId = "39185045-6A8C-415A-8312-7B8F11386A4C";
name = Regular;
paths = (
{
closed = 1;
nodes = (
"184 785 LINE",
"244 795 OFFCURVE",
"317 826 OFFCURVE",
"378 865 CURVE",
"307 938 LINE",
"158 811 LINE"
);
},
{
closed = 1;
nodes = (
"51 0 LINE",
"323 0 LINE",
"323 42 LINE",
"234 56 LINE",
"234 702 LINE",
"318 710 LINE",
"318 758 LINE",
"53 758 LINE",
"53 710 LINE",
"139 702 LINE",
"139 56 LINE",
"51 42 LINE"
);
}
);
width = 373;
},
{
layerId = "B26750D4-52C5-4F85-819B-BFB2F142DAD5";
name = Bold;
paths = (
{
closed = 1;
nodes = (
"178 778 LINE",
"242 782 OFFCURVE",
"371 810 OFFCURVE",
"415 844 CURVE",
"321 938 LINE",
"129 830 LINE"
);
},
{
closed = 1;
nodes = (
"27 0 LINE",
"387 0 LINE",
"387 68 LINE",
"295 89 LINE",
"295 666 LINE",
"382 678 LINE",
"382 758 LINE",
"27 758 LINE",
"27 678 LINE",
"119 667 LINE",
"119 88 LINE",
"27 68 LINE"
);
}
);
width = 414;
}
);
unicode = 00CD;
},
{
glyphname = Icircumflex;
lastChange = "2014-11-13 17:07:19 +0000";
layers = (
{
layerId = "E777F328-EA17-4AE7-9EBA-8002E537BA4F";
name = Light;
paths = (
{
closed = 1;
nodes = (
"50 790 LINE",
"187 887 LINE",
"320 790 LINE",
"354 809 LINE",
"222 938 LINE",
"151 938 LINE",
"20 808 LINE"
);
},
{
closed = 1;
nodes = (
"66 0 LINE",
"307 0 LINE",
"307 33 LINE",
"221 44 LINE",
"221 714 LINE",
"303 721 LINE",
"303 758 LINE",
"68 758 LINE",
"68 721 LINE",
"149 714 LINE",
"149 44 LINE",
"66 33 LINE"
);
}
);
width = 373;
},
{
layerId = "39185045-6A8C-415A-8312-7B8F11386A4C";
name = Regular;
paths = (
{
closed = 1;
nodes = (
"56 789 LINE",
"188 871 LINE",
"317 789 LINE",
"359 813 LINE",
"234 938 LINE",
"142 938 LINE",
"18 812 LINE"
);
},
{
closed = 1;
nodes = (
"51 0 LINE",
"323 0 LINE",
"323 42 LINE",
"234 56 LINE",
"234 702 LINE",
"318 710 LINE",
"318 758 LINE",
"53 758 LINE",
"53 710 LINE",
"139 702 LINE",
"139 56 LINE",
"51 42 LINE"
);
}
);
width = 373;
},
{
layerId = "B26750D4-52C5-4F85-819B-BFB2F142DAD5";
name = Bold;
paths = (
{
closed = 1;
nodes = (
"68 780 LINE",
"206 843 LINE",
"338 780 LINE",
"393 815 LINE",
"261 938 LINE",
"148 938 LINE",
"14 815 LINE"
);
},
{
closed = 1;
nodes = (
"27 0 LINE",
"387 0 LINE",
"387 68 LINE",
"295 89 LINE",
"295 666 LINE",
"382 678 LINE",
"382 758 LINE",
"27 758 LINE",
"27 678 LINE",
"119 667 LINE",
"119 88 LINE",
"27 68 LINE"
);
}
);
width = 414;
}
);
unicode = 00CE;
},
{
glyphname = Idieresis;
lastChange = "2014-11-13 17:07:55 +0000";
layers = (
{
layerId = "E777F328-EA17-4AE7-9EBA-8002E537BA4F";
name = Light;
paths = (
{
closed = 1;
nodes = (
"68 758 LINE",
"68 721 LINE",
"149 714 LINE",
"149 44 LINE",
"66 33 LINE",
"66 0 LINE",
"307 0 LINE",
"307 33 LINE",
"221 44 LINE",
"221 714 LINE",
"303 721 LINE",
"303 758 LINE"
);
},
{
closed = 1;
nodes = (
"51 926 OFFCURVE",
"21 903 OFFCURVE",
"21 872 CURVE SMOOTH",
"21 843 OFFCURVE",
"44 825 OFFCURVE",
"69 825 CURVE SMOOTH",
"99 825 OFFCURVE",
"127 847 OFFCURVE",
"127 880 CURVE SMOOTH",
"127 905 OFFCURVE",
"112 926 OFFCURVE",
"78 926 CURVE SMOOTH"
);
},
{
closed = 1;
nodes = (
"274 926 OFFCURVE",
"244 902 OFFCURVE",
"244 871 CURVE SMOOTH",
"244 842 OFFCURVE",
"268 825 OFFCURVE",
"292 825 CURVE SMOOTH",
"322 825 OFFCURVE",
"350 847 OFFCURVE",
"350 879 CURVE SMOOTH",
"350 905 OFFCURVE",
"335 926 OFFCURVE",
"302 926 CURVE SMOOTH"
);
}
);
width = 373;
},
{
layerId = "39185045-6A8C-415A-8312-7B8F11386A4C";
name = Regular;
paths = (
{
closed = 1;
nodes = (
"53 758 LINE",
"53 710 LINE",
"139 702 LINE",
"139 56 LINE",
"51 42 LINE",
"51 0 LINE",
"323 0 LINE",
"323 42 LINE",
"234 56 LINE",
"234 702 LINE",
"318 710 LINE",
"318 758 LINE"
);
},
{
closed = 1;
nodes = (
"44 938 OFFCURVE",
"6 907 OFFCURVE",
"6 866 CURVE SMOOTH",
"6 829 OFFCURVE",
"36 806 OFFCURVE",
"67 806 CURVE SMOOTH",
"104 806 OFFCURVE",
"141 834 OFFCURVE",
"141 877 CURVE SMOOTH",
"141 910 OFFCURVE",
"122 938 OFFCURVE",
"79 938 CURVE SMOOTH"
);
},
{
closed = 1;
nodes = (
"271 938 OFFCURVE",
"233 907 OFFCURVE",
"233 866 CURVE SMOOTH",
"233 829 OFFCURVE",
"263 806 OFFCURVE",
"295 806 CURVE SMOOTH",
"332 806 OFFCURVE",
"368 834 OFFCURVE",
"368 877 CURVE SMOOTH",
"368 910 OFFCURVE",
"349 938 OFFCURVE",
"306 938 CURVE SMOOTH"
);
}
);
width = 373;
},
{
layerId = "B26750D4-52C5-4F85-819B-BFB2F142DAD5";
name = Bold;
paths = (
{
closed = 1;
nodes = (
"27 758 LINE",
"27 678 LINE",
"119 667 LINE",
"119 88 LINE",
"27 68 LINE",
"27 0 LINE",
"387 0 LINE",
"387 68 LINE",
"295 89 LINE",
"295 666 LINE",
"382 678 LINE",
"382 758 LINE"
);
},
{
closed = 1;
nodes = (
"28 938 OFFCURVE",
"-23 905 OFFCURVE",
"-23 857 CURVE SMOOTH",
"-23 811 OFFCURVE",
"20 790 OFFCURVE",
"63 790 CURVE SMOOTH",
"115 790 OFFCURVE",
"167 821 OFFCURVE",
"167 869 CURVE SMOOTH",
"167 919 OFFCURVE",
"125 938 OFFCURVE",
"77 938 CURVE SMOOTH"
);
},
{
closed = 1;
nodes = (
"295 938 OFFCURVE",
"242 906 OFFCURVE",
"242 859 CURVE SMOOTH",
"242 816 OFFCURVE",
"283 791 OFFCURVE",
"331 791 CURVE SMOOTH",
"387 791 OFFCURVE",
"430 824 OFFCURVE",
"430 870 CURVE SMOOTH",
"430 918 OFFCURVE",
"394 938 OFFCURVE",
"343 938 CURVE SMOOTH"
);
}
);
width = 414;
}
);
unicode = 00CF;
},
{
glyphname = Idotaccent;
lastChange = "2014-11-13 17:08:49 +0000";
layers = (
{
components = (
{
name = I;
},
{
name = dotaccent.cap;
transform = "{1, 0, 0, 1, 59, 0}";
}
);
layerId = "E777F328-EA17-4AE7-9EBA-8002E537BA4F";
name = Light;
width = 373;
},
{
components = (
{
name = I;
},
{
name = dotaccent.cap;
transform = "{1, 0, 0, 1, 45, 0}";
}
);
layerId = "39185045-6A8C-415A-8312-7B8F11386A4C";
name = Regular;
width = 373;
},
{
background = {
paths = (
{
closed = 1;
nodes = (
"27 758 LINE",
"27 678 LINE",
"119 667 LINE",
"119 88 LINE",
"27 68 LINE",
"27 0 LINE",
"387 0 LINE",
"387 68 LINE",
"295 89 LINE",
"295 666 LINE",
"382 678 LINE",
"382 758 LINE"
);
},
{
closed = 1;
nodes = (
"28 938 OFFCURVE",
"-23 905 OFFCURVE",
"-23 857 CURVE SMOOTH",
"-23 811 OFFCURVE",
"20 790 OFFCURVE",
"63 790 CURVE SMOOTH",
"115 790 OFFCURVE",
"167 821 OFFCURVE",
"167 869 CURVE SMOOTH",
"167 919 OFFCURVE",
"125 938 OFFCURVE",
"77 938 CURVE SMOOTH"
);
},
{
closed = 1;
nodes = (
"295 938 OFFCURVE",
"242 906 OFFCURVE",
"242 859 CURVE SMOOTH",
"242 816 OFFCURVE",
"283 791 OFFCURVE",
"331 791 CURVE SMOOTH",
"387 791 OFFCURVE",
"430 824 OFFCURVE",
"430 870 CURVE SMOOTH",
"430 918 OFFCURVE",
"394 938 OFFCURVE",
"343 938 CURVE SMOOTH"
);
}
);
};
components = (
{
name = I;
},
{
name = dotaccent.cap;
transform = "{1, 0, 0, 1, 36, 0}";
}
);
layerId = "B26750D4-52C5-4F85-819B-BFB2F142DAD5";
name = Bold;
width = 414;
}
);
unicode = 0130;
},
{
glyphname = Igrave;
lastChange = "2014-11-13 17:09:26 +0000";
layers = (
{
layerId = "E777F328-EA17-4AE7-9EBA-8002E537BA4F";
name = Light;
paths = (
{
closed = 1;
nodes = (
"208 806 LINE",
"64 938 LINE",
"12 884 LINE",
"58 848 OFFCURVE",
"129 809 OFFCURVE",
"188 785 CURVE"
);
},
{
closed = 1;
nodes = (
"66 0 LINE",
"307 0 LINE",
"307 33 LINE",
"221 44 LINE",
"221 714 LINE",
"303 721 LINE",
"303 758 LINE",
"68 758 LINE",
"68 721 LINE",
"149 714 LINE",
"149 44 LINE",
"66 33 LINE"
);
}
);
width = 373;
},
{
layerId = "39185045-6A8C-415A-8312-7B8F11386A4C";
name = Regular;
paths = (
{
closed = 1;
nodes = (
"219 811 LINE",
"70 938 LINE",
"-1 865 LINE",
"60 826 OFFCURVE",
"132 795 OFFCURVE",
"193 785 CURVE"
);
},
{
closed = 1;
nodes = (
"51 0 LINE",
"323 0 LINE",
"323 42 LINE",
"234 56 LINE",
"234 702 LINE",
"318 710 LINE",
"318 758 LINE",
"53 758 LINE",
"53 710 LINE",
"139 702 LINE",
"139 56 LINE",
"51 42 LINE"
);
}
);
width = 373;
},
{
layerId = "B26750D4-52C5-4F85-819B-BFB2F142DAD5";
name = Bold;
paths = (
{
closed = 1;
nodes = (
"274 830 LINE",
"92 938 LINE",
"-2 844 LINE",
"41 809 OFFCURVE",
"190 776 OFFCURVE",
"225 778 CURVE"
);
},
{
closed = 1;
nodes = (
"27 0 LINE",
"387 0 LINE",
"387 68 LINE",
"295 89 LINE",
"295 666 LINE",
"382 678 LINE",
"382 758 LINE",
"27 758 LINE",
"27 678 LINE",
"119 667 LINE",
"119 88 LINE",
"27 68 LINE"
);
}
);
width = 414;
}
);
unicode = 00CC;
},
{
glyphname = Itilde;
lastChange = "2014-11-13 17:11:54 +0000";
layers = (
{
layerId = "E777F328-EA17-4AE7-9EBA-8002E537BA4F";
name = Light;
paths = (
{
closed = 1;
nodes = (
"18 831 LINE",
"39 855 OFFCURVE",
"73 879 OFFCURVE",
"111 879 CURVE SMOOTH",
"161 879 OFFCURVE",
"184 807 OFFCURVE",
"248 807 CURVE SMOOTH",
"300 807 OFFCURVE",
"351 844 OFFCURVE",
"375 885 CURVE",
"355 915 LINE",
"333 890 OFFCURVE",
"303 867 OFFCURVE",
"262 867 CURVE SMOOTH",
"212 867 OFFCURVE",
"189 938 OFFCURVE",
"126 938 CURVE SMOOTH",
"74 938 OFFCURVE",
"22 902 OFFCURVE",
"-3 859 CURVE"
);
},
{
closed = 1;
nodes = (
"66 0 LINE",
"307 0 LINE",
"307 33 LINE",
"221 44 LINE",
"221 714 LINE",
"303 721 LINE",
"303 758 LINE",
"68 758 LINE",
"68 721 LINE",
"149 714 LINE",
"149 44 LINE",
"66 33 LINE"
);
}
);
width = 373;
},
{
layerId = "39185045-6A8C-415A-8312-7B8F11386A4C";
name = Regular;
paths = (
{
closed = 1;
nodes = (
"19 819 LINE",
"39 838 OFFCURVE",
"76 860 OFFCURVE",
"109 860 CURVE SMOOTH",
"157 860 OFFCURVE",
"172 796 OFFCURVE",
"236 796 CURVE SMOOTH",
"288 796 OFFCURVE",
"347 834 OFFCURVE",
"372 880 CURVE",
"346 916 LINE",
"325 895 OFFCURVE",
"293 876 OFFCURVE",
"256 876 CURVE SMOOTH",
"208 876 OFFCURVE",
"192 938 OFFCURVE",
"129 938 CURVE SMOOTH",
"77 938 OFFCURVE",
"19 900 OFFCURVE",
"-6 854 CURVE"
);
},
{
closed = 1;
nodes = (
"51 0 LINE",
"323 0 LINE",
"323 42 LINE",
"234 56 LINE",
"234 702 LINE",
"318 710 LINE",
"318 758 LINE",
"53 758 LINE",
"53 710 LINE",
"139 702 LINE",
"139 56 LINE",
"51 42 LINE"
);
}
);
width = 373;
},
{
layerId = "B26750D4-52C5-4F85-819B-BFB2F142DAD5";
name = Bold;
paths = (
{
closed = 1;
nodes = (
"37 798 LINE",
"60 817 OFFCURVE",
"90 833 OFFCURVE",
"119 833 CURVE SMOOTH",
"163 833 OFFCURVE",
"201 783 OFFCURVE",
"266 783 CURVE SMOOTH",
"318 783 OFFCURVE",
"391 823 OFFCURVE",
"413 876 CURVE",
"369 923 LINE",
"348 904 OFFCURVE",
"323 889 OFFCURVE",
"288 889 CURVE SMOOTH",
"248 889 OFFCURVE",
"207 938 OFFCURVE",
"145 938 CURVE SMOOTH",
"96 938 OFFCURVE",
"13 888 OFFCURVE",
"-5 836 CURVE"
);
},
{
closed = 1;
nodes = (
"27 0 LINE SMOOTH",
"387 0 LINE SMOOTH",
"387 68 LINE SMOOTH",
"295 89 LINE SMOOTH",
"295 666 LINE SMOOTH",
"382 678 LINE SMOOTH",
"382 758 LINE SMOOTH",
"27 758 LINE SMOOTH",
"27 678 LINE SMOOTH",
"119 667 LINE SMOOTH",
"119 88 LINE SMOOTH",
"27 68 LINE SMOOTH"
);
}
);
width = 414;
}
);
unicode = 0128;
},
{
glyphname = J;
lastChange = "2014-11-13 17:12:04 +0000";
layers = (
{
layerId = "E777F328-EA17-4AE7-9EBA-8002E537BA4F";
name = Light;
paths = (
{
closed = 1;
nodes = (
"57 758 LINE",
"57 721 LINE",
"143 714 LINE",
"143 196 LINE SMOOTH",
"143 96 OFFCURVE",
"142 28 OFFCURVE",
"122 -29 CURVE",
"97 -92 OFFCURVE",
"38 -139 OFFCURVE",
"-42 -160 CURVE",
"-21 -189 LINE",
"79 -175 OFFCURVE",
"183 -100 OFFCURVE",
"207 17 CURVE SMOOTH",
"218 78 OFFCURVE",
"215 151 OFFCURVE",
"215 232 CURVE SMOOTH",
"215 714 LINE",
"303 721 LINE",
"303 758 LINE"
);
}
);
width = 352;
},
{
layerId = "39185045-6A8C-415A-8312-7B8F11386A4C";
name = Regular;
paths = (
{
closed = 1;
nodes = (
"58 758 LINE",
"58 710 LINE",
"139 702 LINE",
"139 196 LINE SMOOTH",
"139 96 OFFCURVE",
"136 28 OFFCURVE",
"116 -29 CURVE SMOOTH",
"91 -91 OFFCURVE",
"31 -132 OFFCURVE",
"-42 -156 CURVE",
"-17 -190 LINE",
"86 -175 OFFCURVE",
"199 -104 OFFCURVE",
"225 24 CURVE SMOOTH",
"237 91 OFFCURVE",
"234 176 OFFCURVE",
"234 269 CURVE SMOOTH",
"234 702 LINE",
"313 710 LINE",
"313 758 LINE"
);
}
);
width = 352;
},
{
background = {
paths = (
{
closed = 1;
nodes = (
"99 6 OFFCURVE",
"105 36 OFFCURVE",
"109 72 CURVE SMOOTH",
"112 107 OFFCURVE",
"113 148 OFFCURVE",
"113 198 CURVE SMOOTH",
"113 667 LINE",
"41 678 LINE",
"41 758 LINE",
"359 758 LINE",
"359 678 LINE",
"290 667 LINE",
"290 261 LINE SMOOTH",
"290 203 OFFCURVE",
"288 145 OFFCURVE",
"283 95 CURVE SMOOTH",
"278 45 OFFCURVE",
"270 3 OFFCURVE",
"260 -20 CURVE SMOOTH",
"243 -59 OFFCURVE",
"216 -91 OFFCURVE",
"185 -116 CURVE SMOOTH",
"153 -142 OFFCURVE",
"116 -160 OFFCURVE",
"80 -173 CURVE SMOOTH",
"44 -186 OFFCURVE",
"9 -193 OFFCURVE",
"-21 -193 CURVE",
"-55 -144 LINE",
"-23 -132 OFFCURVE",
"7 -117 OFFCURVE",
"31 -98 CURVE SMOOTH",
"56 -78 OFFCURVE",
"75 -54 OFFCURVE",
"89 -23 CURVE"
);
}
);
};
layerId = "B26750D4-52C5-4F85-819B-BFB2F142DAD5";
name = Bold;
paths = (
{
closed = 1;
nodes = (
"41 758 LINE",
"41 678 LINE",
"113 667 LINE",
"113 198 LINE SMOOTH",
"113 114 OFFCURVE",
"112 43 OFFCURVE",
"89 -23 CURVE",
"62 -84 OFFCURVE",
"13 -119 OFFCURVE",
"-55 -144 CURVE",
"-21 -193 LINE",
"74 -193 OFFCURVE",
"216 -128 OFFCURVE",
"260 -20 CURVE SMOOTH",
"282 35 OFFCURVE",
"290 150 OFFCURVE",
"290 261 CURVE SMOOTH",
"290 667 LINE",
"359 678 LINE",
"359 758 LINE"
);
}
);
width = 384;
}
);
unicode = 004A;
},
{
glyphname = Jcircumflex;
lastChange = "2014-11-13 17:12:22 +0000";
layers = (
{
layerId = "E777F328-EA17-4AE7-9EBA-8002E537BA4F";
name = Light;
paths = (
{
closed = 1;
nodes = (
"57 758 LINE",
"57 721 LINE",
"143 714 LINE",
"143 196 LINE SMOOTH",
"143 96 OFFCURVE",
"142 28 OFFCURVE",
"122 -29 CURVE",
"97 -92 OFFCURVE",
"38 -139 OFFCURVE",
"-42 -160 CURVE",
"-21 -189 LINE",
"79 -175 OFFCURVE",
"183 -100 OFFCURVE",
"207 17 CURVE SMOOTH",
"218 78 OFFCURVE",
"215 151 OFFCURVE",
"215 232 CURVE SMOOTH",
"215 714 LINE",
"303 721 LINE",
"303 758 LINE"
);
},
{
closed = 1;
nodes = (
"144 938 LINE",
"13 808 LINE",
"43 790 LINE",
"180 887 LINE",
"313 790 LINE",
"347 809 LINE",
"215 938 LINE"
);
}
);
width = 352;
},
{
layerId = "39185045-6A8C-415A-8312-7B8F11386A4C";
name = Regular;
paths = (
{
closed = 1;
nodes = (
"58 758 LINE",
"58 710 LINE",
"139 702 LINE",
"139 196 LINE SMOOTH",
"139 96 OFFCURVE",
"136 28 OFFCURVE",
"116 -29 CURVE SMOOTH",
"91 -91 OFFCURVE",
"31 -132 OFFCURVE",
"-42 -156 CURVE",
"-17 -190 LINE",
"86 -175 OFFCURVE",
"199 -104 OFFCURVE",
"225 24 CURVE SMOOTH",
"237 91 OFFCURVE",
"234 176 OFFCURVE",
"234 269 CURVE SMOOTH",
"234 702 LINE",
"313 710 LINE",
"313 758 LINE"
);
},
{
closed = 1;
nodes = (
"141 938 LINE",
"17 812 LINE",
"55 789 LINE",
"187 871 LINE",
"316 789 LINE",
"358 813 LINE",
"233 938 LINE"
);
}
);
width = 352;
},
{
layerId = "B26750D4-52C5-4F85-819B-BFB2F142DAD5";
name = Bold;
paths = (
{
closed = 1;
nodes = (
"41 758 LINE",
"41 678 LINE",
"113 667 LINE",
"113 198 LINE SMOOTH",
"113 114 OFFCURVE",
"112 43 OFFCURVE",
"89 -23 CURVE",
"62 -84 OFFCURVE",
"13 -119 OFFCURVE",
"-55 -144 CURVE",
"-21 -193 LINE",
"74 -193 OFFCURVE",
"216 -128 OFFCURVE",
"260 -20 CURVE SMOOTH",
"282 35 OFFCURVE",
"290 150 OFFCURVE",
"290 261 CURVE SMOOTH",
"290 667 LINE",
"359 678 LINE",
"359 758 LINE"
);
},
{
closed = 1;
nodes = (
"143 938 LINE",
"8 815 LINE",
"63 780 LINE",
"200 843 LINE",
"333 780 LINE",
"388 815 LINE",
"256 938 LINE"
);
}
);
width = 383;
}
);
unicode = 0134;
},
{
glyphname = K;
lastChange = "2014-11-13 17:14:49 +0000";
layers = (
{
layerId = "E777F328-EA17-4AE7-9EBA-8002E537BA4F";
name = Light;
paths = (
{
closed = 1;
nodes = (
"52 0 LINE",
"290 0 LINE",
"290 33 LINE",
"204 44 LINE",
"204 283 LINE",
"297 389 LINE",
"366 323 OFFCURVE",
"534 0 OFFCURVE",
"568 0 CURVE SMOOTH",
"696 0 LINE",
"696 33 LINE",
"622 47 LINE",
"588 47 OFFCURVE",
"400 373 OFFCURVE",
"339 437 CURVE",
"584 713 LINE",
"662 721 LINE",
"662 758 LINE",
"437 758 LINE",
"437 721 LINE",
"516 713 LINE",
"204 350 LINE",
"204 714 LINE",
"282 721 LINE",
"282 758 LINE",
"53 758 LINE",
"53 721 LINE",
"131 714 LINE",
"131 44 LINE",
"52 33 LINE"
);
}
);
width = 693;
},
{
layerId = "39185045-6A8C-415A-8312-7B8F11386A4C";
name = Regular;
paths = (
{
closed = 1;
nodes = (
"52 0 LINE",
"319 0 LINE",
"319 42 LINE",
"229 55 LINE",
"229 280 LINE",
"311 374 LINE",
"381 303 OFFCURVE",
"520 0 OFFCURVE",
"554 0 CURVE SMOOTH",
"705 0 LINE",
"705 42 LINE",
"626 60 LINE",
"593 60 OFFCURVE",
"431 365 OFFCURVE",
"366 438 CURVE",
"595 702 LINE",
"675 710 LINE",
"675 758 LINE",
"431 758 LINE",
"432 710 LINE",
"507 702 LINE",
"229 365 LINE",
"229 702 LINE",
"309 710 LINE",
"309 758 LINE",
"54 758 LINE",
"54 710 LINE",
"134 702 LINE",
"134 56 LINE",
"52 42 LINE"
);
}
);
width = 693;
},
{
background = {
paths = (
{
closed = 1;
nodes = (
"22 68 LINE",
"115 89 LINE",
"115 666 LINE",
"21 678 LINE",
"21 758 LINE",
"375 758 LINE",
"375 678 LINE",
"288 666 LINE",
"288 389 LINE",
"512 667 LINE",
"435 678 LINE",
"433 758 LINE",
"735 758 LINE",
"735 678 LINE",
"644 666 LINE",
"434 434 LINE",
"455 415 OFFCURVE",
"479 386 OFFCURVE",
"502 352 CURVE SMOOTH",
"526 318 OFFCURVE",
"550 280 OFFCURVE",
"574 243 CURVE SMOOTH",
"597 206 OFFCURVE",
"619 171 OFFCURVE",
"639 143 CURVE SMOOTH",
"659 115 OFFCURVE",
"677 94 OFFCURVE",
"691 86 CURVE",
"754 68 LINE",
"754 0 LINE",
"548 0 LINE SMOOTH",
"534 0 OFFCURVE",
"518 17 OFFCURVE",
"502 44 CURVE SMOOTH",
"486 71 OFFCURVE",
"469 107 OFFCURVE",
"452 145 CURVE SMOOTH",
"435 183 OFFCURVE",
"417 223 OFFCURVE",
"398 257 CURVE SMOOTH",
"380 291 OFFCURVE",
"361 319 OFFCURVE",
"343 334 CURVE",
"288 272 LINE",
"288 89 LINE",
"386 68 LINE",
"386 0 LINE",
"22 0 LINE"
);
}
);
};
layerId = "B26750D4-52C5-4F85-819B-BFB2F142DAD5";
name = Bold;
paths = (
{
closed = 1;
nodes = (
"22 0 LINE",
"386 0 LINE",
"386 68 LINE",
"288 89 LINE",
"288 272 LINE",
"343 334 LINE",
"428 256 OFFCURVE",
"490 2 OFFCURVE",
"548 0 CURVE",
"754 0 LINE",
"754 68 LINE",
"691 86 LINE",
"640 109 OFFCURVE",
"523 354 OFFCURVE",
"434 434 CURVE",
"644 666 LINE",
"735 678 LINE",
"735 758 LINE",
"433 758 LINE",
"435 678 LINE",
"512 667 LINE",
"288 389 LINE",
"288 666 LINE",
"375 678 LINE",
"375 758 LINE",
"21 758 LINE",
"21 678 LINE",
"115 666 LINE",
"115 89 LINE",
"22 68 LINE"
);
}
);
width = 750;
}
);
unicode = 004B;
},
{
glyphname = Kcommaaccent;
lastChange = "2014-11-13 17:15:34 +0000";
layers = (
{
background = {
paths = (
{
closed = 1;
nodes = (
"52 0 LINE",
"290 0 LINE",
"290 33 LINE",
"204 44 LINE",
"204 283 LINE",
"297 389 LINE",
"366 323 OFFCURVE",
"534 0 OFFCURVE",
"568 0 CURVE SMOOTH",
"696 0 LINE",
"696 33 LINE",
"622 47 LINE",
"588 47 OFFCURVE",
"400 373 OFFCURVE",
"339 437 CURVE",
"584 713 LINE",
"662 721 LINE",
"662 758 LINE",
"437 758 LINE",
"437 747 OFFCURVE",
"438 732 OFFCURVE",
"438 721 CURVE",
"516 713 LINE",
"204 350 LINE",
"204 714 LINE",
"282 721 LINE",
"282 758 LINE",
"53 758 LINE",
"53 721 LINE",
"131 714 LINE",
"131 44 LINE",
"52 33 LINE"
);
},
{
closed = 1;
nodes = (
"336 -73 LINE",
"336 -94 LINE",
"359 -94 OFFCURVE",
"395 -120 OFFCURVE",
"395 -163 CURVE SMOOTH",
"395 -212 OFFCURVE",
"375 -264 OFFCURVE",
"335 -281 CURVE",
"335 -294 LINE",
"356 -313 LINE",
"404 -296 OFFCURVE",
"471 -229 OFFCURVE",
"469 -147 CURVE",
"469 -101 OFFCURVE",
"435 -48 OFFCURVE",
"372 -36 CURVE"
);
}
);
};
components = (
{
name = K;
},
{
name = commaaccent;
transform = "{1, 0, 0, 1, 200, 0}";
}
);
layerId = "E777F328-EA17-4AE7-9EBA-8002E537BA4F";
name = Light;
width = 693;
},
{
background = {
paths = (
{
closed = 1;
nodes = (
"52 0 LINE",
"319 0 LINE",
"319 42 LINE",
"229 55 LINE",
"229 280 LINE",
"311 374 LINE",
"381 303 OFFCURVE",
"520 0 OFFCURVE",
"554 0 CURVE SMOOTH",
"705 0 LINE",
"705 42 LINE",
"626 60 LINE",
"593 60 OFFCURVE",
"431 365 OFFCURVE",
"366 438 CURVE",
"595 702 LINE",
"675 710 LINE",
"675 758 LINE",
"431 758 LINE",
"431 742 OFFCURVE",
"432 727 OFFCURVE",
"432 710 CURVE",
"507 702 LINE",
"229 365 LINE",
"229 702 LINE",
"309 710 LINE",
"309 758 LINE",
"54 758 LINE",
"54 710 LINE",
"134 702 LINE",
"134 56 LINE",
"52 42 LINE"
);
},
{
closed = 1;
nodes = (
"349 -71 LINE",
"349 -97 LINE",
"366 -97 OFFCURVE",
"398 -126 OFFCURVE",
"398 -164 CURVE SMOOTH",
"398 -207 OFFCURVE",
"386 -258 OFFCURVE",
"349 -275 CURVE",
"349 -288 LINE",
"376 -313 LINE",
"420 -301 OFFCURVE",
"499 -233 OFFCURVE",
"499 -144 CURVE SMOOTH",
"499 -96 OFFCURVE",
"466 -38 OFFCURVE",
"398 -20 CURVE"
);
}
);
};
components = (
{
name = K;
},
{
name = commaaccent;
transform = "{1, 0, 0, 1, 215, 0}";
}
);
layerId = "39185045-6A8C-415A-8312-7B8F11386A4C";
name = Regular;
width = 693;
},
{
background = {
paths = (
{
closed = 1;
nodes = (
"22 68 LINE",
"115 89 LINE",
"115 666 LINE",
"21 678 LINE",
"21 758 LINE",
"375 758 LINE",
"375 678 LINE",
"288 666 LINE",
"288 389 LINE",
"512 667 LINE",
"435 678 LINE",
"433 758 LINE",
"735 758 LINE",
"735 678 LINE",
"644 666 LINE",
"434 434 LINE",
"455 415 OFFCURVE",
"479 386 OFFCURVE",
"502 352 CURVE SMOOTH",
"526 318 OFFCURVE",
"550 280 OFFCURVE",
"574 243 CURVE SMOOTH",
"597 206 OFFCURVE",
"619 171 OFFCURVE",
"639 143 CURVE SMOOTH",
"659 115 OFFCURVE",
"677 94 OFFCURVE",
"691 86 CURVE",
"754 68 LINE",
"754 0 LINE",
"548 0 LINE SMOOTH",
"534 0 OFFCURVE",
"518 17 OFFCURVE",
"502 44 CURVE SMOOTH",
"486 71 OFFCURVE",
"469 107 OFFCURVE",
"452 145 CURVE SMOOTH",
"435 183 OFFCURVE",
"417 223 OFFCURVE",
"398 257 CURVE SMOOTH",
"380 291 OFFCURVE",
"361 319 OFFCURVE",
"343 334 CURVE",
"288 272 LINE",
"288 89 LINE",
"386 68 LINE",
"386 0 LINE",
"22 0 LINE"
);
},
{
closed = 1;
nodes = (
"360 -20 LINE",
"394 -20 OFFCURVE",
"426 -32 OFFCURVE",
"450 -56 CURVE SMOOTH",
"473 -80 OFFCURVE",
"488 -114 OFFCURVE",
"488 -157 CURVE SMOOTH",
"488 -185 OFFCURVE",
"479 -210 OFFCURVE",
"465 -231 CURVE SMOOTH",
"451 -253 OFFCURVE",
"432 -272 OFFCURVE",
"414 -286 CURVE SMOOTH",
"396 -299 OFFCURVE",
"377 -309 OFFCURVE",
"364 -313 CURVE",
"302 -288 LINE",
"302 -277 LINE",
"306 -273 OFFCURVE",
"311 -269 OFFCURVE",
"316 -264 CURVE SMOOTH",
"327 -255 OFFCURVE",
"337 -244 OFFCURVE",
"344 -229 CURVE SMOOTH",
"347 -221 OFFCURVE",
"349 -212 OFFCURVE",
"349 -202 CURVE SMOOTH",
"349 -185 OFFCURVE",
"342 -168 OFFCURVE",
"331 -156 CURVE SMOOTH",
"319 -145 OFFCURVE",
"304 -137 OFFCURVE",
"288 -137 CURVE",
"288 -99 LINE"
);
}
);
};
components = (
{
name = K;
},
{
name = commaaccent;
transform = "{1, 0, 0, 1, 213, 0}";
}
);
layerId = "B26750D4-52C5-4F85-819B-BFB2F142DAD5";
name = Bold;
width = 750;
}
);
unicode = 0136;
},
{
glyphname = L;
lastChange = "2014-11-13 17:15:44 +0000";
layers = (
{
layerId = "E777F328-EA17-4AE7-9EBA-8002E537BA4F";
name = Light;
paths = (
{
closed = 1;
nodes = (
"52 0 LINE",
"561 0 LINE",
"593 155 LINE",
"560 171 LINE",
"507 51 LINE",
"211 42 LINE",
"212 710 LINE",
"307 717 LINE",
"307 758 LINE",
"54 758 LINE",
"54 717 LINE",
"140 710 LINE",
"140 45 LINE",
"52 33 LINE"
);
}
);
width = 607;
},
{
layerId = "39185045-6A8C-415A-8312-7B8F11386A4C";
name = Regular;
paths = (
{
closed = 1;
nodes = (
"52 0 LINE",
"561 0 LINE",
"593 162 LINE",
"550 183 LINE",
"490 66 LINE",
"229 55 LINE",
"230 697 LINE",
"316 705 LINE",
"316 758 LINE",
"54 758 LINE",
"54 705 LINE",
"134 697 LINE",
"134 56 LINE",
"52 42 LINE"
);
}
);
width = 607;
},
{
layerId = "B26750D4-52C5-4F85-819B-BFB2F142DAD5";
name = Bold;
paths = (
{
closed = 1;
nodes = (
"45 0 LINE",
"588 0 LINE",
"622 187 LINE",
"547 214 LINE",
"466 99 LINE",
"290 80 LINE",
"290 657 LINE",
"379 668 LINE",
"379 758 LINE",
"48 758 LINE",
"48 668 LINE",
"115 658 LINE",
"115 87 LINE",
"45 68 LINE"
);
}
);
width = 631;
}
);
unicode = 004C;
},
{
glyphname = Lacute;
lastChange = "2014-11-13 17:16:56 +0000";
layers = (
{
background = {
paths = (
{
closed = 1;
nodes = (
"174 785 LINE",
"233 809 OFFCURVE",
"303 848 OFFCURVE",
"350 884 CURVE",
"298 938 LINE",
"153 806 LINE"
);
},
{
closed = 1;
nodes = (
"56 0 LINE",
"297 0 LINE",
"297 33 LINE",
"211 44 LINE",
"211 714 LINE",
"293 721 LINE",
"293 758 LINE",
"58 758 LINE",
"58 721 LINE",
"139 714 LINE",
"139 44 LINE",
"56 33 LINE"
);
}
);
};
components = (
{
name = L;
},
{
name = acute.cap;
transform = "{1, 0, 0, 1, -74, 0}";
}
);
layerId = "E777F328-EA17-4AE7-9EBA-8002E537BA4F";
name = Light;
width = 607;
},
{
background = {
paths = (
{
closed = 1;
nodes = (
"179 785 LINE",
"239 795 OFFCURVE",
"312 826 OFFCURVE",
"373 865 CURVE",
"302 938 LINE",
"153 811 LINE"
);
},
{
closed = 1;
nodes = (
"46 0 LINE",
"318 0 LINE",
"318 42 LINE",
"229 56 LINE",
"229 702 LINE",
"313 710 LINE",
"313 758 LINE",
"48 758 LINE",
"48 710 LINE",
"134 702 LINE",
"134 56 LINE",
"46 42 LINE"
);
}
);
};
components = (
{
name = L;
},
{
name = acute.cap;
transform = "{1, 0, 0, 1, -74, 0}";
}
);
layerId = "39185045-6A8C-415A-8312-7B8F11386A4C";
name = Regular;
width = 607;
},
{
background = {
paths = (
{
closed = 1;
nodes = (
"174 778 LINE",
"238 782 OFFCURVE",
"367 810 OFFCURVE",
"411 844 CURVE",
"317 938 LINE",
"125 830 LINE"
);
},
{
closed = 1;
nodes = (
"23 0 LINE",
"383 0 LINE",
"383 68 LINE",
"291 89 LINE",
"291 666 LINE",
"378 678 LINE",
"378 758 LINE",
"23 758 LINE",
"23 678 LINE",
"115 667 LINE",
"115 88 LINE",
"23 68 LINE"
);
}
);
};
components = (
{
name = L;
},
{
name = acute.cap;
transform = "{1, 0, 0, 1, 22, 0}";
}
);
layerId = "B26750D4-52C5-4F85-819B-BFB2F142DAD5";
name = Bold;
width = 631;
}
);
unicode = 0139;
},
{
glyphname = Ldot;
lastChange = "2014-11-13 17:18:36 +0000";
layers = (
{
layerId = "E777F328-EA17-4AE7-9EBA-8002E537BA4F";
name = Light;
paths = (
{
closed = 1;
nodes = (
"54 758 LINE",
"54 717 LINE",
"140 710 LINE",
"140 45 LINE",
"52 33 LINE",
"52 0 LINE",
"561 0 LINE",
"593 155 LINE",
"560 171 LINE",
"507 51 LINE",
"211 42 LINE",
"212 710 LINE",
"307 717 LINE",
"307 758 LINE"
);
},
{
closed = 1;
nodes = (
"576 461 OFFCURVE",
"547 444 OFFCURVE",
"543 417 CURVE SMOOTH",
"539 392 OFFCURVE",
"555 373 OFFCURVE",
"576 370 CURVE SMOOTH",
"601 366 OFFCURVE",
"628 383 OFFCURVE",
"632 411 CURVE SMOOTH",
"636 434 OFFCURVE",
"628 455 OFFCURVE",
"599 459 CURVE SMOOTH"
);
}
);
width = 680;
},
{
layerId = "39185045-6A8C-415A-8312-7B8F11386A4C";
name = Regular;
paths = (
{
closed = 1;
nodes = (
"54 758 LINE",
"54 705 LINE",
"134 697 LINE",
"134 56 LINE",
"52 42 LINE",
"52 0 LINE",
"561 0 LINE",
"593 162 LINE",
"550 183 LINE",
"490 66 LINE",
"229 55 LINE",
"230 697 LINE",
"316 705 LINE",
"316 758 LINE"
);
},
{
closed = 1;
nodes = (
"560 479 OFFCURVE",
"521 449 OFFCURVE",
"521 408 CURVE SMOOTH",
"521 370 OFFCURVE",
"551 348 OFFCURVE",
"583 348 CURVE SMOOTH",
"620 348 OFFCURVE",
"656 375 OFFCURVE",
"656 418 CURVE SMOOTH",
"656 452 OFFCURVE",
"637 479 OFFCURVE",
"594 479 CURVE SMOOTH"
);
}
);
width = 680;
},
{
background = {
paths = (
{
closed = 1;
nodes = (
"614 313 OFFCURVE",
"644 323 OFFCURVE",
"667 342 CURVE SMOOTH",
"690 361 OFFCURVE",
"704 387 OFFCURVE",
"704 420 CURVE SMOOTH",
"704 446 OFFCURVE",
"696 470 OFFCURVE",
"679 487 CURVE SMOOTH",
"663 504 OFFCURVE",
"637 515 OFFCURVE",
"603 515 CURVE SMOOTH",
"576 515 OFFCURVE",
"547 502 OFFCURVE",
"525 483 CURVE SMOOTH",
"502 463 OFFCURVE",
"486 435 OFFCURVE",
"486 404 CURVE SMOOTH",
"486 375 OFFCURVE",
"499 352 OFFCURVE",
"518 337 CURVE SMOOTH",
"536 321 OFFCURVE",
"561 313 OFFCURVE",
"585 313 CURVE SMOOTH"
);
}
);
};
layerId = "B26750D4-52C5-4F85-819B-BFB2F142DAD5";
name = Bold;
paths = (
{
closed = 1;
nodes = (
"48 758 LINE",
"48 668 LINE",
"115 658 LINE",
"115 87 LINE",
"45 68 LINE",
"45 0 LINE",
"588 0 LINE",
"622 187 LINE",
"547 214 LINE",
"466 99 LINE",
"290 80 LINE",
"290 657 LINE",
"379 668 LINE",
"379 758 LINE"
);
},
{
closed = 1;
nodes = (
"549 515 OFFCURVE",
"486 465 OFFCURVE",
"486 404 CURVE SMOOTH",
"486 351 OFFCURVE",
"532 313 OFFCURVE",
"585 313 CURVE SMOOTH",
"645 313 OFFCURVE",
"704 354 OFFCURVE",
"704 420 CURVE SMOOTH",
"704 477 OFFCURVE",
"667 515 OFFCURVE",
"603 515 CURVE SMOOTH"
);
}
);
width = 697;
}
);
unicode = 013F;
},
{
glyphname = Lslash;
lastChange = "2014-11-13 17:19:33 +0000";
layers = (
{
layerId = "E777F328-EA17-4AE7-9EBA-8002E537BA4F";
name = Light;
paths = (
{
closed = 1;
nodes = (
"54 758 LINE",
"54 717 LINE",
"140 710 LINE",
"140 343 LINE",
"43 303 LINE",
"43 275 LINE",
"43 266 OFFCURVE",
"43 258 OFFCURVE",
"43 249 CURVE",
"140 287 LINE",
"140 45 LINE",
"52 33 LINE",
"52 0 LINE",
"561 0 LINE",
"593 155 LINE",
"560 171 LINE",
"507 51 LINE",
"211 42 LINE",
"211 316 LINE",
"475 422 LINE",
"475 481 LINE",
"389 445 LINE",
"330 421 OFFCURVE",
"270 397 OFFCURVE",
"211 373 CURVE",
"212 710 LINE",
"307 717 LINE",
"307 758 LINE"
);
}
);
width = 607;
},
{
layerId = "39185045-6A8C-415A-8312-7B8F11386A4C";
name = Regular;
paths = (
{
closed = 1;
nodes = (
"54 758 LINE",
"54 705 LINE",
"134 697 LINE",
"134 348 LINE",
"47 313 LINE",
"47 277 LINE SMOOTH",
"47 267 OFFCURVE",
"47 255 OFFCURVE",
"47 242 CURVE",
"134 275 LINE",
"134 56 LINE",
"52 42 LINE",
"52 0 LINE",
"561 0 LINE",
"593 162 LINE",
"550 183 LINE",
"490 66 LINE",
"229 55 LINE",
"229 311 LINE",
"496 413 LINE",
"496 491 LINE",
"409 457 LINE SMOOTH",
"358 437 OFFCURVE",
"292 410 OFFCURVE",
"229 385 CURVE",
"230 697 LINE",
"316 705 LINE",
"316 758 LINE"
);
}
);
width = 607;
},
{
layerId = "B26750D4-52C5-4F85-819B-BFB2F142DAD5";
name = Bold;
paths = (
{
closed = 1;
nodes = (
"48 758 LINE",
"48 668 LINE",
"115 658 LINE",
"115 385 LINE",
"33 350 LINE",
"33 290 LINE SMOOTH",
"33 273 OFFCURVE",
"33 253 OFFCURVE",
"33 231 CURVE",
"115 264 LINE",
"115 87 LINE",
"45 68 LINE",
"45 0 LINE",
"588 0 LINE",
"622 187 LINE",
"547 214 LINE",
"466 99 LINE",
"290 80 LINE",
"290 334 LINE",
"492 415 LINE",
"492 548 LINE",
"366 494 LINE SMOOTH",
"342 483 OFFCURVE",
"316 472 OFFCURVE",
"290 461 CURVE",
"290 657 LINE",
"379 668 LINE",
"379 758 LINE"
);
}
);
width = 629;
}
);
unicode = 0141;
},
{
glyphname = M;
lastChange = "2014-11-13 17:19:57 +0000";
layers = (
{
layerId = "E777F328-EA17-4AE7-9EBA-8002E537BA4F";
name = Light;
paths = (
{
closed = 1;
nodes = (
"38 0 LINE",
"291 0 LINE",
"291 33 LINE",
"187 45 LINE",
"214 520 LINE",
"222 712 LINE",
"237 668 OFFCURVE",
"258 605 OFFCURVE",
"272 566 CURVE SMOOTH",
"475 -7 LINE",
"500 -7 LINE",
"710 619 LINE",
"736 712 LINE",
"743 546 LINE",
"786 44 LINE",
"692 33 LINE",
"692 0 LINE",
"949 0 LINE",
"949 33 LINE",
"854 44 LINE",
"796 710 LINE",
"893 718 LINE",
"893 758 LINE",
"704 758 LINE",
"519 184 LINE",
"497 115 LINE",
"477 183 LINE",
"281 758 LINE",
"80 758 LINE",
"80 718 LINE",
"178 710 LINE",
"128 44 LINE",
"38 33 LINE"
);
}
);
width = 965;
},
{
layerId = "39185045-6A8C-415A-8312-7B8F11386A4C";
name = Regular;
paths = (
{
closed = 1;
nodes = (
"38 0 LINE",
"291 0 LINE",
"291 42 LINE",
"198 56 LINE",
"222 520 LINE",
"226 687 LINE",
"244 633 OFFCURVE",
"261 580 OFFCURVE",
"280 527 CURVE SMOOTH",
"467 -7 LINE",
"500 -7 LINE",
"706 602 LINE",
"726 682 LINE",
"730 513 LINE",
"771 56 LINE",
"690 42 LINE",
"690 0 LINE",
"944 0 LINE",
"944 42 LINE",
"860 56 LINE",
"805 697 LINE",
"896 705 LINE",
"896 758 LINE",
"689 758 LINE",
"521 228 LINE",
"499 154 LINE",
"476 226 LINE",
"300 758 LINE",
"75 758 LINE",
"75 705 LINE",
"170 697 LINE",
"122 56 LINE",
"38 42 LINE"
);
}
);
width = 965;
},
{
layerId = "B26750D4-52C5-4F85-819B-BFB2F142DAD5";
name = Bold;
paths = (
{
closed = 1;
nodes = (
"30 0 LINE",
"324 0 LINE",
"324 68 LINE",
"234 90 LINE",
"249 522 LINE",
"250 658 LINE",
"270 597 OFFCURVE",
"289 536 OFFCURVE",
"309 475 CURVE",
"470 -9 LINE",
"534 -9 LINE",
"707 594 LINE",
"724 662 LINE",
"726 463 LINE",
"753 89 LINE",
"672 67 LINE",
"672 0 LINE",
"996 0 LINE",
"996 67 LINE",
"919 88 LINE",
"869 656 LINE",
"960 667 LINE",
"960 758 LINE",
"654 758 LINE",
"544 370 LINE",
"523 271 LINE",
"507 370 LINE",
"390 758 LINE",
"58 758 LINE",
"58 667 LINE",
"148 656 LINE",
"114 89 LINE",
"30 68 LINE"
);
}
);
width = 1006;
}
);
unicode = 004D;
},
{
glyphname = N;
lastChange = "2014-11-13 17:20:22 +0000";
layers = (
{
layerId = "E777F328-EA17-4AE7-9EBA-8002E537BA4F";
name = Light;
paths = (
{
closed = 1;
nodes = (
"551 758 LINE",
"551 718 LINE",
"636 710 LINE",
"636 63 LINE",
"564 195 LINE",
"213 758 LINE",
"54 758 LINE",
"54 717 LINE",
"137 710 LINE",
"137 44 LINE",
"51 33 LINE",
"51 0 LINE",
"291 0 LINE",
"291 33 LINE",
"190 44 LINE",
"190 191 OFFCURVE",
"191 529 OFFCURVE",
"191 680 CURVE",
"263 543 LINE",
"610 0 LINE",
"689 0 LINE",
"689 710 LINE",
"774 718 LINE",
"774 758 LINE"
);
}
);
width = 812;
},
{
layerId = "39185045-6A8C-415A-8312-7B8F11386A4C";
name = Regular;
paths = (
{
closed = 1;
nodes = (
"543 758 LINE",
"543 706 LINE",
"623 697 LINE",
"623 90 LINE",
"554 224 LINE",
"227 758 LINE",
"54 758 LINE",
"54 705 LINE",
"134 697 LINE",
"134 56 LINE",
"51 42 LINE",
"51 0 LINE",
"299 0 LINE",
"299 42 LINE",
"204 56 LINE",
"204 252 OFFCURVE",
"204 448 OFFCURVE",
"204 644 CURVE",
"271 508 LINE",
"593 0 LINE",
"693 0 LINE",
"693 697 LINE",
"774 706 LINE",
"774 758 LINE"
);
}
);
width = 812;
},
{
layerId = "B26750D4-52C5-4F85-819B-BFB2F142DAD5";
name = Bold;
paths = (
{
closed = 1;
nodes = (
"539 758 LINE",
"539 669 LINE",
"627 655 LINE",
"627 131 LINE",
"584 247 LINE",
"290 758 LINE",
"42 758 LINE",
"42 668 LINE",
"115 657 LINE",
"115 90 LINE",
"38 68 LINE",
"38 0 LINE",
"327 0 LINE",
"327 68 LINE",
"228 92 LINE",
"228 173 OFFCURVE",
"227 502 OFFCURVE",
"227 580 CURVE",
"280 448 LINE",
"546 0 LINE",
"738 0 LINE",
"738 658 LINE",
"805 669 LINE",
"805 758 LINE"
);
}
);
width = 833;
}
);
unicode = 004E;
},
{
glyphname = Nacute;
lastChange = "2014-11-13 17:21:09 +0000";
layers = (
{
background = {
paths = (
{
closed = 1;
nodes = (
"551 758 LINE",
"551 718 LINE",
"636 710 LINE",
"636 63 LINE",
"564 195 LINE",
"213 758 LINE",
"54 758 LINE",
"54 717 LINE",
"137 710 LINE",
"137 44 LINE",
"51 33 LINE",
"51 0 LINE",
"291 0 LINE",
"291 33 LINE",
"190 44 LINE",
"190 191 OFFCURVE",
"191 529 OFFCURVE",
"191 680 CURVE",
"263 543 LINE",
"610 0 LINE",
"689 0 LINE",
"689 710 LINE",
"774 718 LINE",
"774 758 LINE"
);
},
{
closed = 1;
nodes = (
"387 806 LINE",
"407 785 LINE",
"466 809 OFFCURVE",
"537 848 OFFCURVE",
"583 884 CURVE",
"531 938 LINE"
);
}
);
};
components = (
{
name = N;
},
{
name = acute.cap;
transform = "{1, 0, 0, 1, 160, 0}";
}
);
layerId = "E777F328-EA17-4AE7-9EBA-8002E537BA4F";
name = Light;
width = 812;
},
{
background = {
paths = (
{
closed = 1;
nodes = (
"543 758 LINE",
"543 706 LINE",
"623 697 LINE",
"623 90 LINE",
"554 224 LINE",
"227 758 LINE",
"54 758 LINE",
"54 705 LINE",
"134 697 LINE",
"134 56 LINE",
"51 42 LINE",
"51 0 LINE",
"299 0 LINE",
"299 42 LINE",
"204 56 LINE",
"204 252 OFFCURVE",
"204 448 OFFCURVE",
"204 644 CURVE",
"271 508 LINE",
"593 0 LINE",
"693 0 LINE",
"693 697 LINE",
"774 706 LINE",
"774 758 LINE"
);
},
{
closed = 1;
nodes = (
"375 811 LINE",
"401 785 LINE",
"462 795 OFFCURVE",
"535 826 OFFCURVE",
"596 865 CURVE",
"525 938 LINE"
);
}
);
};
components = (
{
name = N;
},
{
name = acute.cap;
transform = "{1, 0, 0, 1, 148, 0}";
}
);
layerId = "39185045-6A8C-415A-8312-7B8F11386A4C";
name = Regular;
width = 812;
},
{
background = {
paths = (
{
closed = 1;
nodes = (
"355 830 LINE",
"547 938 LINE",
"641 844 LINE",
"623 830 OFFCURVE",
"593 818 OFFCURVE",
"560 808 CURVE SMOOTH",
"528 798 OFFCURVE",
"492 791 OFFCURVE",
"464 785 CURVE SMOOTH",
"449 783 OFFCURVE",
"436 781 OFFCURVE",
"426 779 CURVE SMOOTH",
"415 778 OFFCURVE",
"408 777 OFFCURVE",
"404 778 CURVE"
);
},
{
closed = 1;
nodes = (
"38 68 LINE",
"114 90 LINE",
"114 657 LINE",
"41 668 LINE",
"41 758 LINE",
"290 758 LINE",
"584 247 LINE",
"627 131 LINE",
"627 655 LINE",
"539 669 LINE",
"539 758 LINE",
"804 758 LINE",
"804 669 LINE",
"737 658 LINE",
"737 0 LINE",
"546 0 LINE",
"280 448 LINE",
"227 580 LINE",
"227 498 OFFCURVE",
"227 417 OFFCURVE",
"227 335 CURVE SMOOTH",
"227 254 OFFCURVE",
"227 173 OFFCURVE",
"227 92 CURVE",
"326 68 LINE",
"326 0 LINE",
"38 0 LINE"
);
}
);
};
components = (
{
name = N;
},
{
name = acute.cap;
transform = "{1, 0, 0, 1, 252, 0}";
}
);
layerId = "B26750D4-52C5-4F85-819B-BFB2F142DAD5";
name = Bold;
width = 833;
}
);
unicode = 0143;
},
{
glyphname = Ntilde;
lastChange = "2014-11-13 17:23:15 +0000";
layers = (
{
background = {
paths = (
{
closed = 1;
nodes = (
"551 758 LINE",
"551 718 LINE",
"636 710 LINE",
"636 63 LINE",
"564 195 LINE",
"213 758 LINE",
"54 758 LINE",
"54 717 LINE",
"137 710 LINE",
"137 44 LINE",
"51 33 LINE",
"51 0 LINE",
"291 0 LINE",
"291 33 LINE",
"190 44 LINE",
"190 191 OFFCURVE",
"191 529 OFFCURVE",
"191 680 CURVE",
"263 543 LINE",
"610 0 LINE",
"689 0 LINE",
"689 710 LINE",
"774 718 LINE",
"774 758 LINE"
);
},
{
closed = 1;
nodes = (
"293 938 OFFCURVE",
"242 902 OFFCURVE",
"216 859 CURVE",
"237 831 LINE",
"258 855 OFFCURVE",
"292 879 OFFCURVE",
"331 879 CURVE SMOOTH",
"381 879 OFFCURVE",
"404 807 OFFCURVE",
"467 807 CURVE SMOOTH",
"520 807 OFFCURVE",
"570 844 OFFCURVE",
"595 885 CURVE",
"575 915 LINE",
"553 890 OFFCURVE",
"523 867 OFFCURVE",
"481 867 CURVE SMOOTH",
"432 867 OFFCURVE",
"409 938 OFFCURVE",
"346 938 CURVE SMOOTH"
);
}
);
};
components = (
{
name = N;
},
{
name = tilde.cap;
transform = "{1, 0, 0, 1, 149, 0}";
}
);
layerId = "E777F328-EA17-4AE7-9EBA-8002E537BA4F";
name = Light;
width = 812;
},
{
background = {
paths = (
{
closed = 1;
nodes = (
"543 758 LINE",
"543 706 LINE",
"623 697 LINE",
"623 90 LINE",
"554 224 LINE",
"227 758 LINE",
"54 758 LINE",
"54 705 LINE",
"134 697 LINE",
"134 56 LINE",
"51 42 LINE",
"51 0 LINE",
"299 0 LINE",
"299 42 LINE",
"204 56 LINE",
"204 252 OFFCURVE",
"204 448 OFFCURVE",
"204 644 CURVE",
"271 508 LINE",
"593 0 LINE",
"693 0 LINE",
"693 697 LINE",
"774 706 LINE",
"774 758 LINE"
);
},
{
closed = 1;
nodes = (
"295 938 OFFCURVE",
"236 900 OFFCURVE",
"211 854 CURVE",
"237 819 LINE",
"256 838 OFFCURVE",
"293 860 OFFCURVE",
"327 860 CURVE SMOOTH",
"375 860 OFFCURVE",
"390 796 OFFCURVE",
"454 796 CURVE SMOOTH",
"506 796 OFFCURVE",
"565 834 OFFCURVE",
"589 880 CURVE",
"564 916 LINE",
"543 895 OFFCURVE",
"511 876 OFFCURVE",
"474 876 CURVE SMOOTH",
"426 876 OFFCURVE",
"410 938 OFFCURVE",
"347 938 CURVE SMOOTH"
);
}
);
};
components = (
{
name = N;
},
{
name = tilde.cap;
transform = "{1, 0, 0, 1, 145, 0}";
}
);
layerId = "39185045-6A8C-415A-8312-7B8F11386A4C";
name = Regular;
width = 812;
},
{
background = {
paths = (
{
closed = 1;
nodes = (
"223 836 LINE",
"233 865 OFFCURVE",
"260 890 OFFCURVE",
"289 908 CURVE SMOOTH",
"319 926 OFFCURVE",
"350 938 OFFCURVE",
"373 938 CURVE SMOOTH",
"409 938 OFFCURVE",
"434 925 OFFCURVE",
"456 913 CURVE SMOOTH",
"478 901 OFFCURVE",
"495 889 OFFCURVE",
"516 889 CURVE SMOOTH",
"551 889 OFFCURVE",
"576 904 OFFCURVE",
"597 923 CURVE",
"641 876 LINE",
"630 847 OFFCURVE",
"605 824 OFFCURVE",
"576 808 CURVE SMOOTH",
"548 792 OFFCURVE",
"517 783 OFFCURVE",
"494 783 CURVE SMOOTH",
"459 783 OFFCURVE",
"432 795 OFFCURVE",
"410 808 CURVE SMOOTH",
"387 821 OFFCURVE",
"368 833 OFFCURVE",
"347 833 CURVE SMOOTH",
"318 833 OFFCURVE",
"288 817 OFFCURVE",
"265 798 CURVE"
);
},
{
closed = 1;
nodes = (
"40 68 LINE",
"116 90 LINE",
"116 657 LINE",
"43 668 LINE",
"43 758 LINE",
"292 758 LINE",
"586 247 LINE",
"629 131 LINE",
"629 655 LINE",
"541 669 LINE",
"541 758 LINE",
"806 758 LINE",
"806 669 LINE",
"739 658 LINE",
"739 0 LINE",
"548 0 LINE",
"282 448 LINE",
"229 580 LINE",
"229 498 OFFCURVE",
"229 417 OFFCURVE",
"229 335 CURVE SMOOTH",
"229 254 OFFCURVE",
"229 173 OFFCURVE",
"229 92 CURVE",
"328 68 LINE",
"328 0 LINE",
"40 0 LINE"
);
}
);
};
components = (
{
name = N;
},
{
name = tilde.cap;
transform = "{1, 0, 0, 1, 172, 0}";
}
);
layerId = "B26750D4-52C5-4F85-819B-BFB2F142DAD5";
name = Bold;
width = 833;
}
);
unicode = 00D1;
},
{
glyphname = O;
lastChange = "2014-11-13 17:26:13 +0000";
layers = (
{
background = {
paths = (
{
closed = 1;
nodes = (
"42 142 OFFCURVE",
"176 -18 OFFCURVE",
"379 -14 CURVE SMOOTH",
"562 -10 OFFCURVE",
"711 132 OFFCURVE",
"716 386 CURVE SMOOTH",
"720 609 OFFCURVE",
"592 769 OFFCURVE",
"393 765 CURVE SMOOTH",
"207 761 OFFCURVE",
"51 624 OFFCURVE",
"45 369 CURVE SMOOTH"
);
},
{
closed = 1;
nodes = (
"224 27 OFFCURVE",
"125 176 OFFCURVE",
"125 369 CURVE SMOOTH",
"125 595 OFFCURVE",
"234 724 OFFCURVE",
"385 724 CURVE SMOOTH",
"547 724 OFFCURVE",
"638 573 OFFCURVE",
"638 386 CURVE SMOOTH",
"638 165 OFFCURVE",
"536 27 OFFCURVE",
"386 27 CURVE SMOOTH"
);
}
);
};
layerId = "E777F328-EA17-4AE7-9EBA-8002E537BA4F";
name = Light;
paths = (
{
closed = 1;
nodes = (
"336 765 OFFCURVE",
"275 749 OFFCURVE",
"222 718 CURVE SMOOTH",
"120 657 OFFCURVE",
"49 539 OFFCURVE",
"45 369 CURVE SMOOTH",
"42 145 OFFCURVE",
"173 -14 OFFCURVE",
"372 -14 CURVE SMOOTH",
"560 -14 OFFCURVE",
"716 133 OFFCURVE",
"716 396 CURVE SMOOTH",
"716 611 OFFCURVE",
"592 765 OFFCURVE",
"400 765 CURVE SMOOTH"
);
},
{
closed = 1;
nodes = (
"547 724 OFFCURVE",
"638 573 OFFCURVE",
"638 386 CURVE SMOOTH",
"638 165 OFFCURVE",
"536 27 OFFCURVE",
"386 27 CURVE SMOOTH",
"224 27 OFFCURVE",
"125 176 OFFCURVE",
"125 369 CURVE SMOOTH",
"125 595 OFFCURVE",
"234 724 OFFCURVE",
"385 724 CURVE SMOOTH"
);
}
);
width = 759;
},
{
background = {
paths = (
{
closed = 1;
nodes = (
"44 367 CURVE SMOOTH",
"40 146 OFFCURVE",
"172 -18 OFFCURVE",
"378 -14 CURVE SMOOTH",
"564 -10 OFFCURVE",
"712 136 OFFCURVE",
"718 385 CURVE SMOOTH",
"722 606 OFFCURVE",
"596 771 OFFCURVE",
"393 765 CURVE SMOOTH",
"204 760 OFFCURVE",
"49 616 OFFCURVE"
);
},
{
closed = 1;
nodes = (
"386 38 CURVE SMOOTH",
"236 38 OFFCURVE",
"149 198 OFFCURVE",
"149 368 CURVE SMOOTH",
"149 585 OFFCURVE",
"241 713 OFFCURVE",
"384 713 CURVE SMOOTH",
"533 713 OFFCURVE",
"612 554 OFFCURVE",
"612 384 CURVE SMOOTH",
"612 167 OFFCURVE",
"529 38 OFFCURVE"
);
}
);
};
layerId = "39185045-6A8C-415A-8312-7B8F11386A4C";
name = Regular;
paths = (
{
closed = 1;
nodes = (
"354 765 OFFCURVE",
"294 756 OFFCURVE",
"233 723 CURVE SMOOTH",
"124 664 OFFCURVE",
"44 536 OFFCURVE",
"44 357 CURVE SMOOTH",
"44 144 OFFCURVE",
"172 -14 OFFCURVE",
"371 -14 CURVE SMOOTH",
"560 -14 OFFCURVE",
"712 133 OFFCURVE",
"718 385 CURVE SMOOTH",
"722 602 OFFCURVE",
"600 765 OFFCURVE",
"404 765 CURVE SMOOTH"
);
},
{
closed = 1;
nodes = (
"533 713 OFFCURVE",
"612 554 OFFCURVE",
"612 384 CURVE SMOOTH",
"612 167 OFFCURVE",
"529 38 OFFCURVE",
"386 38 CURVE SMOOTH",
"236 38 OFFCURVE",
"149 198 OFFCURVE",
"149 368 CURVE SMOOTH",
"149 585 OFFCURVE",
"241 713 OFFCURVE",
"384 713 CURVE SMOOTH"
);
}
);
width = 759;
},
{
background = {
paths = (
{
closed = 1;
nodes = (
"36 450 OFFCURVE",
"57 521 OFFCURVE",
"90 581 CURVE SMOOTH",
"124 639 OFFCURVE",
"171 686 OFFCURVE",
"225 717 CURVE SMOOTH",
"278 749 OFFCURVE",
"339 765 OFFCURVE",
"401 765 CURVE SMOOTH",
"507 765 OFFCURVE",
"596 725 OFFCURVE",
"657 657 CURVE SMOOTH",
"718 589 OFFCURVE",
"752 495 OFFCURVE",
"750 386 CURVE SMOOTH",
"748 263 OFFCURVE",
"708 163 OFFCURVE",
"645 94 CURVE SMOOTH",
"580 25 OFFCURVE",
"492 -14 OFFCURVE",
"391 -14 CURVE SMOOTH",
"280 -14 OFFCURVE",
"189 28 OFFCURVE",
"127 97 CURVE SMOOTH",
"65 165 OFFCURVE",
"32 261 OFFCURVE",
"34 368 CURVE SMOOTH"
);
},
{
closed = 1;
nodes = (
"460 64 OFFCURVE",
"501 91 OFFCURVE",
"526 145 CURVE SMOOTH",
"550 198 OFFCURVE",
"559 278 OFFCURVE",
"559 385 CURVE SMOOTH",
"559 428 OFFCURVE",
"554 475 OFFCURVE",
"543 520 CURVE SMOOTH",
"533 564 OFFCURVE",
"515 605 OFFCURVE",
"491 635 CURVE SMOOTH",
"467 665 OFFCURVE",
"436 685 OFFCURVE",
"396 685 CURVE SMOOTH",
"332 685 OFFCURVE",
"289 656 OFFCURVE",
"263 603 CURVE SMOOTH",
"236 550 OFFCURVE",
"226 471 OFFCURVE",
"226 369 CURVE SMOOTH",
"226 330 OFFCURVE",
"230 284 OFFCURVE",
"242 239 CURVE SMOOTH",
"253 194 OFFCURVE",
"271 150 OFFCURVE",
"297 118 CURVE SMOOTH",
"322 86 OFFCURVE",
"355 64 OFFCURVE",
"397 64 CURVE SMOOTH"
);
}
);
};
layerId = "B26750D4-52C5-4F85-819B-BFB2F142DAD5";
name = Bold;
paths = (
{
closed = 1;
nodes = (
"320 765 OFFCURVE",
"249 739 OFFCURVE",
"191 695 CURVE SMOOTH",
"96 624 OFFCURVE",
"38 505 OFFCURVE",
"34 368 CURVE SMOOTH",
"30 147 OFFCURVE",
"174 -14 OFFCURVE",
"391 -14 CURVE SMOOTH",
"607 -14 OFFCURVE",
"746 157 OFFCURVE",
"750 386 CURVE SMOOTH",
"754 603 OFFCURVE",
"615 765 OFFCURVE",
"401 765 CURVE SMOOTH"
);
},
{
closed = 1;
nodes = (
"491 685 OFFCURVE",
"559 563 OFFCURVE",
"559 385 CURVE SMOOTH",
"559 200 OFFCURVE",
"536 64 OFFCURVE",
"397 64 CURVE SMOOTH",
"284 64 OFFCURVE",
"226 226 OFFCURVE",
"226 369 CURVE SMOOTH",
"226 545 OFFCURVE",
"255 685 OFFCURVE",
"396 685 CURVE SMOOTH"
);
}
);
width = 781;
}
);
unicode = 004F;
},
{
glyphname = Oacute;
lastChange = "2014-11-13 16:23:45 +0000";
layers = (
{
layerId = "E777F328-EA17-4AE7-9EBA-8002E537BA4F";
name = Light;
paths = (
{
closed = 1;
nodes = (
"207 761 OFFCURVE",
"51 624 OFFCURVE",
"45 369 CURVE SMOOTH",
"42 142 OFFCURVE",
"176 -18 OFFCURVE",
"379 -14 CURVE SMOOTH",
"562 -10 OFFCURVE",
"711 132 OFFCURVE",
"716 386 CURVE SMOOTH",
"720 609 OFFCURVE",
"592 769 OFFCURVE",
"393 765 CURVE SMOOTH"
);
},
{
closed = 1;
nodes = (
"547 724 OFFCURVE",
"638 573 OFFCURVE",
"638 386 CURVE SMOOTH",
"638 165 OFFCURVE",
"536 27 OFFCURVE",
"386 27 CURVE SMOOTH",
"224 27 OFFCURVE",
"125 176 OFFCURVE",
"125 369 CURVE SMOOTH",
"125 595 OFFCURVE",
"234 724 OFFCURVE",
"385 724 CURVE SMOOTH"
);
},
{
closed = 1;
nodes = (
"365 806 LINE",
"386 785 LINE",
"445 809 OFFCURVE",
"516 848 OFFCURVE",
"562 884 CURVE",
"510 938 LINE"
);
}
);
width = 759;
},
{
layerId = "39185045-6A8C-415A-8312-7B8F11386A4C";
name = Regular;
paths = (
{
closed = 1;
nodes = (
"204 760 OFFCURVE",
"49 616 OFFCURVE",
"44 367 CURVE SMOOTH",
"40 146 OFFCURVE",
"172 -18 OFFCURVE",
"378 -14 CURVE SMOOTH",
"564 -10 OFFCURVE",
"712 136 OFFCURVE",
"718 385 CURVE SMOOTH",
"722 606 OFFCURVE",
"596 771 OFFCURVE",
"393 765 CURVE SMOOTH"
);
},
{
closed = 1;
nodes = (
"533 713 OFFCURVE",
"612 554 OFFCURVE",
"612 384 CURVE SMOOTH",
"612 167 OFFCURVE",
"529 38 OFFCURVE",
"386 38 CURVE SMOOTH",
"236 38 OFFCURVE",
"149 198 OFFCURVE",
"149 368 CURVE SMOOTH",
"149 585 OFFCURVE",
"241 713 OFFCURVE",
"384 713 CURVE SMOOTH"
);
},
{
closed = 1;
nodes = (
"355 811 LINE",
"381 785 LINE",
"442 795 OFFCURVE",
"515 826 OFFCURVE",
"576 865 CURVE",
"505 938 LINE"
);
}
);
width = 759;
},
{
layerId = "B26750D4-52C5-4F85-819B-BFB2F142DAD5";
name = Bold;
paths = (
{
closed = 1;
nodes = (
"193 765 OFFCURVE",
"41 591 OFFCURVE",
"34 368 CURVE SMOOTH",
"30 147 OFFCURVE",
"174 -14 OFFCURVE",
"391 -14 CURVE SMOOTH",
"607 -14 OFFCURVE",
"746 157 OFFCURVE",
"750 386 CURVE SMOOTH",
"754 603 OFFCURVE",
"615 765 OFFCURVE",
"401 765 CURVE SMOOTH"
);
},
{
closed = 1;
nodes = (
"491 685 OFFCURVE",
"559 563 OFFCURVE",
"559 385 CURVE SMOOTH",
"559 200 OFFCURVE",
"536 64 OFFCURVE",
"397 64 CURVE SMOOTH",
"284 64 OFFCURVE",
"226 226 OFFCURVE",
"226 369 CURVE SMOOTH",
"226 545 OFFCURVE",
"255 685 OFFCURVE",
"396 685 CURVE SMOOTH"
);
},
{
closed = 1;
nodes = (
"325 830 LINE",
"374 778 LINE",
"438 782 OFFCURVE",
"567 810 OFFCURVE",
"611 844 CURVE",
"517 938 LINE"
);
}
);
width = 781;
}
);
unicode = 00D3;
},
{
glyphname = Ocircumflex;
lastChange = "2014-11-13 16:25:56 +0000";
layers = (
{
layerId = "E777F328-EA17-4AE7-9EBA-8002E537BA4F";
name = Light;
paths = (
{
closed = 1;
nodes = (
"207 761 OFFCURVE",
"51 624 OFFCURVE",
"45 369 CURVE SMOOTH",
"42 142 OFFCURVE",
"176 -18 OFFCURVE",
"379 -14 CURVE SMOOTH",
"562 -10 OFFCURVE",
"711 132 OFFCURVE",
"716 386 CURVE SMOOTH",
"720 609 OFFCURVE",
"592 769 OFFCURVE",
"393 765 CURVE SMOOTH"
);
},
{
closed = 1;
nodes = (
"547 724 OFFCURVE",
"638 573 OFFCURVE",
"638 386 CURVE SMOOTH",
"638 165 OFFCURVE",
"536 27 OFFCURVE",
"386 27 CURVE SMOOTH",
"224 27 OFFCURVE",
"125 176 OFFCURVE",
"125 369 CURVE SMOOTH",
"125 595 OFFCURVE",
"234 724 OFFCURVE",
"385 724 CURVE SMOOTH"
);
},
{
closed = 1;
nodes = (
"353 938 LINE",
"222 808 LINE",
"252 790 LINE",
"388 887 LINE",
"521 790 LINE",
"556 809 LINE",
"424 938 LINE"
);
}
);
width = 759;
},
{
layerId = "39185045-6A8C-415A-8312-7B8F11386A4C";
name = Regular;
paths = (
{
closed = 1;
nodes = (
"204 760 OFFCURVE",
"49 616 OFFCURVE",
"44 367 CURVE SMOOTH",
"40 146 OFFCURVE",
"172 -18 OFFCURVE",
"378 -14 CURVE SMOOTH",
"564 -10 OFFCURVE",
"712 136 OFFCURVE",
"718 385 CURVE SMOOTH",
"722 606 OFFCURVE",
"596 771 OFFCURVE",
"393 765 CURVE SMOOTH"
);
},
{
closed = 1;
nodes = (
"533 713 OFFCURVE",
"612 554 OFFCURVE",
"612 384 CURVE SMOOTH",
"612 167 OFFCURVE",
"529 38 OFFCURVE",
"386 38 CURVE SMOOTH",
"236 38 OFFCURVE",
"149 198 OFFCURVE",
"149 368 CURVE SMOOTH",
"149 585 OFFCURVE",
"241 713 OFFCURVE",
"384 713 CURVE SMOOTH"
);
},
{
closed = 1;
nodes = (
"339 938 LINE",
"216 812 LINE",
"254 789 LINE",
"386 871 LINE",
"515 789 LINE",
"557 813 LINE",
"432 938 LINE"
);
}
);
width = 759;
},
{
layerId = "B26750D4-52C5-4F85-819B-BFB2F142DAD5";
name = Bold;
paths = (
{
closed = 1;
nodes = (
"193 765 OFFCURVE",
"41 591 OFFCURVE",
"34 368 CURVE SMOOTH",
"30 147 OFFCURVE",
"174 -14 OFFCURVE",
"391 -14 CURVE SMOOTH",
"607 -14 OFFCURVE",
"746 157 OFFCURVE",
"750 386 CURVE SMOOTH",
"754 603 OFFCURVE",
"615 765 OFFCURVE",
"401 765 CURVE SMOOTH"
);
},
{
closed = 1;
nodes = (
"491 685 OFFCURVE",
"559 563 OFFCURVE",
"559 385 CURVE SMOOTH",
"559 200 OFFCURVE",
"536 64 OFFCURVE",
"397 64 CURVE SMOOTH",
"284 64 OFFCURVE",
"226 226 OFFCURVE",
"226 369 CURVE SMOOTH",
"226 545 OFFCURVE",
"255 685 OFFCURVE",
"396 685 CURVE SMOOTH"
);
},
{
closed = 1;
nodes = (
"343 938 LINE",
"209 815 LINE",
"263 780 LINE",
"401 843 LINE",
"534 780 LINE",
"588 815 LINE",
"457 938 LINE"
);
}
);
width = 781;
}
);
unicode = 00D4;
},
{
glyphname = Odieresis;
lastChange = "2014-11-13 17:24:08 +0000";
layers = (
{
background = {
paths = (
{
closed = 1;
nodes = (
"207 761 OFFCURVE",
"51 624 OFFCURVE",
"45 369 CURVE SMOOTH",
"42 142 OFFCURVE",
"176 -18 OFFCURVE",
"379 -14 CURVE SMOOTH",
"562 -10 OFFCURVE",
"711 132 OFFCURVE",
"716 386 CURVE SMOOTH",
"720 609 OFFCURVE",
"592 769 OFFCURVE",
"393 765 CURVE SMOOTH"
);
},
{
closed = 1;
nodes = (
"547 724 OFFCURVE",
"638 573 OFFCURVE",
"638 386 CURVE SMOOTH",
"638 165 OFFCURVE",
"536 27 OFFCURVE",
"386 27 CURVE SMOOTH",
"224 27 OFFCURVE",
"125 176 OFFCURVE",
"125 369 CURVE SMOOTH",
"125 595 OFFCURVE",
"234 724 OFFCURVE",
"385 724 CURVE SMOOTH"
);
},
{
closed = 1;
nodes = (
"253 926 OFFCURVE",
"223 903 OFFCURVE",
"223 872 CURVE SMOOTH",
"223 843 OFFCURVE",
"246 825 OFFCURVE",
"271 825 CURVE SMOOTH",
"300 825 OFFCURVE",
"329 847 OFFCURVE",
"329 880 CURVE SMOOTH",
"329 905 OFFCURVE",
"313 926 OFFCURVE",
"280 926 CURVE SMOOTH"
);
},
{
closed = 1;
nodes = (
"476 926 OFFCURVE",
"446 902 OFFCURVE",
"446 871 CURVE SMOOTH",
"446 842 OFFCURVE",
"470 825 OFFCURVE",
"495 825 CURVE SMOOTH",
"523 825 OFFCURVE",
"552 847 OFFCURVE",
"552 879 CURVE SMOOTH",
"552 905 OFFCURVE",
"537 926 OFFCURVE",
"503 926 CURVE SMOOTH"
);
}
);
};
components = (
{
name = O;
},
{
name = dieresis.cap;
transform = "{1, 0, 0, 1, 145, 0}";
}
);
layerId = "E777F328-EA17-4AE7-9EBA-8002E537BA4F";
name = Light;
width = 759;
},
{
background = {
paths = (
{
closed = 1;
nodes = (
"204 760 OFFCURVE",
"49 616 OFFCURVE",
"44 367 CURVE SMOOTH",
"40 146 OFFCURVE",
"172 -18 OFFCURVE",
"378 -14 CURVE SMOOTH",
"564 -10 OFFCURVE",
"712 136 OFFCURVE",
"718 385 CURVE SMOOTH",
"722 606 OFFCURVE",
"596 771 OFFCURVE",
"393 765 CURVE SMOOTH"
);
},
{
closed = 1;
nodes = (
"533 713 OFFCURVE",
"612 554 OFFCURVE",
"612 384 CURVE SMOOTH",
"612 167 OFFCURVE",
"529 38 OFFCURVE",
"386 38 CURVE SMOOTH",
"236 38 OFFCURVE",
"149 198 OFFCURVE",
"149 368 CURVE SMOOTH",
"149 585 OFFCURVE",
"241 713 OFFCURVE",
"384 713 CURVE SMOOTH"
);
},
{
closed = 1;
nodes = (
"242 938 OFFCURVE",
"204 907 OFFCURVE",
"204 866 CURVE SMOOTH",
"204 829 OFFCURVE",
"233 806 OFFCURVE",
"265 806 CURVE SMOOTH",
"302 806 OFFCURVE",
"338 834 OFFCURVE",
"338 877 CURVE SMOOTH",
"338 910 OFFCURVE",
"319 938 OFFCURVE",
"276 938 CURVE SMOOTH"
);
},
{
closed = 1;
nodes = (
"469 938 OFFCURVE",
"431 907 OFFCURVE",
"431 866 CURVE SMOOTH",
"431 829 OFFCURVE",
"461 806 OFFCURVE",
"493 806 CURVE SMOOTH",
"529 806 OFFCURVE",
"566 834 OFFCURVE",
"566 877 CURVE SMOOTH",
"566 910 OFFCURVE",
"547 938 OFFCURVE",
"504 938 CURVE SMOOTH"
);
}
);
};
components = (
{
name = O;
},
{
name = dieresis.cap;
transform = "{1, 0, 0, 1, 126, 0}";
}
);
layerId = "39185045-6A8C-415A-8312-7B8F11386A4C";
name = Regular;
width = 759;
},
{
background = {
paths = (
{
closed = 1;
nodes = (
"503 791 OFFCURVE",
"482 796 OFFCURVE",
"465 808 CURVE SMOOTH",
"449 820 OFFCURVE",
"438 837 OFFCURVE",
"438 859 CURVE SMOOTH",
"438 882 OFFCURVE",
"451 901 OFFCURVE",
"470 916 CURVE SMOOTH",
"489 929 OFFCURVE",
"514 938 OFFCURVE",
"539 938 CURVE SMOOTH",
"571 938 OFFCURVE",
"593 930 OFFCURVE",
"606 918 CURVE SMOOTH",
"620 906 OFFCURVE",
"626 889 OFFCURVE",
"626 870 CURVE SMOOTH",
"626 845 OFFCURVE",
"614 826 OFFCURVE",
"596 812 CURVE SMOOTH",
"578 798 OFFCURVE",
"552 791 OFFCURVE",
"526 791 CURVE SMOOTH"
);
},
{
closed = 1;
nodes = (
"235 790 OFFCURVE",
"214 796 OFFCURVE",
"198 808 CURVE SMOOTH",
"182 819 OFFCURVE",
"172 836 OFFCURVE",
"172 857 CURVE SMOOTH",
"172 881 OFFCURVE",
"185 901 OFFCURVE",
"204 915 CURVE SMOOTH",
"223 929 OFFCURVE",
"247 938 OFFCURVE",
"272 938 CURVE SMOOTH",
"304 938 OFFCURVE",
"327 930 OFFCURVE",
"341 918 CURVE SMOOTH",
"356 906 OFFCURVE",
"362 889 OFFCURVE",
"362 869 CURVE SMOOTH",
"362 845 OFFCURVE",
"350 825 OFFCURVE",
"331 812 CURVE SMOOTH",
"312 798 OFFCURVE",
"286 790 OFFCURVE",
"259 790 CURVE SMOOTH"
);
},
{
closed = 1;
nodes = (
"36 450 OFFCURVE",
"57 521 OFFCURVE",
"90 581 CURVE SMOOTH",
"124 639 OFFCURVE",
"171 686 OFFCURVE",
"225 717 CURVE SMOOTH",
"278 749 OFFCURVE",
"339 765 OFFCURVE",
"401 765 CURVE SMOOTH",
"507 765 OFFCURVE",
"596 725 OFFCURVE",
"657 657 CURVE SMOOTH",
"718 589 OFFCURVE",
"752 495 OFFCURVE",
"750 386 CURVE SMOOTH",
"748 263 OFFCURVE",
"708 163 OFFCURVE",
"645 94 CURVE SMOOTH",
"580 25 OFFCURVE",
"492 -14 OFFCURVE",
"391 -14 CURVE SMOOTH",
"280 -14 OFFCURVE",
"189 28 OFFCURVE",
"127 97 CURVE SMOOTH",
"65 165 OFFCURVE",
"32 261 OFFCURVE",
"34 368 CURVE SMOOTH"
);
},
{
closed = 1;
nodes = (
"460 64 OFFCURVE",
"501 91 OFFCURVE",
"526 145 CURVE SMOOTH",
"550 198 OFFCURVE",
"559 278 OFFCURVE",
"559 385 CURVE SMOOTH",
"559 428 OFFCURVE",
"554 475 OFFCURVE",
"543 520 CURVE SMOOTH",
"533 564 OFFCURVE",
"515 605 OFFCURVE",
"491 635 CURVE SMOOTH",
"467 665 OFFCURVE",
"436 685 OFFCURVE",
"396 685 CURVE SMOOTH",
"332 685 OFFCURVE",
"289 656 OFFCURVE",
"263 603 CURVE SMOOTH",
"236 550 OFFCURVE",
"226 471 OFFCURVE",
"226 369 CURVE SMOOTH",
"226 330 OFFCURVE",
"230 284 OFFCURVE",
"242 239 CURVE SMOOTH",
"253 194 OFFCURVE",
"271 150 OFFCURVE",
"297 118 CURVE SMOOTH",
"322 86 OFFCURVE",
"355 64 OFFCURVE",
"397 64 CURVE SMOOTH"
);
}
);
};
components = (
{
name = O;
},
{
name = dieresis.cap;
transform = "{1, 0, 0, 1, 139, 0}";
}
);
layerId = "B26750D4-52C5-4F85-819B-BFB2F142DAD5";
name = Bold;
width = 781;
}
);
unicode = 00D6;
},
{
glyphname = Ograve;
lastChange = "2014-11-13 17:24:46 +0000";
layers = (
{
background = {
paths = (
{
closed = 1;
nodes = (
"207 761 OFFCURVE",
"51 624 OFFCURVE",
"45 369 CURVE SMOOTH",
"42 142 OFFCURVE",
"176 -18 OFFCURVE",
"379 -14 CURVE SMOOTH",
"562 -10 OFFCURVE",
"711 132 OFFCURVE",
"716 386 CURVE SMOOTH",
"720 609 OFFCURVE",
"592 769 OFFCURVE",
"393 765 CURVE SMOOTH"
);
},
{
closed = 1;
nodes = (
"547 724 OFFCURVE",
"638 573 OFFCURVE",
"638 386 CURVE SMOOTH",
"638 165 OFFCURVE",
"536 27 OFFCURVE",
"386 27 CURVE SMOOTH",
"224 27 OFFCURVE",
"125 176 OFFCURVE",
"125 369 CURVE SMOOTH",
"125 595 OFFCURVE",
"234 724 OFFCURVE",
"385 724 CURVE SMOOTH"
);
},
{
closed = 1;
nodes = (
"214 884 LINE",
"261 848 OFFCURVE",
"330 809 OFFCURVE",
"390 785 CURVE",
"411 806 LINE",
"266 938 LINE"
);
}
);
};
components = (
{
name = O;
},
{
name = grave.cap;
transform = "{1, 0, 0, 1, 143, 0}";
}
);
layerId = "E777F328-EA17-4AE7-9EBA-8002E537BA4F";
name = Light;
width = 759;
},
{
background = {
paths = (
{
closed = 1;
nodes = (
"204 760 OFFCURVE",
"49 616 OFFCURVE",
"44 367 CURVE SMOOTH",
"40 146 OFFCURVE",
"172 -18 OFFCURVE",
"378 -14 CURVE SMOOTH",
"564 -10 OFFCURVE",
"712 136 OFFCURVE",
"718 385 CURVE SMOOTH",
"722 606 OFFCURVE",
"596 771 OFFCURVE",
"393 765 CURVE SMOOTH"
);
},
{
closed = 1;
nodes = (
"533 713 OFFCURVE",
"612 554 OFFCURVE",
"612 384 CURVE SMOOTH",
"612 167 OFFCURVE",
"529 38 OFFCURVE",
"386 38 CURVE SMOOTH",
"236 38 OFFCURVE",
"149 198 OFFCURVE",
"149 368 CURVE SMOOTH",
"149 585 OFFCURVE",
"241 713 OFFCURVE",
"384 713 CURVE SMOOTH"
);
},
{
closed = 1;
nodes = (
"196 865 LINE",
"257 826 OFFCURVE",
"330 795 OFFCURVE",
"391 785 CURVE",
"417 811 LINE",
"268 938 LINE"
);
}
);
};
components = (
{
name = O;
},
{
name = grave.cap;
transform = "{1, 0, 0, 1, 125, 0}";
}
);
layerId = "39185045-6A8C-415A-8312-7B8F11386A4C";
name = Regular;
width = 759;
},
{
background = {
paths = (
{
closed = 1;
nodes = (
"287 938 LINE",
"469 830 LINE",
"420 778 LINE",
"417 777 OFFCURVE",
"410 778 OFFCURVE",
"399 779 CURVE SMOOTH",
"379 782 OFFCURVE",
"351 787 OFFCURVE",
"319 795 CURVE SMOOTH",
"287 802 OFFCURVE",
"255 813 OFFCURVE",
"228 825 CURVE SMOOTH",
"213 831 OFFCURVE",
"202 837 OFFCURVE",
"193 844 CURVE"
);
},
{
closed = 1;
nodes = (
"36 450 OFFCURVE",
"57 521 OFFCURVE",
"90 581 CURVE SMOOTH",
"124 639 OFFCURVE",
"171 686 OFFCURVE",
"225 717 CURVE SMOOTH",
"278 749 OFFCURVE",
"339 765 OFFCURVE",
"401 765 CURVE SMOOTH",
"507 765 OFFCURVE",
"596 725 OFFCURVE",
"657 657 CURVE SMOOTH",
"718 589 OFFCURVE",
"752 495 OFFCURVE",
"750 386 CURVE SMOOTH",
"748 263 OFFCURVE",
"708 163 OFFCURVE",
"645 94 CURVE SMOOTH",
"580 25 OFFCURVE",
"492 -14 OFFCURVE",
"391 -14 CURVE SMOOTH",
"280 -14 OFFCURVE",
"189 28 OFFCURVE",
"127 97 CURVE SMOOTH",
"65 165 OFFCURVE",
"32 261 OFFCURVE",
"34 368 CURVE SMOOTH"
);
},
{
closed = 1;
nodes = (
"460 64 OFFCURVE",
"501 91 OFFCURVE",
"526 145 CURVE SMOOTH",
"550 198 OFFCURVE",
"559 278 OFFCURVE",
"559 385 CURVE SMOOTH",
"559 428 OFFCURVE",
"554 475 OFFCURVE",
"543 520 CURVE SMOOTH",
"533 564 OFFCURVE",
"515 605 OFFCURVE",
"491 635 CURVE SMOOTH",
"467 665 OFFCURVE",
"436 685 OFFCURVE",
"396 685 CURVE SMOOTH",
"332 685 OFFCURVE",
"289 656 OFFCURVE",
"263 603 CURVE SMOOTH",
"236 550 OFFCURVE",
"226 471 OFFCURVE",
"226 369 CURVE SMOOTH",
"226 330 OFFCURVE",
"230 284 OFFCURVE",
"242 239 CURVE SMOOTH",
"253 194 OFFCURVE",
"271 150 OFFCURVE",
"297 118 CURVE SMOOTH",
"322 86 OFFCURVE",
"355 64 OFFCURVE",
"397 64 CURVE SMOOTH"
);
}
);
};
components = (
{
name = O;
},
{
name = grave.cap;
transform = "{1, 0, 0, 1, 140, 0}";
}
);
layerId = "B26750D4-52C5-4F85-819B-BFB2F142DAD5";
name = Bold;
width = 781;
}
);
unicode = 00D2;
},
{
glyphname = Ohungarumlaut;
lastChange = "2014-11-13 17:25:53 +0000";
layers = (
{
components = (
{
name = O;
},
{
name = hungarumlaut;
transform = "{1, 0, 0, 1, 180, 110}";
}
);
layerId = "E777F328-EA17-4AE7-9EBA-8002E537BA4F";
name = Light;
width = 759;
},
{
components = (
{
name = O;
},
{
name = hungarumlaut;
transform = "{1, 0, 0, 1, 140, 120}";
}
);
layerId = "39185045-6A8C-415A-8312-7B8F11386A4C";
name = Regular;
width = 759;
},
{
background = {
paths = (
{
closed = 1;
nodes = (
"193 765 OFFCURVE",
"41 591 OFFCURVE",
"34 368 CURVE SMOOTH",
"30 147 OFFCURVE",
"174 -14 OFFCURVE",
"391 -14 CURVE SMOOTH",
"607 -14 OFFCURVE",
"746 157 OFFCURVE",
"750 386 CURVE SMOOTH",
"754 603 OFFCURVE",
"615 765 OFFCURVE",
"401 765 CURVE SMOOTH"
);
},
{
closed = 1;
nodes = (
"491 685 OFFCURVE",
"559 563 OFFCURVE",
"559 385 CURVE SMOOTH",
"559 200 OFFCURVE",
"536 64 OFFCURVE",
"397 64 CURVE SMOOTH",
"284 64 OFFCURVE",
"226 226 OFFCURVE",
"226 369 CURVE SMOOTH",
"226 545 OFFCURVE",
"255 685 OFFCURVE",
"396 685 CURVE SMOOTH"
);
},
{
closed = 1;
nodes = (
"325 830 LINE",
"374 778 LINE",
"438 782 OFFCURVE",
"567 810 OFFCURVE",
"611 844 CURVE",
"517 938 LINE"
);
}
);
};
components = (
{
name = O;
},
{
name = hungarumlaut;
transform = "{1, 0, 0, 1, 190, 122}";
}
);
layerId = "B26750D4-52C5-4F85-819B-BFB2F142DAD5";
name = Bold;
width = 781;
}
);
unicode = 0150;
},
{
glyphname = Oslash;
lastChange = "2014-11-13 17:56:29 +0000";
layers = (
{
layerId = "E777F328-EA17-4AE7-9EBA-8002E537BA4F";
name = Light;
paths = (
{
closed = 1;
nodes = (
"217 -81 LINE",
"252 -94 LINE",
"283 -2 LINE",
"313 -10 OFFCURVE",
"346 -14 OFFCURVE",
"379 -14 CURVE SMOOTH",
"562 -10 OFFCURVE",
"711 132 OFFCURVE",
"716 386 CURVE SMOOTH",
"719 549 OFFCURVE",
"652 677 OFFCURVE",
"538 733 CURVE",
"565 812 LINE",
"532 825 LINE",
"505 748 LINE",
"470 759 OFFCURVE",
"433 765 OFFCURVE",
"393 765 CURVE SMOOTH",
"207 761 OFFCURVE",
"51 624 OFFCURVE",
"45 369 CURVE SMOOTH",
"42 195 OFFCURVE",
"121 61 OFFCURVE",
"248 9 CURVE"
);
},
{
closed = 1;
nodes = (
"267 59 LINE",
"177 113 OFFCURVE",
"125 229 OFFCURVE",
"125 369 CURVE SMOOTH",
"125 595 OFFCURVE",
"234 724 OFFCURVE",
"385 724 CURVE SMOOTH",
"424 724 OFFCURVE",
"458 715 OFFCURVE",
"487 700 CURVE"
);
},
{
closed = 1;
nodes = (
"519 681 LINE",
"596 624 OFFCURVE",
"638 512 OFFCURVE",
"638 386 CURVE SMOOTH",
"638 165 OFFCURVE",
"536 27 OFFCURVE",
"386 27 CURVE SMOOTH",
"355 27 OFFCURVE",
"327 32 OFFCURVE",
"301 42 CURVE"
);
}
);
width = 759;
},
{
layerId = "39185045-6A8C-415A-8312-7B8F11386A4C";
name = Regular;
paths = (
{
closed = 1;
nodes = (
"216 -81 LINE",
"259 -97 LINE",
"291 -5 LINE",
"318 -11 OFFCURVE",
"347 -14 OFFCURVE",
"378 -14 CURVE SMOOTH",
"564 -10 OFFCURVE",
"712 136 OFFCURVE",
"718 385 CURVE SMOOTH",
"720 542 OFFCURVE",
"657 672 OFFCURVE",
"546 731 CURVE",
"573 810 LINE",
"533 827 LINE",
"505 749 LINE",
"471 760 OFFCURVE",
"434 767 OFFCURVE",
"393 765 CURVE SMOOTH",
"204 760 OFFCURVE",
"49 616 OFFCURVE",
"44 367 CURVE SMOOTH",
"40 198 OFFCURVE",
"118 62 OFFCURVE",
"247 9 CURVE"
);
},
{
closed = 1;
nodes = (
"271 74 LINE",
"192 131 OFFCURVE",
"149 247 OFFCURVE",
"149 368 CURVE SMOOTH",
"149 585 OFFCURVE",
"241 713 OFFCURVE",
"384 713 CURVE SMOOTH",
"421 713 OFFCURVE",
"453 703 OFFCURVE",
"482 686 CURVE"
);
},
{
closed = 1;
nodes = (
"519 657 LINE",
"580 596 OFFCURVE",
"612 492 OFFCURVE",
"612 384 CURVE SMOOTH",
"612 167 OFFCURVE",
"529 38 OFFCURVE",
"386 38 CURVE SMOOTH",
"359 38 OFFCURVE",
"335 42 OFFCURVE",
"312 52 CURVE"
);
}
);
width = 759;
},
{
background = {
paths = (
{
closed = 1;
nodes = (
"320 765 OFFCURVE",
"249 739 OFFCURVE",
"191 695 CURVE SMOOTH",
"96 624 OFFCURVE",
"38 505 OFFCURVE",
"34 368 CURVE SMOOTH",
"30 147 OFFCURVE",
"174 -14 OFFCURVE",
"391 -14 CURVE SMOOTH",
"607 -14 OFFCURVE",
"746 157 OFFCURVE",
"750 386 CURVE SMOOTH",
"754 603 OFFCURVE",
"615 765 OFFCURVE",
"401 765 CURVE SMOOTH"
);
},
{
closed = 1;
nodes = (
"491 685 OFFCURVE",
"559 563 OFFCURVE",
"559 385 CURVE SMOOTH",
"559 200 OFFCURVE",
"536 64 OFFCURVE",
"397 64 CURVE SMOOTH",
"284 64 OFFCURVE",
"226 226 OFFCURVE",
"226 369 CURVE SMOOTH",
"226 545 OFFCURVE",
"255 685 OFFCURVE",
"396 685 CURVE SMOOTH"
);
}
);
};
layerId = "B26750D4-52C5-4F85-819B-BFB2F142DAD5";
name = Bold;
paths = (
{
closed = 1;
nodes = (
"186 -83 LINE",
"246 -104 LINE",
"290 -1 LINE",
"321 -9 OFFCURVE",
"355 -14 OFFCURVE",
"391 -14 CURVE SMOOTH",
"605 -14 OFFCURVE",
"746 155 OFFCURVE",
"750 386 CURVE SMOOTH",
"754 531 OFFCURVE",
"688 666 OFFCURVE",
"564 728 CURVE",
"592 805 LINE",
"529 826 LINE",
"503 751 LINE",
"472 761 OFFCURVE",
"438 765 OFFCURVE",
"401 765 CURVE SMOOTH",
"193 765 OFFCURVE",
"40 591 OFFCURVE",
"34 368 CURVE SMOOTH",
"30 217 OFFCURVE",
"98 85 OFFCURVE",
"229 21 CURVE"
);
},
{
closed = 1;
nodes = (
"281 141 LINE",
"245 201 OFFCURVE",
"226 294 OFFCURVE",
"226 369 CURVE SMOOTH",
"226 541 OFFCURVE",
"253 685 OFFCURVE",
"396 685 CURVE SMOOTH",
"422 685 OFFCURVE",
"443 677 OFFCURVE",
"462 663 CURVE"
);
},
{
closed = 1;
nodes = (
"512 604 LINE",
"543 544 OFFCURVE",
"559 464 OFFCURVE",
"559 385 CURVE SMOOTH",
"559 203 OFFCURVE",
"537 64 OFFCURVE",
"397 64 CURVE SMOOTH",
"372 64 OFFCURVE",
"350 72 OFFCURVE",
"331 85 CURVE"
);
}
);
width = 781;
}
);
unicode = 00D8;
},
{
glyphname = Otilde;
lastChange = "2014-11-13 17:57:22 +0000";
layers = (
{
background = {
paths = (
{
closed = 1;
nodes = (
"207 761 OFFCURVE",
"51 624 OFFCURVE",
"45 369 CURVE SMOOTH",
"42 142 OFFCURVE",
"176 -18 OFFCURVE",
"379 -14 CURVE SMOOTH",
"562 -10 OFFCURVE",
"711 132 OFFCURVE",
"716 386 CURVE SMOOTH",
"720 609 OFFCURVE",
"592 769 OFFCURVE",
"393 765 CURVE SMOOTH"
);
},
{
closed = 1;
nodes = (
"547 724 OFFCURVE",
"638 573 OFFCURVE",
"638 386 CURVE SMOOTH",
"638 165 OFFCURVE",
"536 27 OFFCURVE",
"386 27 CURVE SMOOTH",
"224 27 OFFCURVE",
"125 176 OFFCURVE",
"125 369 CURVE SMOOTH",
"125 595 OFFCURVE",
"234 724 OFFCURVE",
"385 724 CURVE SMOOTH"
);
},
{
closed = 1;
nodes = (
"272 938 OFFCURVE",
"220 902 OFFCURVE",
"195 859 CURVE",
"216 831 LINE",
"238 855 OFFCURVE",
"271 879 OFFCURVE",
"310 879 CURVE SMOOTH",
"360 879 OFFCURVE",
"383 807 OFFCURVE",
"446 807 CURVE SMOOTH",
"498 807 OFFCURVE",
"549 844 OFFCURVE",
"574 885 CURVE",
"554 915 LINE",
"531 890 OFFCURVE",
"501 867 OFFCURVE",
"460 867 CURVE SMOOTH",
"411 867 OFFCURVE",
"387 938 OFFCURVE",
"325 938 CURVE SMOOTH"
);
}
);
};
components = (
{
name = O;
},
{
name = tilde.cap;
transform = "{1, 0, 0, 1, 128, 0}";
}
);
layerId = "E777F328-EA17-4AE7-9EBA-8002E537BA4F";
name = Light;
width = 759;
},
{
background = {
paths = (
{
closed = 1;
nodes = (
"204 760 OFFCURVE",
"49 616 OFFCURVE",
"44 367 CURVE SMOOTH",
"40 146 OFFCURVE",
"172 -18 OFFCURVE",
"378 -14 CURVE SMOOTH",
"564 -10 OFFCURVE",
"712 136 OFFCURVE",
"718 385 CURVE SMOOTH",
"722 606 OFFCURVE",
"596 771 OFFCURVE",
"393 765 CURVE SMOOTH"
);
},
{
closed = 1;
nodes = (
"533 713 OFFCURVE",
"612 554 OFFCURVE",
"612 384 CURVE SMOOTH",
"612 167 OFFCURVE",
"529 38 OFFCURVE",
"386 38 CURVE SMOOTH",
"236 38 OFFCURVE",
"149 198 OFFCURVE",
"149 368 CURVE SMOOTH",
"149 585 OFFCURVE",
"241 713 OFFCURVE",
"384 713 CURVE SMOOTH"
);
},
{
closed = 1;
nodes = (
"275 938 OFFCURVE",
"216 900 OFFCURVE",
"191 854 CURVE",
"217 819 LINE",
"236 838 OFFCURVE",
"273 860 OFFCURVE",
"307 860 CURVE SMOOTH",
"355 860 OFFCURVE",
"370 796 OFFCURVE",
"434 796 CURVE SMOOTH",
"486 796 OFFCURVE",
"545 834 OFFCURVE",
"569 880 CURVE",
"544 916 LINE",
"523 895 OFFCURVE",
"491 876 OFFCURVE",
"454 876 CURVE SMOOTH",
"406 876 OFFCURVE",
"390 938 OFFCURVE",
"327 938 CURVE SMOOTH"
);
}
);
};
components = (
{
name = O;
},
{
name = tilde.cap;
transform = "{1, 0, 0, 1, 125, 0}";
}
);
layerId = "39185045-6A8C-415A-8312-7B8F11386A4C";
name = Regular;
width = 759;
},
{
background = {
paths = (
{
closed = 1;
nodes = (
"190 836 LINE",
"201 865 OFFCURVE",
"228 890 OFFCURVE",
"257 908 CURVE SMOOTH",
"286 926 OFFCURVE",
"318 938 OFFCURVE",
"341 938 CURVE SMOOTH",
"376 938 OFFCURVE",
"402 925 OFFCURVE",
"424 913 CURVE SMOOTH",
"445 901 OFFCURVE",
"463 889 OFFCURVE",
"484 889 CURVE SMOOTH",
"519 889 OFFCURVE",
"543 904 OFFCURVE",
"565 923 CURVE",
"608 876 LINE",
"597 847 OFFCURVE",
"572 824 OFFCURVE",
"544 808 CURVE SMOOTH",
"516 792 OFFCURVE",
"484 783 OFFCURVE",
"461 783 CURVE SMOOTH",
"426 783 OFFCURVE",
"400 795 OFFCURVE",
"377 808 CURVE SMOOTH",
"355 821 OFFCURVE",
"336 833 OFFCURVE",
"315 833 CURVE SMOOTH",
"286 833 OFFCURVE",
"256 817 OFFCURVE",
"233 798 CURVE"
);
},
{
closed = 1;
nodes = (
"36 450 OFFCURVE",
"57 521 OFFCURVE",
"90 581 CURVE SMOOTH",
"124 639 OFFCURVE",
"171 686 OFFCURVE",
"225 717 CURVE SMOOTH",
"278 749 OFFCURVE",
"339 765 OFFCURVE",
"401 765 CURVE SMOOTH",
"507 765 OFFCURVE",
"596 725 OFFCURVE",
"657 657 CURVE SMOOTH",
"718 589 OFFCURVE",
"752 495 OFFCURVE",
"750 386 CURVE SMOOTH",
"748 263 OFFCURVE",
"708 163 OFFCURVE",
"645 94 CURVE SMOOTH",
"580 25 OFFCURVE",
"492 -14 OFFCURVE",
"391 -14 CURVE SMOOTH",
"280 -14 OFFCURVE",
"189 28 OFFCURVE",
"127 97 CURVE SMOOTH",
"65 165 OFFCURVE",
"32 261 OFFCURVE",
"34 368 CURVE SMOOTH"
);
},
{
closed = 1;
nodes = (
"460 64 OFFCURVE",
"501 91 OFFCURVE",
"526 145 CURVE SMOOTH",
"550 198 OFFCURVE",
"559 278 OFFCURVE",
"559 385 CURVE SMOOTH",
"559 428 OFFCURVE",
"554 475 OFFCURVE",
"543 520 CURVE SMOOTH",
"533 564 OFFCURVE",
"515 605 OFFCURVE",
"491 635 CURVE SMOOTH",
"467 665 OFFCURVE",
"436 685 OFFCURVE",
"396 685 CURVE SMOOTH",
"332 685 OFFCURVE",
"289 656 OFFCURVE",
"263 603 CURVE SMOOTH",
"236 550 OFFCURVE",
"226 471 OFFCURVE",
"226 369 CURVE SMOOTH",
"226 330 OFFCURVE",
"230 284 OFFCURVE",
"242 239 CURVE SMOOTH",
"253 194 OFFCURVE",
"271 150 OFFCURVE",
"297 118 CURVE SMOOTH",
"322 86 OFFCURVE",
"355 64 OFFCURVE",
"397 64 CURVE SMOOTH"
);
}
);
};
components = (
{
name = O;
},
{
name = tilde.cap;
transform = "{1, 0, 0, 1, 139, 0}";
}
);
layerId = "B26750D4-52C5-4F85-819B-BFB2F142DAD5";
name = Bold;
width = 781;
}
);
unicode = 00D5;
},
{
glyphname = OE;
lastChange = "2014-11-13 17:58:07 +0000";
layers = (
{
layerId = "E777F328-EA17-4AE7-9EBA-8002E537BA4F";
name = Light;
paths = (
{
closed = 1;
nodes = (
"204 761 OFFCURVE",
"51 619 OFFCURVE",
"45 371 CURVE SMOOTH",
"42 143 OFFCURVE",
"176 -16 OFFCURVE",
"378 -14 CURVE SMOOTH",
"414 -13 OFFCURVE",
"446 -8 OFFCURVE",
"476 0 CURVE",
"962 0 LINE",
"984 154 LINE",
"948 163 LINE",
"903 49 LINE",
"595 41 LINE",
"595 383 LINE",
"792 380 LINE",
"806 298 LINE",
"844 298 LINE",
"844 505 LINE",
"806 505 LINE",
"792 427 LINE",
"595 423 LINE",
"595 719 LINE",
"884 713 LINE",
"907 619 LINE",
"948 619 LINE",
"934 758 LINE",
"472 758 LINE",
"447 763 OFFCURVE",
"422 765 OFFCURVE",
"393 765 CURVE SMOOTH"
);
},
{
closed = 1;
nodes = (
"442 724 OFFCURVE",
"488 701 OFFCURVE",
"523 664 CURVE",
"523 82 LINE",
"488 45 OFFCURVE",
"443 26 OFFCURVE",
"386 26 CURVE SMOOTH",
"224 26 OFFCURVE",
"125 178 OFFCURVE",
"125 371 CURVE SMOOTH",
"125 591 OFFCURVE",
"231 724 OFFCURVE",
"385 724 CURVE SMOOTH"
);
}
);
width = 1015;
},
{
layerId = "39185045-6A8C-415A-8312-7B8F11386A4C";
name = Regular;
paths = (
{
closed = 1;
nodes = (
"204 760 OFFCURVE",
"49 616 OFFCURVE",
"44 367 CURVE SMOOTH",
"40 146 OFFCURVE",
"172 -18 OFFCURVE",
"378 -14 CURVE SMOOTH",
"409 -12 OFFCURVE",
"438 -8 OFFCURVE",
"467 0 CURVE",
"959 0 LINE",
"981 151 LINE",
"934 163 LINE",
"885 62 LINE",
"611 53 LINE",
"611 371 LINE",
"791 368 LINE",
"806 293 LINE",
"855 293 LINE",
"855 503 LINE",
"806 503 LINE",
"791 427 LINE",
"611 423 LINE",
"611 707 LINE",
"869 701 LINE",
"892 619 LINE",
"945 619 LINE",
"931 758 LINE",
"469 758 LINE",
"444 763 OFFCURVE",
"419 766 OFFCURVE",
"393 765 CURVE SMOOTH"
);
},
{
closed = 1;
nodes = (
"438 713 OFFCURVE",
"481 693 OFFCURVE",
"517 659 CURVE",
"517 86 LINE",
"481 55 OFFCURVE",
"438 38 OFFCURVE",
"386 38 CURVE SMOOTH",
"236 38 OFFCURVE",
"149 198 OFFCURVE",
"149 368 CURVE SMOOTH",
"149 585 OFFCURVE",
"241 713 OFFCURVE",
"384 713 CURVE SMOOTH"
);
}
);
width = 1010;
},
{
layerId = "B26750D4-52C5-4F85-819B-BFB2F142DAD5";
name = Bold;
paths = (
{
closed = 1;
nodes = (
"193 765 OFFCURVE",
"40 591 OFFCURVE",
"34 368 CURVE SMOOTH",
"30 147 OFFCURVE",
"174 -14 OFFCURVE",
"391 -14 CURVE SMOOTH",
"426 -14 OFFCURVE",
"459 -9 OFFCURVE",
"491 0 CURVE",
"1039 0 LINE",
"1065 170 LINE",
"978 188 LINE",
"916 92 LINE",
"693 78 LINE",
"693 341 LINE",
"820 338 LINE",
"842 260 LINE",
"920 260 LINE",
"920 499 LINE",
"842 499 LINE",
"820 427 LINE",
"693 422 LINE",
"693 680 LINE",
"874 669 LINE",
"919 591 LINE",
"1005 591 LINE",
"990 758 LINE",
"475 758 LINE",
"451 763 OFFCURVE",
"426 765 OFFCURVE",
"401 765 CURVE SMOOTH"
);
},
{
closed = 1;
nodes = (
"454 685 OFFCURVE",
"491 646 OFFCURVE",
"520 589 CURVE",
"520 132 LINE",
"494 87 OFFCURVE",
"456 64 OFFCURVE",
"397 64 CURVE SMOOTH",
"283 64 OFFCURVE",
"226 226 OFFCURVE",
"226 369 CURVE SMOOTH",
"226 541 OFFCURVE",
"253 685 OFFCURVE",
"396 685 CURVE SMOOTH"
);
}
);
width = 1085;
}
);
unicode = 0152;
},
{
glyphname = P;
lastChange = "2014-11-13 18:00:21 +0000";
layers = (
{
layerId = "E777F328-EA17-4AE7-9EBA-8002E537BA4F";
name = Light;
paths = (
{
closed = 1;
nodes = (
"42 0 LINE",
"347 0 LINE",
"347 33 LINE",
"212 45 LINE",
"212 289 LINE",
"233 291 OFFCURVE",
"267 290 OFFCURVE",
"321 290 CURVE SMOOTH",
"464 289 OFFCURVE",
"604 378 OFFCURVE",
"604 537 CURVE SMOOTH",
"604 712 OFFCURVE",
"499 765 OFFCURVE",
"349 765 CURVE SMOOTH",
"284 765 OFFCURVE",
"214 758 OFFCURVE",
"175 758 CURVE SMOOTH",
"53 758 LINE",
"53 717 LINE",
"140 710 LINE",
"140 45 LINE",
"42 33 LINE"
);
},
{
closed = 1;
nodes = (
"212 713 LINE",
"241 721 OFFCURVE",
"288 721 OFFCURVE",
"319 723 CURVE SMOOTH",
"462 727 OFFCURVE",
"531 664 OFFCURVE",
"531 536 CURVE SMOOTH",
"531 383 OFFCURVE",
"437 331 OFFCURVE",
"319 329 CURVE SMOOTH",
"289 329 OFFCURVE",
"249 329 OFFCURVE",
"212 334 CURVE"
);
}
);
width = 633;
},
{
layerId = "39185045-6A8C-415A-8312-7B8F11386A4C";
name = Regular;
paths = (
{
closed = 1;
nodes = (
"42 0 LINE",
"360 0 LINE",
"360 42 LINE",
"229 56 LINE",
"229 288 LINE",
"250 292 OFFCURVE",
"279 292 OFFCURVE",
"328 291 CURVE SMOOTH",
"471 287 OFFCURVE",
"611 380 OFFCURVE",
"611 539 CURVE SMOOTH",
"611 714 OFFCURVE",
"506 765 OFFCURVE",
"356 765 CURVE SMOOTH",
"292 765 OFFCURVE",
"213 758 OFFCURVE",
"182 758 CURVE SMOOTH",
"54 758 LINE",
"54 705 LINE",
"134 697 LINE",
"134 56 LINE",
"42 42 LINE"
);
},
{
closed = 1;
nodes = (
"229 701 LINE",
"259 708 OFFCURVE",
"287 709 OFFCURVE",
"319 711 CURVE SMOOTH",
"444 715 OFFCURVE",
"514 657 OFFCURVE",
"514 537 CURVE SMOOTH",
"514 372 OFFCURVE",
"421 340 OFFCURVE",
"327 340 CURVE SMOOTH",
"297 340 OFFCURVE",
"267 340 OFFCURVE",
"229 346 CURVE"
);
}
);
width = 633;
},
{
background = {
paths = (
{
closed = 1;
nodes = (
"406 0 LINE",
"406 68 LINE",
"287 89 LINE",
"287 295 LINE",
"297 294 OFFCURVE",
"309 294 OFFCURVE",
"323 294 CURVE SMOOTH",
"337 294 OFFCURVE",
"354 294 OFFCURVE",
"373 294 CURVE SMOOTH",
"455 294 OFFCURVE",
"529 316 OFFCURVE",
"582 358 CURVE SMOOTH",
"634 400 OFFCURVE",
"667 462 OFFCURVE",
"667 543 CURVE SMOOTH",
"667 634 OFFCURVE",
"633 689 OFFCURVE",
"579 722 CURVE SMOOTH",
"525 755 OFFCURVE",
"452 765 OFFCURVE",
"373 765 CURVE SMOOTH",
"338 765 OFFCURVE",
"309 764 OFFCURVE",
"282 762 CURVE SMOOTH",
"254 760 OFFCURVE",
"229 758 OFFCURVE",
"206 758 CURVE SMOOTH",
"31 758 LINE",
"31 674 LINE",
"115 657 LINE",
"115 89 LINE",
"29 68 LINE",
"29 0 LINE"
);
},
{
closed = 1;
nodes = (
"357 377 OFFCURVE",
"342 377 OFFCURVE",
"327 378 CURVE SMOOTH",
"312 378 OFFCURVE",
"296 380 OFFCURVE",
"287 382 CURVE",
"287 679 LINE",
"291 681 OFFCURVE",
"303 683 OFFCURVE",
"316 684 CURVE SMOOTH",
"330 685 OFFCURVE",
"344 686 OFFCURVE",
"352 686 CURVE SMOOTH",
"393 685 OFFCURVE",
"428 674 OFFCURVE",
"454 653 CURVE SMOOTH",
"480 631 OFFCURVE",
"496 598 OFFCURVE",
"496 552 CURVE SMOOTH",
"496 486 OFFCURVE",
"481 442 OFFCURVE",
"458 415 CURVE SMOOTH",
"435 388 OFFCURVE",
"403 377 OFFCURVE",
"369 377 CURVE SMOOTH"
);
}
);
};
layerId = "B26750D4-52C5-4F85-819B-BFB2F142DAD5";
name = Bold;
paths = (
{
closed = 1;
nodes = (
"29 0 LINE",
"406 0 LINE",
"406 68 LINE",
"287 89 LINE",
"287 295 LINE",
"315 294 OFFCURVE",
"336 294 OFFCURVE",
"373 294 CURVE SMOOTH",
"541 294 OFFCURVE",
"667 384 OFFCURVE",
"667 543 CURVE SMOOTH",
"667 709 OFFCURVE",
"554 765 OFFCURVE",
"373 765 CURVE SMOOTH",
"306 765 OFFCURVE",
"257 758 OFFCURVE",
"206 758 CURVE SMOOTH",
"31 758 LINE",
"31 674 LINE",
"115 657 LINE",
"115 89 LINE",
"29 68 LINE"
);
},
{
closed = 1;
nodes = (
"287 679 LINE",
"294 682 OFFCURVE",
"324 686 OFFCURVE",
"352 686 CURVE SMOOTH",
"435 686 OFFCURVE",
"496 640 OFFCURVE",
"496 552 CURVE SMOOTH",
"496 452 OFFCURVE",
"460 377 OFFCURVE",
"369 377 CURVE SMOOTH",
"348 377 OFFCURVE",
"305 378 OFFCURVE",
"287 382 CURVE"
);
}
);
width = 668;
}
);
unicode = 0050;
},
{
glyphname = Thorn;
lastChange = "2014-11-13 18:01:19 +0000";
layers = (
{
layerId = "E777F328-EA17-4AE7-9EBA-8002E537BA4F";
name = Light;
paths = (
{
closed = 1;
nodes = (
"42 0 LINE",
"347 0 LINE",
"347 33 LINE",
"212 45 LINE",
"212 162 LINE",
"233 162 OFFCURVE",
"267 159 OFFCURVE",
"321 159 CURVE SMOOTH",
"464 157 OFFCURVE",
"604 239 OFFCURVE",
"604 398 CURVE SMOOTH",
"604 550 OFFCURVE",
"495 612 OFFCURVE",
"345 612 CURVE SMOOTH",
"298 612 OFFCURVE",
"250 603 OFFCURVE",
"212 599 CURVE",
"212 714 LINE",
"295 721 LINE",
"295 758 LINE",
"60 758 LINE",
"60 721 LINE",
"140 714 LINE",
"140 45 LINE",
"42 33 LINE"
);
},
{
closed = 1;
nodes = (
"212 555 LINE",
"241 563 OFFCURVE",
"284 568 OFFCURVE",
"315 570 CURVE SMOOTH",
"458 575 OFFCURVE",
"531 511 OFFCURVE",
"531 397 CURVE SMOOTH",
"531 251 OFFCURVE",
"435 199 OFFCURVE",
"319 197 CURVE SMOOTH",
"289 197 OFFCURVE",
"249 198 OFFCURVE",
"212 204 CURVE"
);
}
);
width = 633;
},
{
layerId = "39185045-6A8C-415A-8312-7B8F11386A4C";
name = Regular;
paths = (
{
closed = 1;
nodes = (
"42 0 LINE",
"360 0 LINE",
"360 42 LINE",
"229 56 LINE",
"229 161 LINE",
"250 160 OFFCURVE",
"279 160 OFFCURVE",
"328 159 CURVE SMOOTH",
"471 155 OFFCURVE",
"611 243 OFFCURVE",
"611 402 CURVE SMOOTH",
"611 543 OFFCURVE",
"506 612 OFFCURVE",
"356 612 CURVE SMOOTH",
"313 612 OFFCURVE",
"267 605 OFFCURVE",
"229 601 CURVE",
"229 702 LINE",
"314 710 LINE",
"314 758 LINE",
"49 758 LINE",
"49 710 LINE",
"134 702 LINE",
"134 56 LINE",
"42 42 LINE"
);
},
{
closed = 1;
nodes = (
"229 544 LINE",
"259 551 OFFCURVE",
"287 557 OFFCURVE",
"319 558 CURVE SMOOTH",
"444 563 OFFCURVE",
"514 500 OFFCURVE",
"514 400 CURVE SMOOTH",
"514 245 OFFCURVE",
"420 208 OFFCURVE",
"327 208 CURVE SMOOTH",
"297 208 OFFCURVE",
"267 208 OFFCURVE",
"229 214 CURVE"
);
}
);
width = 633;
},
{
layerId = "B26750D4-52C5-4F85-819B-BFB2F142DAD5";
name = Bold;
paths = (
{
closed = 1;
nodes = (
"35 0 LINE",
"412 0 LINE",
"412 68 LINE",
"288 89 LINE",
"288 156 LINE",
"307 154 OFFCURVE",
"344 152 OFFCURVE",
"381 152 CURVE SMOOTH",
"551 152 OFFCURVE",
"671 231 OFFCURVE",
"671 400 CURVE SMOOTH",
"671 547 OFFCURVE",
"564 600 OFFCURVE",
"396 600 CURVE SMOOTH",
"361 600 OFFCURVE",
"323 595 OFFCURVE",
"288 591 CURVE",
"288 666 LINE",
"385 678 LINE",
"385 758 LINE",
"11 758 LINE",
"11 678 LINE",
"115 666 LINE",
"115 89 LINE",
"35 68 LINE"
);
},
{
closed = 1;
nodes = (
"288 513 LINE",
"292 514 OFFCURVE",
"327 516 OFFCURVE",
"342 516 CURVE SMOOTH",
"433 516 OFFCURVE",
"491 476 OFFCURVE",
"491 389 CURVE SMOOTH",
"491 299 OFFCURVE",
"443 232 OFFCURVE",
"359 232 CURVE SMOOTH",
"339 232 OFFCURVE",
"298 233 OFFCURVE",
"288 236 CURVE"
);
}
);
width = 673;
}
);
unicode = 00DE;
},
{
glyphname = Q;
lastChange = "2014-11-13 18:04:15 +0000";
layers = (
{
background = {
paths = (
{
closed = 1;
nodes = (
"40 142 OFFCURVE",
"175 -18 OFFCURVE",
"377 -14 CURVE",
"395 -13 LINE",
"424 -130 OFFCURVE",
"504 -173 OFFCURVE",
"596 -173 CURVE SMOOTH",
"651 -173 OFFCURVE",
"697 -157 OFFCURVE",
"708 -139 CURVE",
"701 -91 LINE",
"684 -104 OFFCURVE",
"653 -111 OFFCURVE",
"620 -111 CURVE SMOOTH",
"545 -111 OFFCURVE",
"462 -82 OFFCURVE",
"438 -7 CURVE",
"591 24 OFFCURVE",
"710 161 OFFCURVE",
"714 386 CURVE SMOOTH",
"718 609 OFFCURVE",
"591 769 OFFCURVE",
"391 765 CURVE SMOOTH",
"205 761 OFFCURVE",
"50 624 OFFCURVE",
"44 369 CURVE SMOOTH"
);
},
{
closed = 1;
nodes = (
"223 27 OFFCURVE",
"123 176 OFFCURVE",
"123 369 CURVE SMOOTH",
"123 595 OFFCURVE",
"233 724 OFFCURVE",
"384 724 CURVE SMOOTH",
"545 724 OFFCURVE",
"636 573 OFFCURVE",
"636 386 CURVE SMOOTH",
"636 165 OFFCURVE",
"534 27 OFFCURVE",
"385 27 CURVE SMOOTH"
);
}
);
};
layerId = "E777F328-EA17-4AE7-9EBA-8002E537BA4F";
name = Light;
paths = (
{
closed = 1;
nodes = (
"320 765 OFFCURVE",
"246 741 OFFCURVE",
"187 695 CURVE SMOOTH",
"101 629 OFFCURVE",
"44 516 OFFCURVE",
"44 359 CURVE SMOOTH",
"44 137 OFFCURVE",
"178 -18 OFFCURVE",
"377 -14 CURVE",
"395 -14 LINE",
"424 -131 OFFCURVE",
"504 -173 OFFCURVE",
"596 -173 CURVE SMOOTH",
"651 -173 OFFCURVE",
"697 -157 OFFCURVE",
"708 -139 CURVE",
"701 -91 LINE",
"684 -104 OFFCURVE",
"653 -111 OFFCURVE",
"620 -111 CURVE SMOOTH",
"545 -111 OFFCURVE",
"462 -82 OFFCURVE",
"438 -7 CURVE",
"594 25 OFFCURVE",
"714 166 OFFCURVE",
"714 396 CURVE SMOOTH",
"714 611 OFFCURVE",
"591 765 OFFCURVE",
"398 765 CURVE SMOOTH"
);
},
{
closed = 1;
nodes = (
"545 724 OFFCURVE",
"636 573 OFFCURVE",
"636 386 CURVE SMOOTH",
"636 165 OFFCURVE",
"534 27 OFFCURVE",
"385 27 CURVE SMOOTH",
"223 27 OFFCURVE",
"123 176 OFFCURVE",
"123 369 CURVE SMOOTH",
"123 595 OFFCURVE",
"233 724 OFFCURVE",
"384 724 CURVE SMOOTH"
);
}
);
width = 759;
},
{
background = {
paths = (
{
closed = 1;
nodes = (
"233 723 CURVE SMOOTH",
"124 664 OFFCURVE",
"44 536 OFFCURVE",
"44 357 CURVE SMOOTH",
"44 144 OFFCURVE",
"172 -14 OFFCURVE",
"371 -14 CURVE SMOOTH",
"560 -14 OFFCURVE",
"712 133 OFFCURVE",
"718 385 CURVE SMOOTH",
"722 602 OFFCURVE",
"600 765 OFFCURVE",
"404 765 CURVE SMOOTH",
"354 765 OFFCURVE",
"294 756 OFFCURVE"
);
},
{
closed = 1;
nodes = (
"386 38 CURVE SMOOTH",
"236 38 OFFCURVE",
"149 198 OFFCURVE",
"149 368 CURVE SMOOTH",
"149 585 OFFCURVE",
"241 713 OFFCURVE",
"384 713 CURVE SMOOTH",
"533 713 OFFCURVE",
"612 554 OFFCURVE",
"612 384 CURVE SMOOTH",
"612 167 OFFCURVE",
"529 38 OFFCURVE"
);
}
);
};
layerId = "39185045-6A8C-415A-8312-7B8F11386A4C";
name = Regular;
paths = (
{
closed = 1;
nodes = (
"354 765 OFFCURVE",
"294 756 OFFCURVE",
"233 723 CURVE SMOOTH",
"124 664 OFFCURVE",
"44 536 OFFCURVE",
"44 357 CURVE",
"40 149 OFFCURVE",
"172 -14 OFFCURVE",
"378 -14 CURVE",
"389 -14 LINE",
"422 -143 OFFCURVE",
"510 -174 OFFCURVE",
"604 -174 CURVE SMOOTH",
"659 -174 OFFCURVE",
"700 -156 OFFCURVE",
"713 -137 CURVE",
"704 -77 LINE",
"687 -88 OFFCURVE",
"660 -93 OFFCURVE",
"636 -93 CURVE SMOOTH",
"570 -93 OFFCURVE",
"475 -83 OFFCURVE",
"443 -6 CURVE",
"597 27 OFFCURVE",
"714 166 OFFCURVE",
"718 385 CURVE SMOOTH",
"722 602 OFFCURVE",
"600 765 OFFCURVE",
"404 765 CURVE"
);
},
{
closed = 1;
nodes = (
"533 713 OFFCURVE",
"612 554 OFFCURVE",
"612 384 CURVE SMOOTH",
"612 167 OFFCURVE",
"529 38 OFFCURVE",
"386 38 CURVE SMOOTH",
"236 38 OFFCURVE",
"149 198 OFFCURVE",
"149 368 CURVE",
"149 585 OFFCURVE",
"241 713 OFFCURVE",
"384 713 CURVE"
);
}
);
width = 759;
},
{
background = {
paths = (
{
closed = 1;
nodes = (
"36 450 OFFCURVE",
"57 521 OFFCURVE",
"90 581 CURVE SMOOTH",
"124 639 OFFCURVE",
"171 686 OFFCURVE",
"225 717 CURVE SMOOTH",
"278 749 OFFCURVE",
"339 765 OFFCURVE",
"401 765 CURVE SMOOTH",
"507 765 OFFCURVE",
"596 725 OFFCURVE",
"657 657 CURVE SMOOTH",
"718 589 OFFCURVE",
"752 495 OFFCURVE",
"750 386 CURVE SMOOTH",
"748 282 OFFCURVE",
"720 195 OFFCURVE",
"673 129 CURVE SMOOTH",
"625 63 OFFCURVE",
"560 18 OFFCURVE",
"482 -2 CURVE",
"495 -30 OFFCURVE",
"515 -45 OFFCURVE",
"537 -54 CURVE SMOOTH",
"559 -63 OFFCURVE",
"583 -65 OFFCURVE",
"604 -64 CURVE SMOOTH",
"614 -63 OFFCURVE",
"623 -63 OFFCURVE",
"631 -62 CURVE",
"640 -61 OFFCURVE",
"646 -60 OFFCURVE",
"650 -60 CURVE SMOOTH",
"667 -57 OFFCURVE",
"684 -53 OFFCURVE",
"697 -49 CURVE SMOOTH",
"704 -47 OFFCURVE",
"709 -45 OFFCURVE",
"714 -44 CURVE SMOOTH",
"719 -42 OFFCURVE",
"723 -41 OFFCURVE",
"726 -40 CURVE",
"726 -147 LINE",
"714 -159 OFFCURVE",
"697 -169 OFFCURVE",
"674 -177 CURVE SMOOTH",
"650 -186 OFFCURVE",
"619 -191 OFFCURVE",
"582 -191 CURVE SMOOTH",
"547 -191 OFFCURVE",
"509 -183 OFFCURVE",
"476 -157 CURVE SMOOTH",
"442 -131 OFFCURVE",
"415 -86 OFFCURVE",
"400 -13 CURVE",
"399 -13 OFFCURVE",
"397 -13 OFFCURVE",
"396 -13 CURVE",
"394 -14 OFFCURVE",
"392 -14 OFFCURVE",
"391 -14 CURVE SMOOTH",
"280 -14 OFFCURVE",
"189 28 OFFCURVE",
"127 97 CURVE SMOOTH",
"65 165 OFFCURVE",
"32 261 OFFCURVE",
"34 368 CURVE SMOOTH"
);
},
{
closed = 1;
nodes = (
"460 64 OFFCURVE",
"501 91 OFFCURVE",
"526 145 CURVE SMOOTH",
"550 198 OFFCURVE",
"559 278 OFFCURVE",
"559 385 CURVE SMOOTH",
"559 428 OFFCURVE",
"554 475 OFFCURVE",
"543 520 CURVE SMOOTH",
"533 564 OFFCURVE",
"515 605 OFFCURVE",
"491 635 CURVE SMOOTH",
"467 665 OFFCURVE",
"436 685 OFFCURVE",
"396 685 CURVE SMOOTH",
"332 685 OFFCURVE",
"289 656 OFFCURVE",
"263 603 CURVE SMOOTH",
"236 550 OFFCURVE",
"226 471 OFFCURVE",
"226 369 CURVE SMOOTH",
"226 330 OFFCURVE",
"230 284 OFFCURVE",
"242 239 CURVE SMOOTH",
"253 194 OFFCURVE",
"271 150 OFFCURVE",
"297 118 CURVE SMOOTH",
"322 86 OFFCURVE",
"355 64 OFFCURVE",
"397 64 CURVE SMOOTH"
);
}
);
};
layerId = "B26750D4-52C5-4F85-819B-BFB2F142DAD5";
name = Bold;
paths = (
{
closed = 1;
nodes = (
"339 765 OFFCURVE",
"278 749 OFFCURVE",
"225 717 CURVE SMOOTH",
"103 647 OFFCURVE",
"34 513 OFFCURVE",
"34 359 CURVE SMOOTH",
"34 143 OFFCURVE",
"177 -14 OFFCURVE",
"391 -14 CURVE",
"400 -14 LINE",
"422 -123 OFFCURVE",
"477 -191 OFFCURVE",
"582 -191 CURVE SMOOTH",
"631 -191 OFFCURVE",
"693 -180 OFFCURVE",
"726 -147 CURVE",
"726 -40 LINE",
"690 -52 OFFCURVE",
"645 -64 OFFCURVE",
"597 -64 CURVE SMOOTH",
"548 -64 OFFCURVE",
"504 -49 OFFCURVE",
"482 -2 CURVE",
"654 42 OFFCURVE",
"750 199 OFFCURVE",
"750 395 CURVE SMOOTH",
"750 605 OFFCURVE",
"614 765 OFFCURVE",
"401 765 CURVE SMOOTH"
);
},
{
closed = 1;
nodes = (
"508 685 OFFCURVE",
"559 527 OFFCURVE",
"559 385 CURVE SMOOTH",
"559 203 OFFCURVE",
"537 64 OFFCURVE",
"397 64 CURVE SMOOTH",
"283 64 OFFCURVE",
"226 226 OFFCURVE",
"226 369 CURVE SMOOTH",
"226 541 OFFCURVE",
"253 685 OFFCURVE",
"396 685 CURVE SMOOTH"
);
}
);
width = 781;
}
);
unicode = 0051;
},
{
glyphname = R;
lastChange = "2014-11-13 18:07:59 +0000";
layers = (
{
background = {
paths = (
{
closed = 1;
nodes = (
"262 765 OFFCURVE",
"210 759 OFFCURVE",
"177 758 CURVE SMOOTH",
"53 758 LINE",
"53 717 LINE",
"140 710 LINE",
"140 45 LINE",
"42 33 LINE",
"42 0 LINE",
"318 0 LINE",
"318 33 LINE",
"212 44 LINE",
"212 335 LINE",
"250 335 OFFCURVE",
"287 335 OFFCURVE",
"322 336 CURVE",
"320 335 LINE",
"430 343 OFFCURVE",
"528 0 OFFCURVE",
"572 0 CURVE SMOOTH",
"697 0 LINE",
"697 33 LINE",
"638 44 LINE SMOOTH",
"592 52 OFFCURVE",
"503 318 OFFCURVE",
"410 347 CURVE",
"409 347 OFFCURVE",
"408 348 OFFCURVE",
"408 348 CURVE",
"512 377 OFFCURVE",
"580 459 OFFCURVE",
"580 561 CURVE SMOOTH",
"580 718 OFFCURVE",
"475 765 OFFCURVE",
"327 765 CURVE SMOOTH"
);
},
{
closed = 1;
nodes = (
"453 729 OFFCURVE",
"504 664 OFFCURVE",
"504 552 CURVE SMOOTH",
"504 444 OFFCURVE",
"443 377 OFFCURVE",
"325 375 CURVE SMOOTH",
"300 375 OFFCURVE",
"235 377 OFFCURVE",
"212 379 CURVE",
"212 716 LINE",
"238 724 OFFCURVE",
"282 723 OFFCURVE",
"313 724 CURVE SMOOTH"
);
}
);
};
layerId = "E777F328-EA17-4AE7-9EBA-8002E537BA4F";
name = Light;
paths = (
{
closed = 1;
nodes = (
"262 765 OFFCURVE",
"210 759 OFFCURVE",
"177 758 CURVE SMOOTH",
"53 758 LINE",
"53 717 LINE",
"140 710 LINE",
"140 45 LINE",
"42 33 LINE",
"42 0 LINE",
"318 0 LINE",
"318 33 LINE",
"212 44 LINE",
"212 335 LINE",
"252 335 OFFCURVE",
"285 335 OFFCURVE",
"320 335 CURVE",
"430 343 OFFCURVE",
"528 0 OFFCURVE",
"572 0 CURVE SMOOTH",
"697 0 LINE",
"697 33 LINE",
"638 44 LINE SMOOTH",
"592 52 OFFCURVE",
"504 318 OFFCURVE",
"411 347 CURVE",
"411 347 OFFCURVE",
"408 348 OFFCURVE",
"408 348 CURVE",
"512 377 OFFCURVE",
"580 459 OFFCURVE",
"580 561 CURVE SMOOTH",
"580 718 OFFCURVE",
"475 765 OFFCURVE",
"327 765 CURVE SMOOTH"
);
},
{
closed = 1;
nodes = (
"453 729 OFFCURVE",
"504 664 OFFCURVE",
"504 552 CURVE SMOOTH",
"504 444 OFFCURVE",
"443 377 OFFCURVE",
"325 375 CURVE SMOOTH",
"300 375 OFFCURVE",
"235 377 OFFCURVE",
"212 379 CURVE",
"212 716 LINE",
"238 724 OFFCURVE",
"282 723 OFFCURVE",
"313 724 CURVE SMOOTH"
);
}
);
width = 693;
},
{
layerId = "39185045-6A8C-415A-8312-7B8F11386A4C";
name = Regular;
paths = (
{
closed = 1;
nodes = (
"264 765 OFFCURVE",
"213 758 OFFCURVE",
"182 758 CURVE SMOOTH",
"54 758 LINE",
"54 705 LINE",
"134 697 LINE",
"134 56 LINE",
"42 42 LINE",
"42 0 LINE",
"331 0 LINE",
"331 42 LINE",
"229 56 LINE",
"229 328 LINE",
"259 328 OFFCURVE",
"285 328 OFFCURVE",
"308 329 CURVE SMOOTH",
"421 340 OFFCURVE",
"509 0 OFFCURVE",
"559 0 CURVE SMOOTH",
"700 0 LINE",
"700 42 LINE",
"647 56 LINE SMOOTH",
"597 70 OFFCURVE",
"524 298 OFFCURVE",
"432 344 CURVE",
"429 345 OFFCURVE",
"425 347 OFFCURVE",
"422 348 CURVE",
"519 381 OFFCURVE",
"585 461 OFFCURVE",
"585 563 CURVE SMOOTH",
"585 721 OFFCURVE",
"479 765 OFFCURVE",
"329 765 CURVE SMOOTH"
);
},
{
closed = 1;
nodes = (
"446 718 OFFCURVE",
"486 651 OFFCURVE",
"486 552 CURVE SMOOTH",
"486 431 OFFCURVE",
"420 380 OFFCURVE",
"316 380 CURVE SMOOTH",
"295 380 OFFCURVE",
"245 381 OFFCURVE",
"229 383 CURVE",
"229 705 LINE",
"254 712 OFFCURVE",
"284 711 OFFCURVE",
"316 713 CURVE SMOOTH"
);
}
);
width = 693;
},
{
background = {
paths = (
{
closed = 1;
nodes = (
"381 0 LINE",
"381 68 LINE",
"288 87 LINE",
"288 314 LINE",
"297 315 OFFCURVE",
"306 315 OFFCURVE",
"316 315 CURVE",
"326 314 OFFCURVE",
"336 314 OFFCURVE",
"347 315 CURVE",
"368 315 OFFCURVE",
"387 295 OFFCURVE",
"405 266 CURVE SMOOTH",
"422 236 OFFCURVE",
"439 197 OFFCURVE",
"455 158 CURVE SMOOTH",
"470 118 OFFCURVE",
"486 79 OFFCURVE",
"501 49 CURVE SMOOTH",
"517 20 OFFCURVE",
"532 0 OFFCURVE",
"548 0 CURVE SMOOTH",
"754 0 LINE",
"754 68 LINE",
"691 86 LINE",
"681 92 OFFCURVE",
"671 101 OFFCURVE",
"662 113 CURVE SMOOTH",
"643 138 OFFCURVE",
"624 171 OFFCURVE",
"604 208 CURVE SMOOTH",
"594 226 OFFCURVE",
"583 243 OFFCURVE",
"573 260 CURVE SMOOTH",
"551 293 OFFCURVE",
"528 323 OFFCURVE",
"501 337 CURVE",
"614 376 OFFCURVE",
"666 451 OFFCURVE",
"666 567 CURVE SMOOTH",
"666 639 OFFCURVE",
"634 688 OFFCURVE",
"581 720 CURVE SMOOTH",
"528 751 OFFCURVE",
"455 765 OFFCURVE",
"371 765 CURVE SMOOTH",
"346 765 OFFCURVE",
"314 764 OFFCURVE",
"276 762 CURVE SMOOTH",
"238 759 OFFCURVE",
"195 758 OFFCURVE",
"149 758 CURVE SMOOTH",
"39 758 LINE",
"39 674 LINE",
"115 662 LINE",
"115 89 LINE",
"30 68 LINE",
"30 0 LINE"
);
},
{
closed = 1;
nodes = (
"320 391 OFFCURVE",
"303 393 OFFCURVE",
"288 395 CURVE",
"288 679 LINE",
"291 681 OFFCURVE",
"294 682 OFFCURVE",
"299 683 CURVE",
"309 684 OFFCURVE",
"320 685 OFFCURVE",
"332 685 CURVE SMOOTH",
"337 685 OFFCURVE",
"342 685 OFFCURVE",
"347 685 CURVE SMOOTH",
"404 685 OFFCURVE",
"442 667 OFFCURVE",
"466 641 CURVE SMOOTH",
"489 615 OFFCURVE",
"499 581 OFFCURVE",
"499 549 CURVE SMOOTH",
"499 488 OFFCURVE",
"482 451 OFFCURVE",
"461 428 CURVE SMOOTH",
"439 405 OFFCURVE",
"412 397 OFFCURVE",
"390 394 CURVE SMOOTH",
"374 392 OFFCURVE",
"356 391 OFFCURVE",
"338 391 CURVE SMOOTH"
);
}
);
};
layerId = "B26750D4-52C5-4F85-819B-BFB2F142DAD5";
name = Bold;
paths = (
{
closed = 1;
nodes = (
"315 765 OFFCURVE",
"226 758 OFFCURVE",
"149 758 CURVE SMOOTH",
"39 758 LINE",
"39 674 LINE",
"115 662 LINE",
"115 89 LINE",
"30 68 LINE",
"30 0 LINE",
"381 0 LINE",
"381 68 LINE",
"288 87 LINE",
"288 314 LINE",
"301 314 OFFCURVE",
"314 314 OFFCURVE",
"347 315 CURVE",
"431 315 OFFCURVE",
"479 0 OFFCURVE",
"548 0 CURVE SMOOTH",
"754 0 LINE",
"754 68 LINE",
"691 86 LINE",
"646 107 OFFCURVE",
"595 253 OFFCURVE",
"527 318 CURVE SMOOTH",
"519 326 OFFCURVE",
"509 332 OFFCURVE",
"501 337 CURVE",
"614 376 OFFCURVE",
"666 451 OFFCURVE",
"666 567 CURVE SMOOTH",
"666 711 OFFCURVE",
"536 765 OFFCURVE",
"371 765 CURVE SMOOTH"
);
},
{
closed = 1;
nodes = (
"439 685 OFFCURVE",
"499 634.267 OFFCURVE",
"499 549 CURVE SMOOTH",
"499 434 OFFCURVE",
"449 391 OFFCURVE",
"338 391 CURVE SMOOTH",
"320 391 OFFCURVE",
"303 393 OFFCURVE",
"288 395 CURVE",
"288 679 LINE",
"297 685 OFFCURVE",
"320 685 OFFCURVE",
"347 685 CURVE SMOOTH"
);
}
);
width = 745;
}
);
unicode = 0052;
},
{
glyphname = Racute;
lastChange = "2014-11-13 18:08:45 +0000";
layers = (
{
background = {
paths = (
{
closed = 1;
nodes = (
"333 785 LINE",
"392 809 OFFCURVE",
"462 848 OFFCURVE",
"508 884 CURVE",
"457 938 LINE",
"312 806 LINE"
);
},
{
closed = 1;
nodes = (
"262 765 OFFCURVE",
"210 759 OFFCURVE",
"177 758 CURVE SMOOTH",
"53 758 LINE",
"53 717 LINE",
"140 710 LINE",
"140 45 LINE",
"42 33 LINE",
"42 0 LINE",
"318 0 LINE",
"318 33 LINE",
"212 44 LINE",
"212 335 LINE",
"252 335 OFFCURVE",
"285 335 OFFCURVE",
"320 335 CURVE",
"430 343 OFFCURVE",
"528 0 OFFCURVE",
"572 0 CURVE SMOOTH",
"697 0 LINE",
"697 33 LINE",
"638 44 LINE SMOOTH",
"592 52 OFFCURVE",
"503 318 OFFCURVE",
"410 347 CURVE",
"408 348 LINE",
"512 377 OFFCURVE",
"580 459 OFFCURVE",
"580 561 CURVE SMOOTH",
"580 718 OFFCURVE",
"475 765 OFFCURVE",
"327 765 CURVE SMOOTH"
);
},
{
closed = 1;
nodes = (
"453 729 OFFCURVE",
"504 664 OFFCURVE",
"504 552 CURVE SMOOTH",
"504 444 OFFCURVE",
"443 377 OFFCURVE",
"325 375 CURVE SMOOTH",
"300 375 OFFCURVE",
"235 377 OFFCURVE",
"212 379 CURVE",
"212 716 LINE",
"238 724 OFFCURVE",
"282 723 OFFCURVE",
"313 724 CURVE SMOOTH"
);
}
);
};
components = (
{
name = R;
},
{
name = acute.cap;
transform = "{1, 0, 0, 1, 85, 0}";
}
);
layerId = "E777F328-EA17-4AE7-9EBA-8002E537BA4F";
name = Light;
width = 693;
},
{
background = {
paths = (
{
closed = 1;
nodes = (
"336 785 LINE",
"396 795 OFFCURVE",
"470 826 OFFCURVE",
"531 865 CURVE",
"459 938 LINE",
"310 811 LINE"
);
},
{
closed = 1;
nodes = (
"264 765 OFFCURVE",
"213 758 OFFCURVE",
"182 758 CURVE SMOOTH",
"54 758 LINE",
"54 705 LINE",
"134 697 LINE",
"134 56 LINE",
"42 42 LINE",
"42 0 LINE",
"331 0 LINE",
"331 42 LINE",
"229 56 LINE",
"229 328 LINE",
"259 328 OFFCURVE",
"285 328 OFFCURVE",
"308 329 CURVE SMOOTH",
"421 340 OFFCURVE",
"509 0 OFFCURVE",
"559 0 CURVE SMOOTH",
"700 0 LINE",
"700 42 LINE",
"647 56 LINE SMOOTH",
"597 70 OFFCURVE",
"524 298 OFFCURVE",
"432 344 CURVE",
"422 348 LINE",
"519 381 OFFCURVE",
"585 461 OFFCURVE",
"585 563 CURVE SMOOTH",
"585 721 OFFCURVE",
"479 765 OFFCURVE",
"329 765 CURVE SMOOTH"
);
},
{
closed = 1;
nodes = (
"446 718 OFFCURVE",
"486 651 OFFCURVE",
"486 552 CURVE SMOOTH",
"486 431 OFFCURVE",
"420 380 OFFCURVE",
"316 380 CURVE SMOOTH",
"295 380 OFFCURVE",
"245 381 OFFCURVE",
"229 383 CURVE",
"229 705 LINE",
"254 712 OFFCURVE",
"284 711 OFFCURVE",
"316 713 CURVE SMOOTH"
);
}
);
};
components = (
{
name = R;
},
{
name = acute.cap;
transform = "{1, 0, 0, 1, 83, 0}";
}
);
layerId = "39185045-6A8C-415A-8312-7B8F11386A4C";
name = Regular;
width = 693;
},
{
background = {
paths = (
{
closed = 1;
nodes = (
"284 830 LINE",
"476 938 LINE",
"570 844 LINE",
"552 830 OFFCURVE",
"521 818 OFFCURVE",
"489 808 CURVE SMOOTH",
"456 798 OFFCURVE",
"421 791 OFFCURVE",
"392 785 CURVE SMOOTH",
"377 783 OFFCURVE",
"365 781 OFFCURVE",
"354 779 CURVE SMOOTH",
"344 778 OFFCURVE",
"336 777 OFFCURVE",
"333 778 CURVE"
);
},
{
closed = 1;
nodes = (
"30 68 LINE",
"115 89 LINE",
"115 662 LINE",
"39 674 LINE",
"39 758 LINE",
"149 758 LINE SMOOTH",
"195 758 OFFCURVE",
"238 759 OFFCURVE",
"276 762 CURVE SMOOTH",
"314 764 OFFCURVE",
"346 765 OFFCURVE",
"371 765 CURVE SMOOTH",
"455 765 OFFCURVE",
"528 751 OFFCURVE",
"581 720 CURVE SMOOTH",
"634 688 OFFCURVE",
"666 639 OFFCURVE",
"666 567 CURVE SMOOTH",
"666 451 OFFCURVE",
"614 376 OFFCURVE",
"501 337 CURVE",
"528 323 OFFCURVE",
"551 293 OFFCURVE",
"573 260 CURVE SMOOTH",
"583 243 OFFCURVE",
"594 226 OFFCURVE",
"604 208 CURVE SMOOTH",
"624 171 OFFCURVE",
"643 138 OFFCURVE",
"662 113 CURVE SMOOTH",
"671 101 OFFCURVE",
"681 92 OFFCURVE",
"691 86 CURVE",
"754 68 LINE",
"754 0 LINE",
"548 0 LINE SMOOTH",
"532 0 OFFCURVE",
"517 20 OFFCURVE",
"501 49 CURVE SMOOTH",
"486 79 OFFCURVE",
"470 118 OFFCURVE",
"455 158 CURVE SMOOTH",
"439 197 OFFCURVE",
"422 236 OFFCURVE",
"405 266 CURVE SMOOTH",
"387 295 OFFCURVE",
"368 315 OFFCURVE",
"347 315 CURVE",
"336 314 OFFCURVE",
"326 314 OFFCURVE",
"316 315 CURVE",
"306 315 OFFCURVE",
"297 315 OFFCURVE",
"288 314 CURVE",
"288 87 LINE",
"381 68 LINE",
"381 0 LINE",
"30 0 LINE"
);
},
{
closed = 1;
nodes = (
"288 395 LINE",
"303 393 OFFCURVE",
"320 391 OFFCURVE",
"338 391 CURVE SMOOTH",
"356 391 OFFCURVE",
"374 392 OFFCURVE",
"390 394 CURVE SMOOTH",
"412 397 OFFCURVE",
"439 405 OFFCURVE",
"461 428 CURVE SMOOTH",
"482 451 OFFCURVE",
"499 488 OFFCURVE",
"499 549 CURVE SMOOTH",
"499 581 OFFCURVE",
"489 615 OFFCURVE",
"466 641 CURVE SMOOTH",
"442 667 OFFCURVE",
"404 685 OFFCURVE",
"347 685 CURVE SMOOTH",
"342 685 OFFCURVE",
"337 685 OFFCURVE",
"332 685 CURVE SMOOTH",
"320 685 OFFCURVE",
"309 684 OFFCURVE",
"299 683 CURVE",
"294 682 OFFCURVE",
"291 681 OFFCURVE",
"288 679 CURVE"
);
}
);
};
components = (
{
name = R;
},
{
name = acute.cap;
transform = "{1, 0, 0, 1, 181, 0}";
}
);
layerId = "B26750D4-52C5-4F85-819B-BFB2F142DAD5";
name = Bold;
width = 745;
}
);
unicode = 0154;
},
{
glyphname = Rcaron;
lastChange = "2014-11-13 18:11:39 +0000";
layers = (
{
background = {
paths = (
{
closed = 1;
nodes = (
"336 848 LINE",
"207 938 LINE",
"174 917 LINE",
"302 796 LINE",
"371 796 LINE",
"497 918 LINE",
"468 938 LINE"
);
},
{
closed = 1;
nodes = (
"262 765 OFFCURVE",
"210 759 OFFCURVE",
"177 758 CURVE SMOOTH",
"53 758 LINE",
"53 717 LINE",
"140 710 LINE",
"140 45 LINE",
"42 33 LINE",
"42 0 LINE",
"318 0 LINE",
"318 33 LINE",
"212 44 LINE",
"212 335 LINE",
"252 335 OFFCURVE",
"285 335 OFFCURVE",
"320 335 CURVE",
"430 343 OFFCURVE",
"528 0 OFFCURVE",
"572 0 CURVE SMOOTH",
"697 0 LINE",
"697 33 LINE",
"638 44 LINE SMOOTH",
"592 52 OFFCURVE",
"503 318 OFFCURVE",
"410 347 CURVE",
"408 348 LINE",
"512 377 OFFCURVE",
"580 459 OFFCURVE",
"580 561 CURVE SMOOTH",
"580 718 OFFCURVE",
"475 765 OFFCURVE",
"327 765 CURVE SMOOTH"
);
},
{
closed = 1;
nodes = (
"453 729 OFFCURVE",
"504 664 OFFCURVE",
"504 552 CURVE SMOOTH",
"504 444 OFFCURVE",
"443 377 OFFCURVE",
"325 375 CURVE SMOOTH",
"300 375 OFFCURVE",
"235 377 OFFCURVE",
"212 379 CURVE",
"212 716 LINE",
"238 724 OFFCURVE",
"282 723 OFFCURVE",
"313 724 CURVE SMOOTH"
);
}
);
};
components = (
{
name = R;
},
{
name = caron.cap;
transform = "{1, 0, 0, 1, 103, 0}";
}
);
layerId = "E777F328-EA17-4AE7-9EBA-8002E537BA4F";
name = Light;
width = 693;
},
{
background = {
paths = (
{
closed = 1;
nodes = (
"342 855 LINE",
"223 938 LINE",
"180 914 LINE",
"296 789 LINE",
"388 789 LINE",
"502 915 LINE",
"464 938 LINE"
);
},
{
closed = 1;
nodes = (
"264 765 OFFCURVE",
"213 758 OFFCURVE",
"182 758 CURVE SMOOTH",
"54 758 LINE",
"54 705 LINE",
"134 697 LINE",
"134 56 LINE",
"42 42 LINE",
"42 0 LINE",
"331 0 LINE",
"331 42 LINE",
"229 56 LINE",
"229 328 LINE",
"259 328 OFFCURVE",
"285 328 OFFCURVE",
"308 329 CURVE SMOOTH",
"421 340 OFFCURVE",
"509 0 OFFCURVE",
"559 0 CURVE SMOOTH",
"700 0 LINE",
"700 42 LINE",
"647 56 LINE SMOOTH",
"597 70 OFFCURVE",
"524 298 OFFCURVE",
"432 344 CURVE",
"422 348 LINE",
"519 381 OFFCURVE",
"585 461 OFFCURVE",
"585 563 CURVE SMOOTH",
"585 721 OFFCURVE",
"479 765 OFFCURVE",
"329 765 CURVE SMOOTH"
);
},
{
closed = 1;
nodes = (
"446 718 OFFCURVE",
"486 651 OFFCURVE",
"486 552 CURVE SMOOTH",
"486 431 OFFCURVE",
"420 380 OFFCURVE",
"316 380 CURVE SMOOTH",
"295 380 OFFCURVE",
"245 381 OFFCURVE",
"229 383 CURVE",
"229 705 LINE",
"254 712 OFFCURVE",
"284 711 OFFCURVE",
"316 713 CURVE SMOOTH"
);
}
);
};
components = (
{
name = R;
},
{
name = caron.cap;
transform = "{1, 0, 0, 1, 80, 0}";
}
);
layerId = "39185045-6A8C-415A-8312-7B8F11386A4C";
name = Regular;
width = 693;
},
{
background = {
paths = (
{
closed = 1;
nodes = (
"163 902 LINE",
"218 938 LINE",
"355 875 LINE",
"498 938 LINE",
"552 902 LINE",
"413 780 LINE",
"300 780 LINE"
);
},
{
closed = 1;
nodes = (
"30 68 LINE",
"115 89 LINE",
"115 662 LINE",
"39 674 LINE",
"39 758 LINE",
"149 758 LINE SMOOTH",
"195 758 OFFCURVE",
"238 759 OFFCURVE",
"276 762 CURVE SMOOTH",
"314 764 OFFCURVE",
"346 765 OFFCURVE",
"371 765 CURVE SMOOTH",
"455 765 OFFCURVE",
"528 751 OFFCURVE",
"581 720 CURVE SMOOTH",
"634 688 OFFCURVE",
"666 639 OFFCURVE",
"666 567 CURVE SMOOTH",
"666 451 OFFCURVE",
"614 376 OFFCURVE",
"501 337 CURVE",
"528 323 OFFCURVE",
"551 293 OFFCURVE",
"573 260 CURVE SMOOTH",
"583 243 OFFCURVE",
"594 226 OFFCURVE",
"604 208 CURVE SMOOTH",
"624 171 OFFCURVE",
"643 138 OFFCURVE",
"662 113 CURVE SMOOTH",
"671 101 OFFCURVE",
"681 92 OFFCURVE",
"691 86 CURVE",
"754 68 LINE",
"754 0 LINE",
"548 0 LINE SMOOTH",
"532 0 OFFCURVE",
"517 20 OFFCURVE",
"501 49 CURVE SMOOTH",
"486 79 OFFCURVE",
"470 118 OFFCURVE",
"455 158 CURVE SMOOTH",
"439 197 OFFCURVE",
"422 236 OFFCURVE",
"405 266 CURVE SMOOTH",
"387 295 OFFCURVE",
"368 315 OFFCURVE",
"347 315 CURVE",
"336 314 OFFCURVE",
"326 314 OFFCURVE",
"316 315 CURVE",
"306 315 OFFCURVE",
"297 315 OFFCURVE",
"288 314 CURVE",
"288 87 LINE",
"381 68 LINE",
"381 0 LINE",
"30 0 LINE"
);
},
{
closed = 1;
nodes = (
"288 395 LINE",
"303 393 OFFCURVE",
"320 391 OFFCURVE",
"338 391 CURVE SMOOTH",
"356 391 OFFCURVE",
"374 392 OFFCURVE",
"390 394 CURVE SMOOTH",
"412 397 OFFCURVE",
"439 405 OFFCURVE",
"461 428 CURVE SMOOTH",
"482 451 OFFCURVE",
"499 488 OFFCURVE",
"499 549 CURVE SMOOTH",
"499 581 OFFCURVE",
"489 615 OFFCURVE",
"466 641 CURVE SMOOTH",
"442 667 OFFCURVE",
"404 685 OFFCURVE",
"347 685 CURVE SMOOTH",
"342 685 OFFCURVE",
"337 685 OFFCURVE",
"332 685 CURVE SMOOTH",
"320 685 OFFCURVE",
"309 684 OFFCURVE",
"299 683 CURVE",
"294 682 OFFCURVE",
"291 681 OFFCURVE",
"288 679 CURVE"
);
}
);
};
components = (
{
name = R;
},
{
name = caron.cap;
transform = "{1, 0, 0, 1, 99, 0}";
}
);
layerId = "B26750D4-52C5-4F85-819B-BFB2F142DAD5";
name = Bold;
width = 745;
}
);
unicode = 0158;
},
{
glyphname = Rcommaaccent;
lastChange = "2014-11-13 18:12:21 +0000";
layers = (
{
background = {
paths = (
{
closed = 1;
nodes = (
"329 -73 LINE",
"329 -94 LINE",
"352 -94 OFFCURVE",
"387 -120 OFFCURVE",
"387 -163 CURVE SMOOTH",
"387 -212 OFFCURVE",
"367 -265 OFFCURVE",
"328 -281 CURVE",
"328 -294 LINE",
"348 -313 LINE",
"396 -295 OFFCURVE",
"463 -229 OFFCURVE",
"462 -147 CURVE SMOOTH",
"460 -101 OFFCURVE",
"427 -48 OFFCURVE",
"364 -36 CURVE"
);
},
{
closed = 1;
nodes = (
"262 765 OFFCURVE",
"210 759 OFFCURVE",
"177 758 CURVE SMOOTH",
"53 758 LINE",
"53 717 LINE",
"140 710 LINE",
"140 45 LINE",
"42 33 LINE",
"42 0 LINE",
"318 0 LINE",
"318 33 LINE",
"212 44 LINE",
"212 335 LINE",
"252 335 OFFCURVE",
"285 335 OFFCURVE",
"320 335 CURVE",
"430 343 OFFCURVE",
"528 0 OFFCURVE",
"572 0 CURVE SMOOTH",
"697 0 LINE",
"697 33 LINE",
"638 44 LINE SMOOTH",
"592 52 OFFCURVE",
"503 318 OFFCURVE",
"410 347 CURVE",
"408 348 LINE",
"512 377 OFFCURVE",
"580 459 OFFCURVE",
"580 561 CURVE SMOOTH",
"580 718 OFFCURVE",
"475 765 OFFCURVE",
"327 765 CURVE SMOOTH"
);
},
{
closed = 1;
nodes = (
"453 729 OFFCURVE",
"504 664 OFFCURVE",
"504 552 CURVE SMOOTH",
"504 444 OFFCURVE",
"443 377 OFFCURVE",
"325 375 CURVE SMOOTH",
"300 375 OFFCURVE",
"235 377 OFFCURVE",
"212 379 CURVE",
"212 716 LINE",
"238 724 OFFCURVE",
"282 723 OFFCURVE",
"313 724 CURVE SMOOTH"
);
}
);
};
components = (
{
name = R;
},
{
name = commaaccent;
transform = "{1, 0, 0, 1, 194, 0}";
}
);
layerId = "E777F328-EA17-4AE7-9EBA-8002E537BA4F";
name = Light;
width = 693;
},
{
background = {
paths = (
{
closed = 1;
nodes = (
"321 -71 LINE",
"321 -97 LINE",
"339 -97 OFFCURVE",
"371 -126 OFFCURVE",
"371 -164 CURVE SMOOTH",
"371 -207 OFFCURVE",
"359 -258 OFFCURVE",
"322 -275 CURVE",
"322 -288 LINE",
"349 -313 LINE",
"393 -301 OFFCURVE",
"471 -233 OFFCURVE",
"471 -144 CURVE SMOOTH",
"471 -96 OFFCURVE",
"439 -38 OFFCURVE",
"371 -20 CURVE"
);
},
{
closed = 1;
nodes = (
"264 765 OFFCURVE",
"213 758 OFFCURVE",
"182 758 CURVE SMOOTH",
"54 758 LINE",
"54 705 LINE",
"134 697 LINE",
"134 56 LINE",
"42 42 LINE",
"42 0 LINE",
"331 0 LINE",
"331 42 LINE",
"229 56 LINE",
"229 328 LINE",
"259 328 OFFCURVE",
"285 328 OFFCURVE",
"308 329 CURVE SMOOTH",
"421 340 OFFCURVE",
"509 0 OFFCURVE",
"559 0 CURVE SMOOTH",
"700 0 LINE",
"700 42 LINE",
"647 56 LINE SMOOTH",
"597 70 OFFCURVE",
"524 298 OFFCURVE",
"432 344 CURVE",
"422 348 LINE",
"519 381 OFFCURVE",
"585 461 OFFCURVE",
"585 563 CURVE SMOOTH",
"585 721 OFFCURVE",
"479 765 OFFCURVE",
"329 765 CURVE SMOOTH"
);
},
{
closed = 1;
nodes = (
"446 718 OFFCURVE",
"486 651 OFFCURVE",
"486 552 CURVE SMOOTH",
"486 431 OFFCURVE",
"420 380 OFFCURVE",
"316 380 CURVE SMOOTH",
"295 380 OFFCURVE",
"245 381 OFFCURVE",
"229 383 CURVE",
"229 705 LINE",
"254 712 OFFCURVE",
"284 711 OFFCURVE",
"316 713 CURVE SMOOTH"
);
}
);
};
components = (
{
name = R;
},
{
name = commaaccent;
transform = "{1, 0, 0, 1, 187, 0}";
}
);
layerId = "39185045-6A8C-415A-8312-7B8F11386A4C";
name = Regular;
width = 693;
},
{
background = {
paths = (
{
closed = 1;
nodes = (
"30 68 LINE",
"115 89 LINE",
"115 662 LINE",
"39 674 LINE",
"39 758 LINE",
"149 758 LINE SMOOTH",
"195 758 OFFCURVE",
"238 759 OFFCURVE",
"276 762 CURVE SMOOTH",
"314 764 OFFCURVE",
"346 765 OFFCURVE",
"371 765 CURVE SMOOTH",
"455 765 OFFCURVE",
"528 751 OFFCURVE",
"581 720 CURVE SMOOTH",
"634 688 OFFCURVE",
"666 639 OFFCURVE",
"666 567 CURVE SMOOTH",
"666 451 OFFCURVE",
"614 376 OFFCURVE",
"501 337 CURVE",
"528 323 OFFCURVE",
"551 293 OFFCURVE",
"573 260 CURVE SMOOTH",
"583 243 OFFCURVE",
"594 226 OFFCURVE",
"604 208 CURVE SMOOTH",
"624 171 OFFCURVE",
"643 138 OFFCURVE",
"662 113 CURVE SMOOTH",
"671 101 OFFCURVE",
"681 92 OFFCURVE",
"691 86 CURVE",
"754 68 LINE",
"754 0 LINE",
"548 0 LINE SMOOTH",
"532 0 OFFCURVE",
"517 20 OFFCURVE",
"501 49 CURVE SMOOTH",
"486 79 OFFCURVE",
"470 118 OFFCURVE",
"455 158 CURVE SMOOTH",
"439 197 OFFCURVE",
"422 236 OFFCURVE",
"405 266 CURVE SMOOTH",
"387 295 OFFCURVE",
"368 315 OFFCURVE",
"347 315 CURVE",
"336 314 OFFCURVE",
"326 314 OFFCURVE",
"316 315 CURVE",
"306 315 OFFCURVE",
"297 315 OFFCURVE",
"288 314 CURVE",
"288 87 LINE",
"381 68 LINE",
"381 0 LINE",
"30 0 LINE"
);
},
{
closed = 1;
nodes = (
"288 395 LINE",
"303 393 OFFCURVE",
"320 391 OFFCURVE",
"338 391 CURVE SMOOTH",
"356 391 OFFCURVE",
"374 392 OFFCURVE",
"390 394 CURVE SMOOTH",
"412 397 OFFCURVE",
"439 405 OFFCURVE",
"461 428 CURVE SMOOTH",
"482 451 OFFCURVE",
"499 488 OFFCURVE",
"499 549 CURVE SMOOTH",
"499 581 OFFCURVE",
"489 615 OFFCURVE",
"466 641 CURVE SMOOTH",
"442 667 OFFCURVE",
"404 685 OFFCURVE",
"347 685 CURVE SMOOTH",
"342 685 OFFCURVE",
"337 685 OFFCURVE",
"332 685 CURVE SMOOTH",
"320 685 OFFCURVE",
"309 684 OFFCURVE",
"299 683 CURVE",
"294 682 OFFCURVE",
"291 681 OFFCURVE",
"288 679 CURVE"
);
},
{
closed = 1;
nodes = (
"407 -20 LINE",
"441 -20 OFFCURVE",
"474 -32 OFFCURVE",
"497 -56 CURVE SMOOTH",
"521 -80 OFFCURVE",
"536 -114 OFFCURVE",
"536 -157 CURVE SMOOTH",
"536 -185 OFFCURVE",
"526 -210 OFFCURVE",
"513 -231 CURVE SMOOTH",
"499 -253 OFFCURVE",
"479 -272 OFFCURVE",
"461 -286 CURVE SMOOTH",
"443 -299 OFFCURVE",
"425 -309 OFFCURVE",
"412 -313 CURVE",
"349 -288 LINE",
"349 -277 LINE",
"353 -273 OFFCURVE",
"358 -269 OFFCURVE",
"363 -264 CURVE SMOOTH",
"374 -255 OFFCURVE",
"384 -244 OFFCURVE",
"391 -229 CURVE SMOOTH",
"395 -221 OFFCURVE",
"396 -212 OFFCURVE",
"396 -202 CURVE SMOOTH",
"396 -185 OFFCURVE",
"389 -168 OFFCURVE",
"378 -156 CURVE SMOOTH",
"367 -145 OFFCURVE",
"351 -137 OFFCURVE",
"335 -137 CURVE",
"335 -99 LINE"
);
}
);
};
components = (
{
name = R;
},
{
name = commaaccent;
transform = "{1, 0, 0, 1, 260, 0}";
}
);
layerId = "B26750D4-52C5-4F85-819B-BFB2F142DAD5";
name = Bold;
width = 745;
}
);
unicode = 0156;
},
{
glyphname = S;
lastChange = "2014-11-13 18:13:51 +0000";
layers = (
{
layerId = "E777F328-EA17-4AE7-9EBA-8002E537BA4F";
name = Light;
paths = (
{
closed = 1;
nodes = (
"435 -11 OFFCURVE",
"550 49 OFFCURVE",
"550 192 CURVE SMOOTH",
"550 307 OFFCURVE",
"434 364 OFFCURVE",
"327 415 CURVE SMOOTH",
"234 459 OFFCURVE",
"147 503 OFFCURVE",
"147 586 CURVE SMOOTH",
"147 689 OFFCURVE",
"240 727 OFFCURVE",
"311 727 CURVE SMOOTH",
"363 727 OFFCURVE",
"414 718 OFFCURVE",
"443 693 CURVE",
"472 596 LINE",
"505 596 LINE",
"505 726 LINE",
"476 743 OFFCURVE",
"417 765 OFFCURVE",
"317 765 CURVE SMOOTH",
"216 765 OFFCURVE",
"80 712 OFFCURVE",
"80 575 CURVE SMOOTH",
"80 464 OFFCURVE",
"187 408 OFFCURVE",
"291 358 CURVE SMOOTH",
"388 311 OFFCURVE",
"482 263 OFFCURVE",
"482 173 CURVE SMOOTH",
"482 66 OFFCURVE",
"391 28 OFFCURVE",
"307 28 CURVE SMOOTH",
"250 28 OFFCURVE",
"174 38 OFFCURVE",
"134 77 CURVE",
"111 177 LINE",
"75 177 LINE",
"75 31 LINE",
"103 14 OFFCURVE",
"201 -11 OFFCURVE",
"298 -11 CURVE SMOOTH"
);
}
);
width = 600;
},
{
layerId = "39185045-6A8C-415A-8312-7B8F11386A4C";
name = Regular;
paths = (
{
closed = 1;
nodes = (
"432 -11 OFFCURVE",
"550 48 OFFCURVE",
"550 194 CURVE SMOOTH",
"550 308 OFFCURVE",
"436 369 OFFCURVE",
"332 425 CURVE SMOOTH",
"246 470 OFFCURVE",
"168 519 OFFCURVE",
"168 593 CURVE SMOOTH",
"168 688 OFFCURVE",
"255 717 OFFCURVE",
"308 717 CURVE SMOOTH",
"355 717 OFFCURVE",
"401 707 OFFCURVE",
"424 686 CURVE",
"462 592 LINE",
"504 592 LINE",
"504 728 LINE",
"476 744 OFFCURVE",
"410 765 OFFCURVE",
"315 765 CURVE SMOOTH",
"217 765 OFFCURVE",
"80 713 OFFCURVE",
"80 577 CURVE SMOOTH",
"80 467 OFFCURVE",
"182 406 OFFCURVE",
"281 352 CURVE SMOOTH",
"373 300 OFFCURVE",
"460 250 OFFCURVE",
"460 167 CURVE SMOOTH",
"460 76 OFFCURVE",
"383 38 OFFCURVE",
"311 38 CURVE SMOOTH",
"253 38 OFFCURVE",
"188 49 OFFCURVE",
"149 90 CURVE",
"118 187 LINE",
"75 187 LINE",
"75 30 LINE",
"103 13 OFFCURVE",
"200 -11 OFFCURVE",
"298 -11 CURVE SMOOTH"
);
}
);
width = 600;
},
{
background = {
paths = (
{
closed = 1;
nodes = (
"67 229 LINE",
"140 229 LINE",
"186 111 LINE",
"203 88 OFFCURVE",
"225 76 OFFCURVE",
"249 69 CURVE SMOOTH",
"272 63 OFFCURVE",
"298 62 OFFCURVE",
"323 62 CURVE SMOOTH",
"349 62 OFFCURVE",
"378 68 OFFCURVE",
"400 84 CURVE SMOOTH",
"423 101 OFFCURVE",
"439 127 OFFCURVE",
"439 170 CURVE SMOOTH",
"439 203 OFFCURVE",
"417 229 OFFCURVE",
"384 254 CURVE SMOOTH",
"367 267 OFFCURVE",
"348 279 OFFCURVE",
"327 290 CURVE SMOOTH",
"284 313 OFFCURVE",
"236 338 OFFCURVE",
"189 368 CURVE SMOOTH",
"142 397 OFFCURVE",
"104 434 OFFCURVE",
"81 479 CURVE SMOOTH",
"70 502 OFFCURVE",
"64 528 OFFCURVE",
"64 557 CURVE SMOOTH",
"64 624 OFFCURVE",
"97 676 OFFCURVE",
"146 711 CURVE SMOOTH",
"194 747 OFFCURVE",
"260 765 OFFCURVE",
"326 765 CURVE SMOOTH",
"379 765 OFFCURVE",
"434 760 OFFCURVE",
"477 752 CURVE SMOOTH",
"499 749 OFFCURVE",
"517 745 OFFCURVE",
"532 741 CURVE SMOOTH",
"547 737 OFFCURVE",
"557 733 OFFCURVE",
"563 730 CURVE",
"563 568 LINE",
"482 568 LINE",
"437 671 LINE",
"435 673 OFFCURVE",
"431 675 OFFCURVE",
"425 678 CURVE SMOOTH",
"413 683 OFFCURVE",
"395 688 OFFCURVE",
"374 691 CURVE SMOOTH",
"364 693 OFFCURVE",
"354 694 OFFCURVE",
"343 694 CURVE SMOOTH",
"317 694 OFFCURVE",
"289 689 OFFCURVE",
"267 677 CURVE SMOOTH",
"245 665 OFFCURVE",
"229 645 OFFCURVE",
"229 614 CURVE SMOOTH",
"229 577 OFFCURVE",
"246 548 OFFCURVE",
"271 522 CURVE SMOOTH",
"297 497 OFFCURVE",
"333 476 OFFCURVE",
"372 454 CURVE SMOOTH",
"390 444 OFFCURVE",
"409 434 OFFCURVE",
"428 424 CURVE SMOOTH",
"466 404 OFFCURVE",
"502 381 OFFCURVE",
"534 356 CURVE SMOOTH",
"565 331 OFFCURVE",
"589 301 OFFCURVE",
"603 265 CURVE SMOOTH",
"609 247 OFFCURVE",
"613 228 OFFCURVE",
"613 206 CURVE SMOOTH",
"613 143 OFFCURVE",
"585 88 OFFCURVE",
"536 49 CURVE SMOOTH",
"486 10 OFFCURVE",
"413 -14 OFFCURVE",
"322 -14 CURVE SMOOTH",
"277 -14 OFFCURVE",
"226 -9 OFFCURVE",
"179 -1 CURVE SMOOTH",
"133 7 OFFCURVE",
"92 18 OFFCURVE",
"67 31 CURVE"
);
}
);
};
layerId = "B26750D4-52C5-4F85-819B-BFB2F142DAD5";
name = Bold;
paths = (
{
closed = 1;
nodes = (
"481 -14 OFFCURVE",
"613 63 OFFCURVE",
"613 206 CURVE SMOOTH",
"613 307 OFFCURVE",
"532 370 OFFCURVE",
"428 424 CURVE SMOOTH",
"305 489 OFFCURVE",
"229 532 OFFCURVE",
"229 614 CURVE SMOOTH",
"229 669 OFFCURVE",
"282 694 OFFCURVE",
"343 694 CURVE SMOOTH",
"368 694 OFFCURVE",
"420 685 OFFCURVE",
"437 671 CURVE",
"482 568 LINE",
"563 568 LINE",
"563 730 LINE",
"520 751 OFFCURVE",
"388 765 OFFCURVE",
"326 765 CURVE SMOOTH",
"189 765 OFFCURVE",
"64 686 OFFCURVE",
"64 557 CURVE SMOOTH",
"64 429 OFFCURVE",
"173 372 OFFCURVE",
"327 290 CURVE SMOOTH",
"386 259 OFFCURVE",
"439 218 OFFCURVE",
"439 170 CURVE SMOOTH",
"439 100 OFFCURVE",
"393 62 OFFCURVE",
"323 62 CURVE SMOOTH",
"267 62 OFFCURVE",
"218 67 OFFCURVE",
"186 111 CURVE",
"140 229 LINE",
"67 229 LINE",
"67 31 LINE",
"121 3 OFFCURVE",
"247 -14 OFFCURVE",
"322 -14 CURVE SMOOTH"
);
}
);
width = 643;
}
);
unicode = 0053;
},
